<svg xmlns="http://www.w3.org/2000/svg" xmlns:xlink="http://www.w3.org/1999/xlink" version="1.1" x="0px" y="0px" width="192px" height="34px" viewBox="0 0 192 34" xml:space="preserve" class="style0"><style>.style0{enable-background:	new 0 0 192 34;}.style1{fill:	#004289;}.style2{fill:	#56AF31;}.style3{fill:	#CF0A2C;}.style4{fill:	#FFFFFF;}.style5{fill:	#E75300;}.style6{fill:	#76B82A;}.style7{fill:	#E30613;}.style8{fill:	#164194;}</style><g><g><path d="M112.006 23.019c-0.402 4.608-1.931 7.275-4.939 7.275c-0.724 0-1.361-0.115-1.802-0.306 l1.176-13.443c0.598-0.306 1.221-0.458 2.173-0.458C111.774 16.1 112.4 19 112 23.019z M117.904 22.6 c0.529-6.057-2.482-9.941-7.318-9.941c-1.79 0-2.883 0.304-3.875 0.761l0.863-9.863h-5.942l-2.516 28.8 c1.295 0.9 3.8 1.5 7.3 1.522C113.151 33.9 117.3 29.8 117.9 22.64z" class="style1"/><path d="M164.331 33.491l1.259-14.394c0.137-1.562-0.67-2.781-2.729-2.781c-1.028 0-1.93 0.305-2.675 1 c0 0-0.674 7.707-1.035 11.83c-0.297 3.4-2.217 4.355-4.507 4.355c-1.291 0-1.814 0-1.814 0l1.266-14.471 c0.144-1.637-0.906-2.704-2.962-2.704c-1.067 0-1.686 0.115-2.435 0.382l-1.469 16.793h-5.94l1.696-19.384 c2.374-1.028 4.854-1.523 8.435-1.523c3.391 0 5.3 0.9 6.3 2.057c1.393-1.104 3.569-2.057 6.961-2.057 c4.873 0 7.1 2.9 6.8 6.514l-1.258 14.394H164.331z" class="style1"/><path d="M131.526 30.179c-0.558 0.268-1.332 0.42-2.207 0.42c-2.362 0-3.644-1.029-3.434-3.427 c0.286-3.277 2.682-4.114 6.293-4.456L131.526 30.179z M136.896 32.351l1.073-12.264c0.486-5.56-2.771-7.503-7.418-7.503 c-2.919 0-5.809 0.684-8.072 1.639c0.405 1.7 2 2.8 3.5 2.503c1.066-0.181 2.165-0.448 3.152-0.448 c2.172 0 3.6 0.6 3.4 2.742l-0.083 0.951c-6.221 0.572-11.65 2.134-12.113 7.429c-0.373 4.3 2.5 6.5 8.4 6.5 C132.269 33.9 135.1 33.3 136.9 32.351z" class="style1"/><path d="M185.286 30.179c-0.558 0.268-1.333 0.42-2.208 0.42c-2.362 0-3.644-1.029-3.433-3.427 c0.284-3.277 2.682-4.114 6.293-4.456L185.286 30.179z M190.655 32.351l1.073-12.264c0.486-5.56-2.772-7.503-7.418-7.503 c-2.919 0-5.81 0.684-8.072 1.639c0.405 1.7 2 2.8 3.5 2.503c1.068-0.181 2.165-0.448 3.153-0.448 c2.172 0 3.6 0.6 3.4 2.742l-0.084 0.951c-6.219 0.572-11.649 2.134-12.114 7.429c-0.372 4.3 2.5 6.5 8.4 6.5 C186.026 33.9 188.9 33.3 190.7 32.351z" class="style1"/></g><path d="M122.288 11.917c2.82-2.646 8.2-2.743 12.244-2.428c5.48 0.4 10.096-3.716 12.754-9.45 c-2.82 2.646-8.201 2.743-12.244 2.429C129.562 2 124.9 6.2 122.3 11.917z" class="style2"/></g><g><g><path d="M3.975 25.432h1.323v1.383c0 0.364-0.292 0.655-0.655 0.655h-1.27c-0.364 0-0.65-0.291-0.65-0.655 v-2.657c0-0.364 0.286-0.658 0.65-0.658h1.27c0.363 0 0.7 0.3 0.7 0.658v0.435l-0.565 0.089v-0.405 c0-0.144-0.108-0.251-0.251-0.251H3.545c-0.143 0-0.257 0.107-0.257 0.251v2.42c0 0.1 0.1 0.3 0.3 0.251h0.936 c0.143 0 0.251-0.107 0.251-0.251v-0.744H3.975V25.432z" class="style3"/><path d="M9.285 27.47H8.713l-0.321-0.94H6.93l-0.31 0.94H6.042l1.353-3.971h0.537L9.285 27.47z M7.103 26.016h1.122l-0.561-1.758L7.103 26.016z" class="style3"/><path d="M11.627 25.867h-0.912v1.603H10.15v-3.971h1.961c0.369 0 0.7 0.3 0.7 0.658v1.054 c0 0.321-0.197 0.566-0.525 0.644l0.788 1.615h-0.62L11.627 25.867z M12.201 24.275c0-0.144-0.107-0.251-0.257-0.251h-1.228v1.324 h1.228c0.15 0 0.257-0.107 0.257-0.249V24.275z" class="style3"/><path d="M13.596 23.499h2.833v0.525h-1.133v3.445h-0.567v-3.445h-1.132V23.499z" class="style3"/><path d="M20.07 27.47h-0.549L17.84 24.53v2.939h-0.549v-3.971h0.549l1.681 2.952v-2.952h0.549V27.47z" class="style3"/><path d="M21.263 23.499H23.6v0.525h-1.771v1.157h1.61v0.523h-1.61v1.241h1.777v0.523h-2.342V23.499z" class="style3"/><path d="M26.157 25.867h-0.913v1.603h-0.566v-3.971h1.961c0.37 0 0.7 0.3 0.7 0.658v1.054 c0 0.321-0.197 0.566-0.525 0.644l0.787 1.615h-0.62L26.157 25.867z M26.729 24.275c0-0.144-0.107-0.251-0.256-0.251h-1.229v1.324 h1.229c0.149 0 0.256-0.107 0.256-0.249V24.275z" class="style3"/><path d="M30.693 25.693h-1.615v1.776h-0.566v-3.971h0.566v1.67h1.615v-1.67h0.567v3.971h-0.567V25.693z" class="style3"/><path d="M35.368 27.47h-0.573l-0.322-0.94h-1.461l-0.31 0.94h-0.579l1.353-3.971h0.537L35.368 27.47z M33.186 26.016h1.121l-0.56-1.758L33.186 26.016z" class="style3"/><path d="M36.232 23.499h0.566v3.447h1.752v0.523h-2.319V23.499z" class="style3"/><path d="M39.505 23.499h0.566v3.447h1.753v0.523h-2.319V23.499z" class="style3"/><path d="M42.778 23.499h2.337v0.525h-1.771v1.157h1.609v0.523h-1.609v1.241h1.776v0.523h-2.343V23.499z" class="style3"/><path d="M48.973 27.47h-0.549l-1.68-2.939v2.939h-0.548v-3.971h0.548l1.68 2.952v-2.952h0.549V27.47z" class="style3"/></g><g><g><path d="M25.356 3.444c-0.091 0.001-2.253 0.024-3.249 0.187c-1.14 0.187-1.705 0.563-2.416 1.6 c-0.722 1.062-2.325 3.656-3.214 5.874l0.016-0.032c-0.03 0.061-0.704 1.5 0.3 3.391c0.417 0.8 1.9 3.5 3.3 5.4 l-0.026-0.036c0.037 0.1 0.9 1.4 3.3 1.466c0.911 0 1.7 0 2.4 0.042c-0.004 0 0.7 0 0.7 0 c0.565-0.003 1.171-0.017 1.856-0.042c2.385-0.089 3.271-1.41 3.308-1.466l-0.026 0.036c1.441-1.874 2.911-4.599 3.327-5.39 c0.982-1.865 0.309-3.33 0.28-3.391l0.013 0.032c-0.888-2.218-2.49-4.812-3.213-5.874c-0.712-1.045-1.276-1.421-2.417-1.608 c-0.996-0.163-3.157-0.186-3.249-0.187C26.333 3.4 25.4 3.4 25.4 3.444z" class="style4"/></g><path d="M26.333 4.008c0 0 2.2 0 3.2 0.18c0.966 0.2 1.4 0.4 2 1.4 c0.641 0.9 2.3 3.5 3.2 5.766c0 0 0.6 1.25-0.269 2.888c-0.862 1.638-2.144 3.836-3.275 5.3 c0 0-0.736 1.131-2.856 1.209c-0.607 0.023-1.218 0.039-1.834 0.043h-0.694c-0.795 0.006-1.583-0.013-2.363-0.043 c-2.12-0.078-2.855-1.209-2.855-1.209c-1.131-1.472-2.412-3.67-3.275-5.308c-0.861-1.638-0.268-2.888-0.268-2.888 c0.893-2.23 2.515-4.825 3.157-5.766c0.64-0.941 1.075-1.21 2.04-1.369c0.966-0.157 3.164-0.18 3.164-0.18H26.333z M25.992 17.1 c2.427 0 4.933-0.407 5.982-0.626c1.049-0.22 0.559-1.386 0.559-1.386c-2.064-5.847-4.943-9.063-5.618-9.868 C26.275 4.5 25.8 4.5 25.8 4.5l0 0c0 0-0.441-0.052-1.092 0.715c-0.675 0.804-3.554 4.021-5.619 9.9 c0 0-0.49 1.2 0.6 1.386c1.049 0.2 3.6 0.6 6 0.626H25.992z" class="style3"/><path d="M24.682 6.514c0.034-0.005 2.256-0.005 2.3 0c0.131 0 0.2 0.1 0.3 0.2 c0.025 0 0.6 0.7 1.4 1.968c0 0 0.2 0.4 0 0.72c0 0-0.11 0.219-0.454 0.219c-0.345 0-1.229 0-1.229 0 s-0.279 0.062-0.554-0.275l-0.294-0.362c0 0-0.377-0.514-0.845 0.038c-0.468 0.553-1.869 2.35-2.593 4.5 c0 0-0.193 0.5 0.2 0.588c0.376 0.1 2.7 0.6 5.7 0c0 0 0.356-0.091 0.233-0.479s-0.216-0.749-0.772-0.749 s-1.77 0-1.77 0s-0.461-0.008-0.461-0.431c0-0.422 0-1.112 0-1.112s-0.032-0.511 0.511-0.511c0.584 0 3.2 0 3.2 0 s0.367-0.057 0.6 0.501c0.346 0.7 0.7 1.4 1 2.26c0.036 0.1 0.1 0.3 0 0.5 c-0.024 0.046-1.001 1.742-1.001 1.742c-0.096 0.162-0.248 0.212-0.399 0.245c-1.613 0.209-2.829 0.32-4.051 0.323l-0.125 0 c-1.21-0.004-2.419-0.116-4.017-0.323c-0.152-0.033-0.304-0.083-0.4-0.245c0 0-0.977-1.696-1.001-1.742 c-0.113-0.241-0.006-0.441 0.03-0.532c1.825-4.397 3.937-6.87 3.982-6.911c0.093-0.086 0.21-0.146 0.341-0.166 c0.033-0.004 2.255-0.004 2.3 0" class="style5"/></g><g><path d="M10.122 29.177h1.552c0.356 0 0.6 0.2 0.6 0.606v2.389c0 0.366-0.244 0.605-0.6 0.605h-1.552 V29.177z M10.365 32.549h1.271c0.259 0 0.394-0.141 0.394-0.399v-2.345c0-0.259-0.135-0.4-0.394-0.4h-1.271V32.549z" class="style5"/><path d="M12.949 30.215h0.249l0.8 2.265l0.805-2.265h0.249l-1.286 3.59h-0.243l0.351-1.027L12.949 30.215z" class="style5"/><path d="M16.867 30.383c-0.178 0.085-0.334 0.167-0.492 0.258c-0.221 0.132-0.394 0.257-0.394 0.488v1.648 h-0.238v-2.562h0.238v0.426c0.194-0.15 0.529-0.339 0.865-0.48L16.867 30.383z" class="style5"/><path d="M17.97 31.49l1.275 1.287h-0.319l-1.227-1.256v1.256h-0.237v-3.601l0.237-0.044v2.32l1.195-1.238 h0.297L17.97 31.49z" class="style5"/><path d="M20.05 31.49v0.665c0 0.3 0.1 0.4 0.4 0.399h0.617c0.259 0 0.395-0.14 0.395-0.399v-0.151 l0.232 0.038v0.13c0 0.366-0.243 0.605-0.6 0.605h-0.675c-0.357 0-0.6-0.239-0.6-0.605V30.82c0-0.367 0.243-0.605 0.6-0.605h0.665 c0.357 0 0.6 0.2 0.6 0.605v0.67H20.05z M20.05 31.28h1.395v-0.455c0-0.259-0.135-0.399-0.394-0.399h-0.606 c-0.259 0-0.395 0.141-0.395 0.399V31.28z" class="style5"/><path d="M23.758 30.383c-0.179 0.085-0.335 0.167-0.493 0.258c-0.221 0.132-0.394 0.257-0.394 0.488v1.648 h-0.238v-2.562h0.238v0.426c0.194-0.15 0.53-0.339 0.865-0.48L23.758 30.383z" class="style5"/><path d="M26.855 32.674c-0.211 0.065-0.475 0.124-0.665 0.124c-0.356 0-0.6-0.238-0.6-0.604v-1.427 c0-0.369 0.244-0.607 0.6-0.607c0.19 0 0.5 0.1 0.7 0.125c0.152 0 0.3 0.1 0.4 0.173v-0.243h0.238v2.982 c0 0.369-0.243 0.607-0.6 0.607h-1.054v-0.218h1.022c0.259 0 0.395-0.139 0.395-0.399v-0.686 C27.12 32.6 27 32.6 26.9 32.674z M27.217 30.923c0-0.233-0.151-0.34-0.395-0.416c-0.206-0.064-0.465-0.124-0.6-0.124 c-0.26 0-0.395 0.14-0.395 0.4v1.394c0 0.3 0.1 0.4 0.4 0.399c0.134 0 0.394-0.058 0.6-0.123 c0.243-0.076 0.395-0.184 0.395-0.417V30.923z" class="style5"/><path d="M30.319 32.172c0 0.366-0.243 0.605-0.6 0.605H29c-0.356 0-0.6-0.239-0.6-0.605V30.82 c0-0.367 0.243-0.605 0.6-0.605h0.719c0.356 0 0.6 0.2 0.6 0.605V32.172z M29.687 30.438h-0.654 c-0.259 0-0.395 0.141-0.395 0.398v1.319c0 0.3 0.1 0.4 0.4 0.399h0.654c0.26 0 0.395-0.14 0.395-0.399v-1.319 C30.082 30.6 29.9 30.4 29.7 30.438z" class="style5"/><path d="M31.239 30.768c0-0.369 0.243-0.607 0.599-0.607c0.19 0 0.5 0.1 0.7 0.1 c0.151 0 0.3 0.1 0.4 0.173v-1.281l0.237-0.044v3.645h-0.237v-0.244c-0.097 0.076-0.211 0.131-0.363 0.2 c-0.21 0.066-0.475 0.126-0.665 0.126c-0.356 0-0.599-0.238-0.599-0.606V30.768z M32.866 30.923c0-0.233-0.152-0.34-0.395-0.416 c-0.205-0.064-0.465-0.124-0.6-0.124c-0.26 0-0.395 0.14-0.395 0.4v1.426c0 0.3 0.1 0.4 0.4 0.4 c0.135 0 0.395-0.061 0.6-0.124c0.243-0.077 0.395-0.185 0.395-0.417V30.923z" class="style5"/><path d="M33.779 30.215h0.438v-0.653l0.238-0.045v0.698h0.794l-0.039 0.211h-0.756v1.734 c0 0.3 0.1 0.4 0.4 0.399h0.341v0.218h-0.374c-0.357 0-0.6-0.239-0.6-0.605v-1.746h-0.438V30.215z" class="style5"/><path d="M37.243 29.177l0.238-0.044v3.645h-0.238V29.177z" class="style5"/><path d="M38.535 29.166h0.238v0.535h-0.238V29.166z M38.535 30.215h0.238v2.562h-0.238V30.215z" class="style5"/><path d="M39.475 30.215h0.249l0.8 2.281l0.8-2.281h0.249l-0.919 2.562h-0.259L39.475 30.215z" class="style5"/></g></g><g><g><path d="M64.312 3.691c-3.109 0.001-5.644 2.537-5.646 5.647v24.218h21.11 c3.111-0.003 5.646-2.536 5.647-5.646V3.691H64.312z" class="style4"/></g><g></g><path d="M64.312 5.502C62.2 5.5 60.5 7.2 60.5 9.34v12.381h19.521 c1.992-0.035 3.606-1.664 3.608-3.675V6.585c0-0.033 0.006-0.064 0.009-0.096V5.502H64.312z" class="style6"/><path d="M79.776 31.748c2.114-0.004 3.837-1.725 3.837-3.838v-4.422H71.251v8.26H79.776z" class="style7"/><g><g><path d="M65.356 15.876h0.669v3.398c0 0.48-0.339 0.696-0.726 0.696c-0.394 0-0.662-0.146-0.838-0.513 l-0.985-2.083c0 0 0 0.2 0 0.31v2.253H62.85v-4.062h0.627l1.661 3.441c0.07 0.2 0.2 0.1 0.219-0.012V15.876z" class="style4"/><path d="M69.851 16.841v2.099c0 0.598-0.354 0.998-1.037 0.998h-0.915c-0.655 0-1.027-0.38-1.027-0.998 v-2.099c0-0.597 0.401-0.965 1.027-0.965h0.915C69.454 15.9 69.9 16.2 69.9 16.841z M67.956 16.5 c-0.275 0-0.415 0.14-0.415 0.456v1.993c0 0.3 0.1 0.5 0.4 0.457h0.809c0.275 0 0.415-0.141 0.415-0.457v-1.993 c0-0.316-0.14-0.456-0.415-0.456H67.956z" class="style4"/><path d="M70.696 15.876h1.915c0.641 0 1 0.4 1 0.965v0.436c0 0.332-0.226 0.571-0.458 0.7 l-0.625 0.414l1.155 1.521h-0.768l-0.908-1.176l-0.676 0.443v0.732h-0.668V15.876z M72.688 17.6 c0.149-0.1 0.289-0.219 0.289-0.414v-0.297c0-0.316-0.14-0.456-0.416-0.456h-1.197v2.041L72.688 17.622z" class="style4"/><path d="M76.717 17.548h0.669v1.392c0 0.598-0.353 0.998-1.035 0.998h-0.915 c-0.656 0-1.029-0.38-1.029-0.998v-2.099c0-0.597 0.401-0.965 1.029-0.965h1.605v0.579h-1.55c-0.273 0-0.413 0.14-0.413 0.5 v1.993c0 0.3 0.1 0.5 0.4 0.457h0.81c0.274 0 0.416-0.141 0.416-0.457v-0.666l-0.979-0.004v-0.685H76.717z" class="style4"/></g></g><path d="M67.273 7.409v5.383c0 0.148-0.148 0.169-0.219 0.014L64.48 7.409h-1.635v7.169h1.514v-3.891 c0-0.025-0.001-0.054-0.003-0.083v-0.296l1.587 3.465c0.265 0.6 0.7 0.8 1.2 0.854v0.001 c0.019 0 0 0 0.1 0.003c0.038 0 0.1 0 0.1 0.003c0.004 0 0 0 0 0c0 0 0 0 0 0 c0.007 0 0 0 0 0.003c0.126 0 0.249-0.016 0.365-0.043c0.228-0.05 0.444-0.146 0.624-0.3 c0.28-0.24 0.454-0.616 0.451-1.075v-5.81H67.273z" class="style4"/><path d="M80.536 19.36h-1.262c-0.273 0-0.416-0.141-0.416-0.457v-0.657h1.677v-0.698h-1.677v-0.638 c0-0.316 0.142-0.456 0.416-0.456h1.262v-0.579h-1.318c-0.625 0-1.029 0.368-1.029 0.965v2.099c0 0.6 0.4 1 1 1 h1.318V19.36z" class="style4"/><polygon points="77.1,7.4 77.1,8.9 78.9,8.9 78.9,14.6 80.5,14.6 80.5,8.9 82.3,8.9 82.3,7.4" class="style4"/><path d="M71.562 7.438l1.416 2.666l1.541-2.666h1.841l-2.518 4.361v2.777h-1.613v-2.777L69.72 7.438H71.562z " class="style4"/><rect x="60.5" y="23.5" width="4.8" height="8.3" class="style7"/><rect x="67" y="23.5" width="2.4" height="8.3" class="style8"/></g></svg>