<?xml version="1.0" encoding="utf-8"?>
<!-- Generator: Adobe Illustrator 16.0.0, SVG Export Plug-In . SVG Version: 6.00 Build 0)  -->
<!DOCTYPE svg PUBLIC "-//W3C//DTD SVG 1.1//EN" "http://www.w3.org/Graphics/SVG/1.1/DTD/svg11.dtd">
<svg version="1.1" id="Layer_1" xmlns="http://www.w3.org/2000/svg" xmlns:xlink="http://www.w3.org/1999/xlink" x="0px" y="0px"
	 width="780.052px" height="274.844px" viewBox="0 0 780.052 274.844" enable-background="new 0 0 780.052 274.844"
	 xml:space="preserve">
<g>
	<g>
		<linearGradient id="SVGID_1_" gradientUnits="userSpaceOnUse" x1="390.6538" y1="76.9097" x2="390.6538" y2="275.9521">
			<stop  offset="0.0113" style="stop-color:#FFFF00"/>
			<stop  offset="0.0159" style="stop-color:#FEFE01"/>
			<stop  offset="0.1273" style="stop-color:#EDF10F"/>
			<stop  offset="0.2655" style="stop-color:#E2E719"/>
			<stop  offset="0.46" style="stop-color:#DBE21F"/>
			<stop  offset="1" style="stop-color:#D9E021"/>
		</linearGradient>
		<path fill="url(#SVGID_1_)" d="M0.335,183.696c0,0,79.336-35.363,85.008-37.534c30.393-11.63,132.595-49.248,204.707-57.442
			c85.571-9.724,256.517-18.151,310.074-5.187c53.558,12.966,179.948,53.502,179.948,53.502s2.042,136.994-0.021,138.412
			c-2.061,1.418-779.717-0.604-779.717-0.604V183.696z"/>
		<g>
			<path fill="#B4D81D" d="M127.923,131.308l13.856-4.834c0,0-17.12,15.404-26.521,33.879
				c-9.399,18.476-51.674,122.073-51.674,122.073l-22-2.249C41.585,280.176,113.36,142.454,127.923,131.308z"/>
			<path fill="#B4D81D" d="M158.493,120.862c0,0-31.564,42.009-38.372,60.81c-6.806,18.799-39.036,96.004-39.036,96.004h26.396
				c0,0,24.957-100.542,35.979-119.666c11.019-19.124,26.585-40.755,26.585-40.755L158.493,120.862z"/>
			<path fill="#B4D81D" d="M181.835,113.455l6.774-2.048c0,0-8.523,23.016-16.627,41.491
				c-8.103,18.476-31.073,107.173-31.721,123.055c-0.648,15.883-21.396,4.224-21.396,4.224S164.462,125.549,181.835,113.455z"/>
			<path fill="#B4D81D" d="M192.289,110.312l4.019-1.174c0,0-0.226,18.48-2.011,38.358c-1.784,19.878-9.231,132.68-9.231,132.68
				l-24.15-1.251L192.289,110.312z"/>
			<path fill="#B4D81D" d="M201.5,107.646l4.511-1.272c0,0,44.977,146.122,46.492,171.551c1.515,25.43-20.122-1.973-20.122-1.973
				S208.979,119.656,201.5,107.646z"/>
			<path fill="#B4D81D" d="M215.462,103.797l6.845-1.798c0,0,49.028,61.07,73.721,174.926c5.772,26.613-21.088,5.5-21.088,5.5
				S250.946,159.066,215.462,103.797z"/>
			<path fill="#B4D81D" d="M236.237,98.549l9.615-2.2c0,0,66.328,55.126,87.618,182.076c4.55,27.134-17.419,16.691-20.895,3
				l9.334-2.5C321.909,278.925,283.207,136.802,236.237,98.549z"/>
			<path fill="#B4D81D" d="M263.408,93.275l7.022-1.016c0,0,147.968,164.166,156.613,190.166l-35.208-4.75
				C392.896,282.625,315.293,148.397,263.408,93.275z"/>
			<path fill="#B4D81D" d="M283.207,89.563l6.759-0.843c0,0,74.504,59.865,93.999,81.776
				c20.778,23.354,112.986,114.335,112.986,114.335l-26.005-4.654c0,0-105.567-111.718-125.879-131.384
				C324.756,129.127,283.207,89.563,283.207,89.563z"/>
			<path fill="#B4D81D" d="M298.999,87.731l0.647-0.067c0,0,39.102,19.375,60.657,36.877s191.321,147.856,196.831,155.635
				s-32.574,3.457-32.574,3.457C401.712,171.051,401.797,170.966,366.729,140.588c-28.302-24.517-71.455-52.458-71.455-52.458
				L298.999,87.731z"/>
			<path fill="#B4D81D" d="M312.179,86.408l4.224-0.397c0,0,53.639,17.153,123.198,61.516
				c55.095,35.139,150.366,107.239,174.87,130.399l-30.99,5.75c0,0-185.127-153.123-210.896-167.222
				C346.817,102.353,312.179,86.408,312.179,86.408z"/>
			<path fill="#B4D81D" d="M326.238,85.124l3.126-0.271c0,0,55.411,10.835,87.985,24.449
				c32.575,13.613,230.806,166.042,237.82,171.874l-23.834,2.5c0,0-186.789-148.446-216.945-165.238
				C385.143,102.152,326.238,85.124,326.238,85.124z"/>
			<path fill="#B4D81D" d="M344.551,83.615l2.466-0.192c0,0,80.866,9.673,121.707,28.635s238.904,168.538,239.361,168.118
				c0.459-0.42-19,0.001-19,0.001s-185.16-136.492-218.928-156.708C437.109,103.685,383.741,91.15,344.551,83.615z"/>
			<path fill="#B4D81D" d="M364.81,82.133l1.818-0.125c0,0,72.276,3.146,112.631,16.921
				c40.353,13.775,313.427,153.009,314.076,153.496s4.25,36.5,4.25,36.5S514.102,115.785,477.476,104.927
				C440.849,94.068,374.503,83.164,364.81,82.133z"/>
			<path fill="#B4D81D" d="M396.928,80.675h2.594c0,0,56.722-2.947,113.121,10.991c56.399,13.938,279.278,117.574,288.191,122.759
				c8.914,5.187,4.5,15.75,4.5,15.75s-242.973-113.868-288.14-129.393C472.244,85.332,428.693,80.675,396.928,80.675z"/>
			<path fill="#B4D81D" d="M443.604,78.675h2.593c0,0,83.464-0.812,132.732,9.235c49.268,10.048,229.158,74.765,229.158,74.765
				s0.483,15.25-0.002,15.25c-0.486,0-219.594-86.389-248.119-89.467C531.444,85.379,451.894,75.675,443.604,78.675z"/>
		</g>
	</g>
	<g>
		
			<ellipse transform="matrix(0.8061 -0.5918 0.5918 0.8061 -38.5042 230.3685)" fill="#9B1515" cx="332.292" cy="173.942" rx="1.03" ry="1.412"/>
		
			<ellipse transform="matrix(0.8064 -0.5913 0.5913 0.8064 -38.4269 225.9142)" fill="#9B1515" cx="325.86" cy="171.652" rx="1.031" ry="1.413"/>
		
			<ellipse transform="matrix(0.8069 -0.5907 0.5907 0.8069 -34.161 224.362)" fill="#9B1515" cx="326.079" cy="164.43" rx="0.767" ry="1.05"/>
		<path fill="#9B1515" d="M318.861,159.642c0.364,0.493,0.364,1.104,0.005,1.369c-0.357,0.263-0.942,0.078-1.304-0.415
			c-0.362-0.492-0.361-1.104-0.004-1.368C317.918,158.964,318.502,159.151,318.861,159.642z"/>
		<path fill="#9B1515" d="M316.375,150.525c0.211,0.286,0.212,0.641,0.005,0.794c-0.209,0.152-0.547,0.045-0.758-0.241
			c-0.207-0.286-0.21-0.64-0.002-0.794C315.829,150.132,316.167,150.24,316.375,150.525z"/>
		
			<ellipse transform="matrix(0.8066 -0.5911 0.5911 0.8066 -27.191 212.9695)" fill="#9B1515" cx="311.847" cy="148.036" rx="0.468" ry="0.641"/>
		<path fill="#9B1515" d="M311.695,143.785c0.209,0.285,0.21,0.642,0.001,0.794c-0.208,0.152-0.544,0.046-0.755-0.24
			c-0.209-0.285-0.212-0.642-0.002-0.794C311.15,143.393,311.485,143.5,311.695,143.785z"/>
		
			<ellipse transform="matrix(0.8058 -0.5922 0.5922 0.8058 -23.5037 207.9694)" fill="#9B1515" cx="305.307" cy="139.817" rx="0.353" ry="0.484"/>
		<path fill="#9B1515" d="M304.625,134.308c0.158,0.216,0.16,0.484,0,0.599c-0.153,0.115-0.412,0.036-0.569-0.18
			c-0.157-0.215-0.158-0.484-0.001-0.598C304.212,134.013,304.469,134.094,304.625,134.308z"/>
		
			<ellipse transform="matrix(0.8056 -0.5924 0.5924 0.8056 -19.6743 203.3544)" fill="#9B1515" cx="300.048" cy="131.658" rx="0.353" ry="0.485"/>
		
			<ellipse transform="matrix(0.8055 -0.5926 0.5926 0.8055 -17.9839 201.7719)" fill="#9B1515" cx="298.375" cy="128.281" rx="0.212" ry="0.29"/>
		
			<ellipse transform="matrix(0.8059 -0.592 0.592 0.8059 -16.5809 198.8687)" fill="#9B1515" cx="295.031" cy="124.724" rx="0.211" ry="0.292"/>
		
			<ellipse transform="matrix(0.8066 -0.5911 0.5911 0.8066 -14.7575 196.4887)" opacity="0.5" fill="#9B1515" cx="292.88" cy="120.796" rx="0.212" ry="0.291"/>
		
			<ellipse transform="matrix(0.8104 -0.5858 0.5858 0.8104 -14.7341 191.8496)" opacity="0.5" fill="#9B1515" cx="289.066" cy="118.691" rx="0.15" ry="0.208"/>
		
			<ellipse transform="matrix(0.8039 -0.5948 0.5948 0.8039 -12.1255 194.3101)" opacity="0.5" fill="#9B1515" cx="288.583" cy="115.542" rx="0.151" ry="0.207"/>
		
			<ellipse transform="matrix(0.8075 -0.5899 0.5899 0.8075 -12.7404 193.3005)" opacity="0.5" fill="#9B1515" cx="289.773" cy="116.169" rx="0.151" ry="0.207"/>
		
			<ellipse transform="matrix(0.8019 -0.5974 0.5974 0.8019 -11.3034 192.5745)" opacity="0.25" fill="#9B1515" cx="284.768" cy="113.334" rx="0.152" ry="0.207"/>
		
			<ellipse transform="matrix(0.8046 -0.5938 0.5938 0.8046 -10.0367 190.2113)" opacity="0.25" fill="#9B1515" cx="284.045" cy="110.358" rx="0.15" ry="0.206"/>
		
			<ellipse transform="matrix(0.8071 -0.5904 0.5904 0.8071 -10.0896 187.0212)" opacity="0.1" fill="#9B1515" cx="281.186" cy="108.952" rx="0.151" ry="0.208"/>
	</g>
	<g>
		
			<ellipse transform="matrix(0.806 -0.5919 0.5919 0.806 -41.9582 207.0308)" fill="#9B1515" cx="294.849" cy="167.523" rx="1.03" ry="1.412"/>
		
			<ellipse transform="matrix(0.8063 -0.5915 0.5915 0.8063 -41.8717 202.5946)" fill="#9B1515" cx="288.418" cy="165.234" rx="1.031" ry="1.412"/>
		
			<ellipse transform="matrix(0.8071 -0.5905 0.5905 0.8071 -37.6107 200.922)" fill="#9B1515" cx="288.637" cy="158.011" rx="0.767" ry="1.049"/>
		<path fill="#9B1515" d="M281.419,153.223c0.365,0.493,0.365,1.104,0.005,1.37c-0.357,0.263-0.942,0.078-1.303-0.416
			c-0.363-0.492-0.362-1.104-0.004-1.367C280.477,152.546,281.061,152.732,281.419,153.223z"/>
		<path fill="#9B1515" d="M278.934,144.106c0.211,0.286,0.212,0.642,0.004,0.794c-0.209,0.153-0.546,0.045-0.757-0.241
			c-0.207-0.286-0.21-0.64-0.002-0.794C278.386,143.713,278.725,143.821,278.934,144.106z"/>
		
			<ellipse transform="matrix(0.8064 -0.5914 0.5914 0.8064 -30.6237 189.6895)" fill="#9B1515" cx="274.405" cy="141.617" rx="0.468" ry="0.641"/>
		
			<ellipse transform="matrix(0.8057 -0.5923 0.5923 0.8057 -28.3176 188.9554)" fill="#9B1515" cx="273.876" cy="137.644" rx="0.468" ry="0.64"/>
		
			<ellipse transform="matrix(0.8054 -0.5927 0.5927 0.8054 -26.9463 184.7125)" fill="#9B1515" cx="267.865" cy="133.398" rx="0.353" ry="0.484"/>
		<path fill="#9B1515" d="M267.183,127.889c0.158,0.217,0.16,0.484,0,0.599c-0.154,0.115-0.412,0.036-0.569-0.181
			c-0.157-0.215-0.158-0.484-0.001-0.598C266.771,127.594,267.026,127.675,267.183,127.889z"/>
		
			<ellipse transform="matrix(0.8059 -0.592 0.592 0.8059 -23.1804 179.7648)" fill="#9B1515" cx="262.606" cy="125.24" rx="0.353" ry="0.485"/>
		
			<ellipse transform="matrix(0.8063 -0.5915 0.5915 0.8063 -21.5394 177.9504)" fill="#9B1515" cx="260.933" cy="121.863" rx="0.213" ry="0.291"/>
		
			<ellipse transform="matrix(0.8059 -0.592 0.592 0.8059 -20.0472 175.4568)" fill="#9B1515" cx="257.59" cy="118.305" rx="0.211" ry="0.293"/>
		
			<ellipse transform="matrix(0.8062 -0.5917 0.5917 0.8062 -18.1652 173.3012)" opacity="0.5" fill="#9B1515" cx="255.438" cy="114.377" rx="0.212" ry="0.291"/>
		
			<ellipse transform="matrix(0.8112 -0.5848 0.5848 0.8112 -18.1462 168.3412)" opacity="0.5" fill="#9B1515" cx="251.624" cy="112.272" rx="0.15" ry="0.208"/>
		
			<ellipse transform="matrix(0.8044 -0.594 0.594 0.8044 -15.7101 170.5236)" opacity="0.5" fill="#9B1515" cx="251.14" cy="109.123" rx="0.151" ry="0.207"/>
		
			<ellipse transform="matrix(0.8061 -0.5917 0.5917 0.8061 -16.026 170.5826)" opacity="0.5" fill="#9B1515" cx="252.331" cy="109.75" rx="0.151" ry="0.206"/>
		
			<ellipse transform="matrix(0.8033 -0.5956 0.5956 0.8033 -15.024 168.3436)" opacity="0.25" fill="#9B1515" cx="247.326" cy="106.915" rx="0.152" ry="0.206"/>
		
			<ellipse transform="matrix(0.8052 -0.593 0.593 0.8052 -13.6004 166.4759)" opacity="0.25" fill="#9B1515" cx="246.603" cy="103.94" rx="0.151" ry="0.206"/>
		
			<ellipse transform="matrix(0.8058 -0.5922 0.5922 0.8058 -13.3828 164.2596)" opacity="0.1" fill="#9B1515" cx="243.744" cy="102.534" rx="0.151" ry="0.208"/>
	</g>
	<g>
		
			<ellipse transform="matrix(0.8877 -0.4604 0.4604 0.8877 -52.8179 140.6042)" fill="#9B1515" cx="261.811" cy="178.572" rx="1.03" ry="1.412"/>
		
			<ellipse transform="matrix(0.888 -0.4598 0.4598 0.888 -51.9636 137.2433)" fill="#9B1515" cx="255.811" cy="175.315" rx="1.031" ry="1.412"/>
		
			<ellipse transform="matrix(0.8884 -0.459 0.459 0.8884 -48.5229 136.8041)" fill="#9B1515" cx="257.144" cy="168.214" rx="0.766" ry="1.049"/>
		<path fill="#9B1515" d="M250.754,162.366c0.284,0.543,0.19,1.147-0.207,1.354c-0.393,0.205-0.942-0.069-1.224-0.612
			c-0.282-0.542-0.187-1.146,0.208-1.352C249.928,161.552,250.476,161.826,250.754,162.366z"/>
		<path fill="#9B1515" d="M249.709,152.974c0.164,0.315,0.109,0.667-0.119,0.786c-0.23,0.118-0.546-0.04-0.711-0.355
			c-0.16-0.314-0.108-0.665,0.121-0.785C249.229,152.501,249.546,152.661,249.709,152.974z"/>
		
			<ellipse transform="matrix(0.888 -0.4599 0.4599 0.888 -41.3835 129.7461)" fill="#9B1515" cx="245.62" cy="149.815" rx="0.468" ry="0.641"/>
		
			<ellipse transform="matrix(0.8878 -0.4603 0.4603 0.8878 -39.5379 129.4718)" fill="#9B1515" cx="245.712" cy="145.808" rx="0.468" ry="0.64"/>
		
			<ellipse transform="matrix(0.8877 -0.4604 0.4604 0.8877 -37.7741 126.5028)" fill="#9B1515" cx="240.429" cy="140.684" rx="0.353" ry="0.483"/>
		<path fill="#9B1515" d="M240.608,135.136c0.122,0.237,0.083,0.503-0.093,0.591c-0.169,0.09-0.412-0.029-0.534-0.266
			c-0.123-0.237-0.082-0.502,0.09-0.591C240.246,134.78,240.487,134.899,240.608,135.136z"/>
		
			<ellipse transform="matrix(0.8877 -0.4604 0.4604 0.8877 -34.1297 123.6952)" fill="#9B1515" cx="236.496" cy="131.81" rx="0.353" ry="0.485"/>
		
			<ellipse transform="matrix(0.8877 -0.4605 0.4605 0.8877 -32.6017 122.7742)" fill="#9B1515" cx="235.365" cy="128.215" rx="0.213" ry="0.291"/>
		
			<ellipse transform="matrix(0.8883 -0.4592 0.4592 0.8883 -31.0499 120.6835)" fill="#9B1515" cx="232.612" cy="124.183" rx="0.211" ry="0.293"/>
		
			<ellipse transform="matrix(0.8883 -0.4592 0.4592 0.8883 -29.2843 119.5066)" opacity="0.5" fill="#9B1515" cx="231.094" cy="119.969" rx="0.212" ry="0.292"/>
		
			<ellipse transform="matrix(0.8915 -0.4531 0.4531 0.8915 -28.4391 115.8724)" opacity="0.5" fill="#9B1515" cx="227.652" cy="117.3" rx="0.15" ry="0.208"/>
		
			<ellipse transform="matrix(0.8862 -0.4633 0.4633 0.8862 -26.9616 118.4564)" opacity="0.5" fill="#9B1515" cx="227.661" cy="114.114" rx="0.151" ry="0.207"/>
		
			<ellipse transform="matrix(0.8892 -0.4575 0.4575 0.8892 -27.2326 117.389)" opacity="0.5" fill="#9B1515" cx="228.74" cy="114.918" rx="0.151" ry="0.206"/>
		
			<ellipse transform="matrix(0.8852 -0.4651 0.4651 0.8852 -26.0561 117.0808)" opacity="0.25" fill="#9B1515" cx="224.234" cy="111.343" rx="0.152" ry="0.206"/>
		
			<ellipse transform="matrix(0.8865 -0.4627 0.4627 0.8865 -24.688 115.9186)" opacity="0.25" fill="#9B1515" cx="223.98" cy="108.291" rx="0.151" ry="0.207"/>
		
			<ellipse transform="matrix(0.8892 -0.4575 0.4575 0.8892 -24.1791 113.0811)" opacity="0.1" fill="#9B1515" cx="221.373" cy="106.46" rx="0.151" ry="0.208"/>
	</g>
	<g>
		
			<ellipse transform="matrix(0.966 -0.2585 0.2585 0.966 -41.2906 65.1063)" fill="#9B1515" cx="226.977" cy="189.596" rx="1.03" ry="1.412"/>
		
			<ellipse transform="matrix(0.9663 -0.2573 0.2573 0.9663 -40.1687 63.3171)" fill="#9B1515" cx="221.819" cy="185.123" rx="1.03" ry="1.412"/>
		
			<ellipse transform="matrix(0.9666 -0.2562 0.2562 0.9666 -38.2293 63.5167)" fill="#9B1515" cx="224.651" cy="178.475" rx="0.767" ry="1.049"/>
		<path fill="#9B1515" d="M219.67,171.389c0.16,0.592-0.062,1.162-0.495,1.278c-0.427,0.115-0.905-0.27-1.062-0.861
			c-0.159-0.59,0.063-1.16,0.494-1.275C219.038,170.416,219.515,170.802,219.67,171.389z"/>
		<path fill="#9B1515" d="M220.672,161.993c0.093,0.343-0.037,0.674-0.285,0.741c-0.25,0.066-0.524-0.156-0.619-0.5
			c-0.087-0.342,0.039-0.673,0.288-0.741C220.305,161.427,220.581,161.651,220.672,161.993z"/>
		
			<ellipse transform="matrix(0.9662 -0.2576 0.2576 0.9662 -33.3752 61.3327)" fill="#9B1515" cx="217.359" cy="158.027" rx="0.467" ry="0.641"/>
		
			<ellipse transform="matrix(0.966 -0.2585 0.2585 0.966 -32.4209 61.6661)" fill="#9B1515" cx="218.312" cy="154.133" rx="0.468" ry="0.641"/>
		
			<ellipse transform="matrix(0.9662 -0.258 0.258 0.9662 -30.925 60.2794)" fill="#9B1515" cx="214.257" cy="147.992" rx="0.353" ry="0.483"/>
		<path fill="#9B1515" d="M215.627,142.613c0.068,0.258-0.027,0.509-0.218,0.557c-0.185,0.052-0.396-0.116-0.463-0.375
			c-0.069-0.257,0.028-0.507,0.215-0.557C215.349,142.187,215.559,142.355,215.627,142.613z"/>
		<path fill="#9B1515" d="M212.668,138.388c0.069,0.258-0.027,0.51-0.215,0.56c-0.188,0.049-0.398-0.118-0.467-0.377
			c-0.067-0.257,0.029-0.507,0.217-0.557C212.393,137.962,212.6,138.131,212.668,138.388z"/>
		
			<ellipse transform="matrix(0.9663 -0.2576 0.2576 0.9663 -27.5498 59.1549)" fill="#9B1515" cx="211.997" cy="134.724" rx="0.213" ry="0.291"/>
		<path fill="#9B1515" d="M210.382,130.14c0.043,0.153-0.016,0.305-0.127,0.338c-0.114,0.028-0.239-0.074-0.28-0.229
			c-0.043-0.153,0.017-0.305,0.13-0.333C210.215,129.885,210.341,129.985,210.382,130.14z"/>
		
			<ellipse transform="matrix(0.9662 -0.2579 0.2579 0.9662 -25.3446 58.3224)" opacity="0.5" fill="#9B1515" cx="209.602" cy="125.753" rx="0.212" ry="0.291"/>
		
			<ellipse transform="matrix(0.968 -0.251 0.251 0.968 -24.1001 55.8203)" opacity="0.5" fill="#9B1515" cx="206.816" cy="122.404" rx="0.15" ry="0.208"/>
		
			<ellipse transform="matrix(0.9655 -0.2604 0.2604 0.9655 -23.9043 58.1467)" opacity="0.5" fill="#9B1515" cx="207.511" cy="119.296" rx="0.151" ry="0.206"/>
		
			<ellipse transform="matrix(0.9664 -0.257 0.257 0.9664 -23.918 57.5878)" opacity="0.5" fill="#9B1515" cx="208.392" cy="120.312" rx="0.151" ry="0.207"/>
		
			<ellipse transform="matrix(0.9646 -0.2637 0.2637 0.9646 -23.2999 58.0873)" opacity="0.25" fill="#9B1515" cx="204.762" cy="115.851" rx="0.152" ry="0.206"/>
		
			<ellipse transform="matrix(0.9654 -0.2608 0.2608 0.9654 -22.3214 57.4098)" opacity="0.25" fill="#9B1515" cx="205.171" cy="112.817" rx="0.151" ry="0.206"/>
		
			<ellipse transform="matrix(0.9667 -0.2558 0.2558 0.9667 -21.5056 55.6186)" opacity="0.1" fill="#9B1515" cx="203.019" cy="110.467" rx="0.151" ry="0.208"/>
	</g>
	<g>
		
			<ellipse transform="matrix(0.9933 0.1152 -0.1152 0.9933 24.3945 -19.9887)" fill="#9B1515" cx="185.065" cy="200.976" rx="1.03" ry="1.412"/>
		
			<ellipse transform="matrix(0.9932 0.1166 -0.1166 0.9932 23.967 -19.8808)" fill="#9B1515" cx="181.915" cy="194.918" rx="1.03" ry="1.412"/>
		
			<ellipse transform="matrix(0.9932 0.1165 -0.1165 0.9932 23.3767 -20.488)" fill="#9B1515" cx="186.994" cy="189.779" rx="0.767" ry="1.05"/>
		<path fill="#9B1515" d="M184.971,181.357c-0.068,0.609-0.485,1.059-0.928,1.006c-0.44-0.049-0.744-0.584-0.671-1.19
			c0.069-0.607,0.485-1.056,0.927-1.004S185.042,180.754,184.971,181.357z"/>
		<path fill="#9B1515" d="M189.361,172.989c-0.04,0.354-0.281,0.614-0.538,0.584c-0.256-0.03-0.429-0.338-0.391-0.692
			c0.044-0.35,0.283-0.611,0.54-0.583C189.229,172.33,189.403,172.639,189.361,172.989z"/>
		
			<ellipse transform="matrix(0.9932 0.1161 -0.1161 0.9932 20.775 -20.6521)" fill="#9B1515" cx="187.741" cy="168.083" rx="0.467" ry="0.641"/>
		<path fill="#9B1515" d="M190.525,164.867c-0.041,0.35-0.282,0.612-0.539,0.583c-0.255-0.03-0.43-0.338-0.39-0.69
			c0.041-0.351,0.281-0.614,0.54-0.583C190.393,164.209,190.564,164.516,190.525,164.867z"/>
		
			<ellipse transform="matrix(0.9935 0.1142 -0.1142 0.9935 19.238 -20.5064)" fill="#9B1515" cx="188.55" cy="157.611" rx="0.353" ry="0.483"/>
		<path fill="#9B1515" d="M191.804,153.113c-0.031,0.266-0.212,0.463-0.408,0.438c-0.191-0.02-0.325-0.253-0.293-0.52
			c0.03-0.264,0.213-0.46,0.406-0.438C191.702,152.615,191.835,152.85,191.804,153.113z"/>
		<path fill="#9B1515" d="M190.609,148.096c-0.032,0.266-0.213,0.465-0.407,0.441c-0.192-0.023-0.327-0.257-0.296-0.523
			c0.034-0.264,0.215-0.461,0.408-0.438C190.509,147.599,190.639,147.832,190.609,148.096z"/>
		<path fill="#9B1515" d="M191.545,144.467c-0.021,0.158-0.128,0.276-0.247,0.264c-0.116-0.015-0.193-0.156-0.178-0.314
			c0.021-0.158,0.13-0.278,0.246-0.265C191.482,144.169,191.562,144.308,191.545,144.467z"/>
		<path fill="#9B1515" d="M191.517,139.585c-0.017,0.158-0.126,0.278-0.242,0.267c-0.116-0.016-0.195-0.156-0.176-0.316
			c0.017-0.158,0.127-0.277,0.243-0.261C191.457,139.288,191.536,139.427,191.517,139.585z"/>
		
			<ellipse transform="matrix(0.9932 0.1164 -0.1164 0.9932 17.0432 -21.4724)" opacity="0.5" fill="#9B1515" cx="192.408" cy="135.219" rx="0.212" ry="0.291"/>
		<path opacity="0.5" fill="#9B1515" d="M191.199,131.1c-0.013,0.112-0.091,0.197-0.172,0.188c-0.083-0.009-0.141-0.11-0.125-0.225
			c0.013-0.113,0.09-0.196,0.17-0.188C191.157,130.886,191.211,130.985,191.199,131.1z"/>
		
			<ellipse transform="matrix(0.9935 0.1136 -0.1136 0.9935 15.8455 -21.0819)" opacity="0.5" fill="#9B1515" cx="192.84" cy="128.446" rx="0.15" ry="0.206"/>
		
			<ellipse transform="matrix(0.9932 0.1165 -0.1165 0.9932 16.4228 -21.6283)" opacity="0.5" fill="#9B1515" cx="193.285" cy="129.715" rx="0.151" ry="0.206"/>
		
			<ellipse transform="matrix(0.994 0.1094 -0.1094 0.994 14.7366 -20.2053)" opacity="0.25" fill="#9B1515" cx="191.553" cy="124.231" rx="0.152" ry="0.207"/>
		
			<ellipse transform="matrix(0.9934 0.1147 -0.1147 0.9934 15.215 -21.3379)" opacity="0.25" fill="#9B1515" cx="193.05" cy="121.561" rx="0.151" ry="0.205"/>
		
			<ellipse transform="matrix(0.9932 0.1165 -0.1165 0.9932 15.117 -21.5443)" opacity="0.1" fill="#9B1515" cx="191.913" cy="118.583" rx="0.151" ry="0.208"/>
	</g>
	<g>
		
			<ellipse transform="matrix(0.9421 0.3354 -0.3354 0.9421 76.3338 -39.1198)" fill="#9B1515" cx="151.407" cy="201.404" rx="1.029" ry="1.413"/>
		
			<ellipse transform="matrix(0.9417 0.3366 -0.3366 0.9417 74.2939 -39.0188)" fill="#9B1515" cx="149.699" cy="194.795" rx="1.03" ry="1.412"/>
		
			<ellipse transform="matrix(0.9414 0.3372 -0.3372 0.9414 73.5166 -41.3585)" fill="#9B1515" cx="155.803" cy="190.928" rx="0.767" ry="1.049"/>
		<path fill="#9B1515" d="M155.723,182.267c-0.203,0.578-0.709,0.922-1.13,0.771c-0.418-0.147-0.594-0.736-0.387-1.312
			c0.204-0.576,0.709-0.919,1.129-0.77S155.928,181.695,155.723,182.267z"/>
		<path fill="#9B1515" d="M161.881,175.098c-0.118,0.336-0.412,0.535-0.655,0.449c-0.242-0.087-0.343-0.426-0.226-0.762
			c0.121-0.331,0.414-0.533,0.657-0.447C161.9,174.426,162,174.767,161.881,175.098z"/>
		
			<ellipse transform="matrix(0.9421 0.3353 -0.3353 0.9421 66.331 -44.2813)" fill="#9B1515" cx="161.404" cy="169.954" rx="0.467" ry="0.641"/>
		<path fill="#9B1515" d="M164.839,167.445c-0.118,0.333-0.412,0.534-0.656,0.447c-0.241-0.086-0.344-0.426-0.225-0.76
			c0.118-0.333,0.411-0.535,0.656-0.447C164.859,166.774,164.957,167.112,164.839,167.445z"/>
		
			<ellipse transform="matrix(0.9422 0.335 -0.335 0.9422 63.0897 -45.8839)" fill="#9B1515" cx="164.545" cy="159.931" rx="0.353" ry="0.483"/>
		<path fill="#9B1515" d="M168.726,156.279c-0.09,0.252-0.311,0.403-0.496,0.334c-0.182-0.062-0.26-0.32-0.169-0.572
			c0.089-0.25,0.312-0.402,0.493-0.337C168.739,155.771,168.815,156.029,168.726,156.279z"/>
		<path fill="#9B1515" d="M168.688,151.122c-0.09,0.251-0.312,0.404-0.496,0.338c-0.182-0.065-0.261-0.323-0.17-0.576
			c0.092-0.249,0.312-0.402,0.496-0.335C168.704,150.614,168.776,150.871,168.688,151.122z"/>
		
			<ellipse transform="matrix(0.9416 0.3368 -0.3368 0.9416 59.6923 -48.6941)" fill="#9B1515" cx="170.214" cy="147.725" rx="0.213" ry="0.291"/>
		<path fill="#9B1515" d="M171.485,143.033c-0.052,0.151-0.186,0.243-0.297,0.206c-0.108-0.042-0.154-0.197-0.101-0.347
			c0.052-0.151,0.187-0.242,0.296-0.2C171.493,142.729,171.539,142.882,171.485,143.033z"/>
		
			<ellipse transform="matrix(0.9417 0.3366 -0.3366 0.9417 56.8858 -50.2289)" opacity="0.5" fill="#9B1515" cx="173.334" cy="138.979" rx="0.212" ry="0.292"/>
		
			<ellipse transform="matrix(0.9394 0.3429 -0.3429 0.9394 56.6566 -51.1401)" opacity="0.5" fill="#9B1515" cx="172.939" cy="134.64" rx="0.15" ry="0.208"/>
		<path opacity="0.5" fill="#9B1515" d="M175.417,132.525c-0.037,0.108-0.13,0.173-0.21,0.145c-0.079-0.028-0.113-0.141-0.073-0.245
			c0.038-0.11,0.135-0.173,0.213-0.146C175.425,132.306,175.458,132.418,175.417,132.525z"/>
		<path opacity="0.5" fill="#9B1515" d="M175.566,133.862c-0.038,0.107-0.132,0.174-0.21,0.145c-0.08-0.027-0.109-0.136-0.074-0.246
			c0.039-0.106,0.134-0.171,0.214-0.144C175.571,133.645,175.604,133.753,175.566,133.862z"/>
		
			<ellipse transform="matrix(0.9436 0.3311 -0.3311 0.9436 52.283 -50.7128)" opacity="0.25" fill="#9B1515" cx="174.969" cy="128.079" rx="0.152" ry="0.207"/>
		
			<ellipse transform="matrix(0.9427 0.3336 -0.3336 0.9427 52.1082 -51.8462)" opacity="0.25" fill="#9B1515" cx="177.027" cy="125.813" rx="0.151" ry="0.205"/>
		
			<ellipse transform="matrix(0.941 0.3385 -0.3385 0.941 51.942 -52.5327)" opacity="0.1" fill="#9B1515" cx="176.588" cy="122.656" rx="0.151" ry="0.208"/>
	</g>
	<g>
		<path fill="#9B1515" d="M118.664,207.542c-0.35,0.697-1.046,1.055-1.557,0.797c-0.505-0.256-0.633-1.029-0.28-1.725
			c0.353-0.695,1.049-1.051,1.554-0.796C118.89,206.077,119.018,206.849,118.664,207.542z"/>
		
			<ellipse transform="matrix(0.8919 0.4521 -0.4521 0.8919 103.1953 -31.2014)" fill="#9B1515" cx="116.878" cy="200.308" rx="1.03" ry="1.412"/>
		
			<ellipse transform="matrix(0.8919 0.4522 -0.4522 0.8919 102.5208 -34.4911)" fill="#9B1515" cx="123.418" cy="197.235" rx="0.768" ry="1.051"/>
		<path fill="#9B1515" d="M124.423,188.632c-0.274,0.548-0.819,0.826-1.218,0.625c-0.396-0.199-0.497-0.807-0.22-1.351
			c0.275-0.546,0.819-0.823,1.217-0.622S124.698,188.09,124.423,188.632z"/>
		
			<ellipse transform="matrix(0.8934 0.4493 -0.4493 0.8934 95.7777 -39.4506)" fill="#9B1515" cx="131.012" cy="182.081" rx="0.467" ry="0.642"/>
		<path fill="#9B1515" d="M132.018,177.337c-0.159,0.315-0.475,0.479-0.707,0.362c-0.229-0.115-0.288-0.469-0.128-0.783
			c0.161-0.317,0.477-0.478,0.707-0.362C132.123,176.674,132.18,177.021,132.018,177.337z"/>
		<path fill="#9B1515" d="M135.322,175.068c-0.159,0.315-0.477,0.478-0.707,0.362c-0.228-0.117-0.288-0.466-0.128-0.783
			c0.159-0.315,0.476-0.479,0.707-0.361C135.425,174.405,135.481,174.752,135.322,175.068z"/>
		
			<ellipse transform="matrix(0.8928 0.4505 -0.4505 0.8928 90.0786 -43.2881)" fill="#9B1515" cx="135.971" cy="167.576" rx="0.353" ry="0.484"/>
		<path fill="#9B1515" d="M140.576,164.476c-0.121,0.238-0.358,0.362-0.534,0.271c-0.172-0.084-0.218-0.35-0.096-0.589
			c0.12-0.238,0.359-0.359,0.531-0.273C140.652,163.974,140.696,164.239,140.576,164.476z"/>
		<path fill="#9B1515" d="M141.184,159.355c-0.122,0.237-0.361,0.361-0.534,0.273c-0.172-0.088-0.218-0.354-0.097-0.593
			c0.123-0.236,0.36-0.36,0.533-0.271C141.264,158.854,141.303,159.117,141.184,159.355z"/>
		
			<ellipse transform="matrix(0.8919 0.4522 -0.4522 0.8919 86.1017 -47.843)" fill="#9B1515" cx="143.123" cy="156.175" rx="0.213" ry="0.291"/>
		<path fill="#9B1515" d="M144.972,151.68c-0.071,0.143-0.216,0.217-0.321,0.167c-0.102-0.055-0.128-0.214-0.056-0.357
			c0.07-0.143,0.215-0.216,0.319-0.162C145.017,151.379,145.043,151.537,144.972,151.68z"/>
		<path opacity="0.5" fill="#9B1515" d="M147.502,147.984c-0.073,0.144-0.215,0.216-0.322,0.164
			c-0.102-0.052-0.128-0.214-0.056-0.355c0.072-0.143,0.215-0.218,0.319-0.165C147.548,147.684,147.574,147.842,147.502,147.984z"/>
		
			<ellipse transform="matrix(0.8892 0.4576 -0.4576 0.8892 82.0199 -51.5679)" opacity="0.5" fill="#9B1515" cx="147.465" cy="143.535" rx="0.15" ry="0.208"/>
		<path opacity="0.5" fill="#9B1515" d="M150.188,141.747c-0.05,0.104-0.151,0.155-0.227,0.117
			c-0.075-0.038-0.094-0.153-0.042-0.251c0.051-0.105,0.156-0.155,0.229-0.119C150.223,141.531,150.241,141.646,150.188,141.747z"/>
		<path opacity="0.5" fill="#9B1515" d="M150.168,143.092c-0.051,0.103-0.153,0.157-0.227,0.117
			c-0.075-0.037-0.091-0.148-0.043-0.253c0.051-0.1,0.155-0.152,0.23-0.116C150.201,142.876,150.221,142.988,150.168,143.092z"/>
		
			<ellipse transform="matrix(0.8957 0.4446 -0.4446 0.8957 76.7132 -52.5115)" opacity="0.25" fill="#9B1515" cx="150.299" cy="137.279" rx="0.152" ry="0.206"/>
		
			<ellipse transform="matrix(0.8944 0.4472 -0.4472 0.8944 76.6158 -53.9732)" opacity="0.25" fill="#9B1515" cx="152.625" cy="135.288" rx="0.151" ry="0.205"/>
		
			<ellipse transform="matrix(0.8915 0.453 -0.453 0.8915 76.4064 -54.7933)" opacity="0.1" fill="#9B1515" cx="152.584" cy="132.102" rx="0.15" ry="0.208"/>
	</g>
	<g>
		<path fill="#9B1515" d="M85.501,217.171c-0.35,0.697-1.047,1.054-1.557,0.796c-0.505-0.255-0.633-1.029-0.28-1.724
			c0.352-0.696,1.048-1.052,1.553-0.797C85.727,215.705,85.854,216.477,85.501,217.171z"/>
		<path fill="#9B1515" d="M84.634,210.402c-0.352,0.695-1.047,1.052-1.556,0.795c-0.509-0.258-0.634-1.031-0.282-1.727
			c0.351-0.693,1.048-1.05,1.555-0.793C84.86,208.933,84.985,209.705,84.634,210.402z"/>
		
			<ellipse transform="matrix(0.8921 0.4518 -0.4518 0.8921 103.1952 -18.4609)" fill="#9B1515" cx="90.255" cy="206.864" rx="0.767" ry="1.049"/>
		<path fill="#9B1515" d="M91.26,198.259c-0.273,0.549-0.819,0.827-1.218,0.625c-0.396-0.198-0.496-0.805-0.219-1.35
			c0.275-0.546,0.819-0.823,1.217-0.622S91.535,197.718,91.26,198.259z"/>
		<path fill="#9B1515" d="M98.267,191.919c-0.16,0.318-0.475,0.479-0.707,0.363c-0.229-0.117-0.287-0.466-0.128-0.785
			c0.162-0.312,0.476-0.476,0.707-0.361C98.37,191.253,98.426,191.605,98.267,191.919z"/>
		
			<ellipse transform="matrix(0.8922 0.4516 -0.4516 0.8922 94.948 -24.3261)" fill="#9B1515" cx="98.438" cy="186.755" rx="0.467" ry="0.64"/>
		<path fill="#9B1515" d="M102.159,184.697c-0.159,0.314-0.477,0.478-0.708,0.361c-0.228-0.116-0.287-0.466-0.127-0.783
			c0.159-0.314,0.475-0.479,0.707-0.361C102.263,184.033,102.318,184.38,102.159,184.697z"/>
		
			<ellipse transform="matrix(0.8929 0.4502 -0.4502 0.8929 90.7963 -27.3112)" fill="#9B1515" cx="102.808" cy="177.204" rx="0.354" ry="0.484"/>
		<path fill="#9B1515" d="M107.413,174.104c-0.121,0.238-0.358,0.362-0.533,0.27c-0.172-0.084-0.219-0.35-0.096-0.589
			c0.12-0.237,0.359-0.359,0.532-0.273C107.489,173.602,107.533,173.867,107.413,174.104z"/>
		<path fill="#9B1515" d="M108.021,168.983c-0.121,0.238-0.36,0.361-0.534,0.273c-0.172-0.088-0.219-0.354-0.097-0.593
			c0.123-0.236,0.36-0.36,0.534-0.271C108.1,168.481,108.14,168.745,108.021,168.983z"/>
		
			<ellipse transform="matrix(0.8919 0.4522 -0.4522 0.8919 86.8708 -31.8046)" fill="#9B1515" cx="109.96" cy="165.803" rx="0.213" ry="0.291"/>
		<path fill="#9B1515" d="M111.809,161.308c-0.071,0.143-0.215,0.216-0.321,0.167c-0.103-0.055-0.128-0.214-0.056-0.358
			c0.07-0.142,0.215-0.216,0.318-0.161C111.854,161.007,111.88,161.165,111.809,161.308z"/>
		<path opacity="0.5" fill="#9B1515" d="M114.339,157.612c-0.073,0.144-0.215,0.216-0.322,0.165
			c-0.103-0.053-0.128-0.214-0.056-0.356c0.072-0.143,0.215-0.218,0.318-0.165C114.385,157.312,114.412,157.47,114.339,157.612z"/>
		
			<ellipse transform="matrix(0.8892 0.4576 -0.4576 0.8892 82.7501 -35.3265)" opacity="0.5" fill="#9B1515" cx="114.302" cy="153.163" rx="0.15" ry="0.208"/>
		<path opacity="0.5" fill="#9B1515" d="M117.025,151.375c-0.05,0.104-0.151,0.155-0.227,0.117
			c-0.076-0.038-0.094-0.153-0.042-0.251c0.051-0.105,0.155-0.155,0.229-0.119C117.06,151.159,117.079,151.273,117.025,151.375z"/>
		<path opacity="0.5" fill="#9B1515" d="M117.006,152.72c-0.051,0.103-0.153,0.157-0.228,0.117
			c-0.075-0.037-0.092-0.149-0.042-0.253c0.051-0.101,0.155-0.153,0.23-0.116C117.038,152.504,117.058,152.616,117.006,152.72z"/>
		
			<ellipse transform="matrix(0.8954 0.4453 -0.4453 0.8954 77.6689 -36.7907)" opacity="0.25" fill="#9B1515" cx="117.136" cy="146.907" rx="0.152" ry="0.206"/>
		
			<ellipse transform="matrix(0.8928 0.4504 -0.4504 0.8928 78.0818 -38.2764)" opacity="0.25" fill="#9B1515" cx="119.462" cy="144.917" rx="0.151" ry="0.205"/>
		
			<ellipse transform="matrix(0.8915 0.453 -0.453 0.8915 77.1655 -38.7229)" opacity="0.1" fill="#9B1515" cx="119.421" cy="141.73" rx="0.151" ry="0.208"/>
	</g>
	<g>
		
			<ellipse transform="matrix(0.5765 -0.8171 0.8171 0.5765 76.5674 456.8857)" fill="#9B1515" cx="479.068" cy="154.574" rx="1.03" ry="1.413"/>
		
			<ellipse transform="matrix(0.5765 -0.8171 0.8171 0.5765 73.7828 451.2549)" fill="#9B1515" cx="472.243" cy="154.445" rx="1.03" ry="1.411"/>
		
			<ellipse transform="matrix(0.5771 -0.8166 0.8166 0.5771 78.3358 446.3376)" fill="#9B1515" cx="470.157" cy="147.527" rx="0.767" ry="1.049"/>
		<path fill="#9B1515" d="M461.793,145.279c0.501,0.351,0.695,0.931,0.439,1.296c-0.256,0.363-0.869,0.373-1.369,0.021
			c-0.5-0.352-0.693-0.932-0.438-1.296C460.685,144.936,461.297,144.927,461.793,145.279z"/>
		<path fill="#9B1515" d="M456.541,137.422c0.291,0.205,0.405,0.541,0.256,0.751c-0.149,0.211-0.503,0.217-0.795,0.013
			c-0.287-0.205-0.402-0.54-0.254-0.752C455.896,137.224,456.251,137.219,456.541,137.422z"/>
		
			<ellipse transform="matrix(0.5771 -0.8166 0.8166 0.5771 79.432 426.4025)" fill="#9B1515" cx="451.456" cy="136.501" rx="0.468" ry="0.641"/>
		
			<ellipse transform="matrix(0.5762 -0.8173 0.8173 0.5762 81.9622 423.865)" fill="#9B1515" cx="449.693" cy="132.9" rx="0.468" ry="0.64"/>
		
			<ellipse transform="matrix(0.5762 -0.8173 0.8173 0.5762 80.7031 417.2056)" fill="#9B1515" cx="442.644" cy="130.784" rx="0.353" ry="0.484"/>
		
			<ellipse transform="matrix(0.5762 -0.8173 0.8173 0.5762 83.4587 413.0812)" fill="#9B1515" cx="440.045" cy="126.065" rx="0.353" ry="0.483"/>
		<path fill="#9B1515" d="M435.27,124.429c0.219,0.154,0.306,0.409,0.193,0.567c-0.111,0.159-0.38,0.165-0.6,0.01
			c-0.216-0.154-0.303-0.408-0.19-0.566C434.785,124.279,435.053,124.275,435.27,124.429z"/>
		
			<ellipse transform="matrix(0.5752 -0.818 0.818 0.5752 83.8381 405.5443)" fill="#9B1515" cx="432.407" cy="122.047" rx="0.212" ry="0.291"/>
		
			<ellipse transform="matrix(0.578 -0.8161 0.8161 0.578 82.9698 399.9001)" fill="#9B1515" cx="428.108" cy="119.735" rx="0.211" ry="0.292"/>
		
			<ellipse transform="matrix(0.5776 -0.8163 0.8163 0.5776 84.1732 396.066)" opacity="0.5" fill="#9B1515" cx="424.82" cy="116.693" rx="0.212" ry="0.292"/>
		
			<ellipse transform="matrix(0.5819 -0.8133 0.8133 0.5819 81.5772 390.4846)" opacity="0.5" fill="#9B1515" cx="420.535" cy="115.908" rx="0.15" ry="0.209"/>
		
			<ellipse transform="matrix(0.5706 -0.8212 0.8212 0.5706 87.0771 392.6968)" opacity="0.5" fill="#9B1515" cx="419.076" cy="113.076" rx="0.151" ry="0.206"/>
		
			<ellipse transform="matrix(0.5786 -0.8156 0.8156 0.5786 84.7407 390.6106)" opacity="0.5" fill="#9B1515" cx="420.405" cy="113.293" rx="0.151" ry="0.206"/>
		
			<ellipse transform="matrix(0.5735 -0.8192 0.8192 0.5735 84.9977 387.6381)" opacity="0.25" fill="#9B1515" cx="414.759" cy="112.193" rx="0.152" ry="0.207"/>
		
			<ellipse transform="matrix(0.5737 -0.8191 0.8191 0.5737 86.3527 385.1107)" opacity="0.25" fill="#9B1515" cx="413.129" cy="109.602" rx="0.15" ry="0.206"/>
		
			<ellipse transform="matrix(0.5759 -0.8176 0.8176 0.5759 84.6295 381.4783)" opacity="0.1" fill="#9B1515" cx="409.97" cy="109.176" rx="0.151" ry="0.208"/>
	</g>
	<g>
		
			<ellipse transform="matrix(0.5764 -0.8171 0.8171 0.5764 56.4108 430.8124)" fill="#9B1515" cx="443.766" cy="160.992" rx="1.03" ry="1.412"/>
		
			<ellipse transform="matrix(0.5767 -0.817 0.817 0.5767 53.5383 425.0541)" fill="#9B1515" cx="436.941" cy="160.863" rx="1.03" ry="1.412"/>
		
			<ellipse transform="matrix(0.5773 -0.8165 0.8165 0.5773 58.1173 420.1529)" fill="#9B1515" cx="434.854" cy="153.945" rx="0.766" ry="1.049"/>
		<path fill="#9B1515" d="M426.49,151.697c0.501,0.352,0.696,0.932,0.439,1.297c-0.256,0.363-0.869,0.374-1.368,0.02
			c-0.5-0.351-0.694-0.931-0.438-1.295C425.382,151.354,425.995,151.346,426.49,151.697z"/>
		<path fill="#9B1515" d="M421.238,143.841c0.291,0.204,0.405,0.541,0.256,0.751c-0.149,0.211-0.503,0.217-0.795,0.013
			c-0.287-0.205-0.402-0.54-0.254-0.752C420.594,143.643,420.949,143.637,421.238,143.841z"/>
		
			<ellipse transform="matrix(0.5771 -0.8166 0.8166 0.5771 59.2623 400.2871)" fill="#9B1515" cx="416.153" cy="142.919" rx="0.468" ry="0.641"/>
		<path fill="#9B1515" d="M414.66,138.937c0.289,0.203,0.403,0.542,0.253,0.752c-0.149,0.21-0.502,0.216-0.792,0.012
			c-0.29-0.204-0.404-0.541-0.255-0.752C414.018,138.738,414.371,138.733,414.66,138.937z"/>
		
			<ellipse transform="matrix(0.5762 -0.8173 0.8173 0.5762 60.4959 391.0728)" fill="#9B1515" cx="407.342" cy="137.203" rx="0.353" ry="0.483"/>
		<path fill="#9B1515" d="M404.946,132.195c0.218,0.155,0.305,0.409,0.19,0.568c-0.109,0.158-0.379,0.164-0.597,0.01
			c-0.217-0.154-0.303-0.408-0.191-0.566C404.46,132.046,404.729,132.042,404.946,132.195z"/>
		
			<ellipse transform="matrix(0.5762 -0.8173 0.8173 0.5762 62.2269 382.2862)" fill="#9B1515" cx="399.764" cy="131.136" rx="0.352" ry="0.485"/>
		
			<ellipse transform="matrix(0.5765 -0.8171 0.8171 0.5765 63.191 378.8585)" fill="#9B1515" cx="397.105" cy="128.465" rx="0.212" ry="0.291"/>
		
			<ellipse transform="matrix(0.5787 -0.8155 0.8155 0.5787 62.5988 373.4887)" fill="#9B1515" cx="392.806" cy="126.154" rx="0.211" ry="0.292"/>
		
			<ellipse transform="matrix(0.5769 -0.8168 0.8168 0.5769 64.2559 370.2661)" opacity="0.5" fill="#9B1515" cx="389.517" cy="123.112" rx="0.212" ry="0.292"/>
		
			<ellipse transform="matrix(0.5819 -0.8133 0.8133 0.5819 61.5952 364.4576)" opacity="0.5" fill="#9B1515" cx="385.233" cy="122.327" rx="0.15" ry="0.208"/>
		
			<ellipse transform="matrix(0.5722 -0.8201 0.8201 0.5722 66.1923 365.875)" opacity="0.5" fill="#9B1515" cx="383.774" cy="119.495" rx="0.151" ry="0.207"/>
		
			<ellipse transform="matrix(0.5779 -0.8161 0.8161 0.5779 64.8591 364.8217)" opacity="0.5" fill="#9B1515" cx="385.102" cy="119.712" rx="0.152" ry="0.206"/>
		
			<ellipse transform="matrix(0.575 -0.8182 0.8182 0.575 64.2338 360.8732)" opacity="0.25" fill="#9B1515" cx="379.456" cy="118.612" rx="0.152" ry="0.207"/>
		
			<ellipse transform="matrix(0.5722 -0.8201 0.8201 0.5722 66.4975 359.5107)" opacity="0.25" fill="#9B1515" cx="377.826" cy="116.02" rx="0.151" ry="0.207"/>
		
			<ellipse transform="matrix(0.5759 -0.8176 0.8176 0.5759 64.4084 355.3394)" opacity="0.1" fill="#9B1515" cx="374.668" cy="115.595" rx="0.151" ry="0.207"/>
	</g>
	<g>
		
			<ellipse transform="matrix(0.6683 -0.7439 0.7439 0.6683 8.8136 355.904)" fill="#9B1515" cx="403.501" cy="168.069" rx="1.031" ry="1.412"/>
		
			<ellipse transform="matrix(0.6687 -0.7435 0.7435 0.6687 7.1674 350.3661)" fill="#9B1515" cx="396.738" cy="167.14" rx="1.031" ry="1.412"/>
		
			<ellipse transform="matrix(0.6692 -0.7431 0.7431 0.6692 11.9136 346.8119)" fill="#9B1515" cx="395.477" cy="160.025" rx="0.767" ry="1.049"/>
		<path fill="#9B1515" d="M387.434,156.812c0.458,0.407,0.582,1.006,0.285,1.339c-0.297,0.33-0.907,0.269-1.361-0.141
			c-0.456-0.408-0.58-1.007-0.284-1.337C386.374,156.341,386.984,156.404,387.434,156.812z"/>
		<path fill="#9B1515" d="M383.141,148.394c0.264,0.237,0.338,0.584,0.166,0.776c-0.173,0.192-0.525,0.156-0.791-0.081
			c-0.261-0.237-0.336-0.584-0.164-0.777C382.524,148.121,382.877,148.157,383.141,148.394z"/>
		
			<ellipse transform="matrix(0.6688 -0.7434 0.7434 0.6688 16.0562 329.8058)" fill="#9B1515" cx="378.198" cy="146.882" rx="0.468" ry="0.641"/>
		<path fill="#9B1515" d="M377.183,142.751c0.262,0.235,0.336,0.585,0.163,0.776c-0.172,0.192-0.523,0.156-0.787-0.08
			c-0.264-0.236-0.339-0.584-0.166-0.777C376.568,142.479,376.919,142.515,377.183,142.751z"/>
		
			<ellipse transform="matrix(0.6677 -0.7444 0.7444 0.6677 18.6417 322.1044)" fill="#9B1515" cx="370.118" cy="140.171" rx="0.353" ry="0.484"/>
		<path fill="#9B1515" d="M368.327,134.917c0.199,0.18,0.255,0.442,0.122,0.586c-0.127,0.144-0.396,0.119-0.594-0.06
			c-0.198-0.179-0.253-0.441-0.123-0.585C367.861,134.712,368.129,134.739,368.327,134.917z"/>
		
			<ellipse transform="matrix(0.6684 -0.7438 0.7438 0.6684 21.3573 314.4193)" fill="#9B1515" cx="363.305" cy="133.257" rx="0.353" ry="0.485"/>
		
			<ellipse transform="matrix(0.6688 -0.7435 0.7435 0.6688 22.6964 311.5305)" fill="#9B1515" cx="360.977" cy="130.293" rx="0.212" ry="0.291"/>
		
			<ellipse transform="matrix(0.6704 -0.742 0.742 0.6704 23.0678 306.914)" fill="#9B1515" cx="356.979" cy="127.493" rx="0.211" ry="0.293"/>
		
			<ellipse transform="matrix(0.6693 -0.743 0.743 0.6693 24.8997 304.1144)" opacity="0.5" fill="#9B1515" cx="354.07" cy="124.087" rx="0.212" ry="0.291"/>
		
			<ellipse transform="matrix(0.6737 -0.739 0.739 0.6737 23.4146 298.642)" opacity="0.5" fill="#9B1515" cx="349.907" cy="122.805" rx="0.15" ry="0.208"/>
		
			<ellipse transform="matrix(0.6638 -0.7479 0.7479 0.6638 27.6577 301.1646)" opacity="0.5" fill="#9B1515" cx="348.791" cy="119.821" rx="0.151" ry="0.206"/>
		
			<ellipse transform="matrix(0.6691 -0.7432 0.7432 0.6691 26.5308 299.9641)" opacity="0.5" fill="#9B1515" cx="350.084" cy="120.192" rx="0.151" ry="0.206"/>
		
			<ellipse transform="matrix(0.6649 -0.747 0.747 0.6649 27.0211 297.1017)" opacity="0.25" fill="#9B1515" cx="344.606" cy="118.438" rx="0.152" ry="0.206"/>
		
			<ellipse transform="matrix(0.6663 -0.7457 0.7457 0.6663 28.3073 294.598)" opacity="0.25" fill="#9B1515" cx="343.291" cy="115.673" rx="0.151" ry="0.206"/>
		
			<ellipse transform="matrix(0.6689 -0.7434 0.7434 0.6689 27.2513 290.9393)" opacity="0.1" fill="#9B1515" cx="340.205" cy="114.88" rx="0.151" ry="0.208"/>
	</g>
	<g>
		
			<ellipse transform="matrix(0.6683 -0.7439 0.7439 0.6683 -2.0038 335.923)" fill="#9B1515" cx="375.686" cy="170.208" rx="1.031" ry="1.412"/>
		
			<ellipse transform="matrix(0.6685 -0.7437 0.7437 0.6685 -3.6072 330.4663)" fill="#9B1515" cx="368.924" cy="169.28" rx="1.03" ry="1.411"/>
		
			<ellipse transform="matrix(0.669 -0.7432 0.7432 0.669 1.1616 326.938)" fill="#9B1515" cx="367.663" cy="162.165" rx="0.766" ry="1.05"/>
		<path fill="#9B1515" d="M359.62,158.951c0.458,0.408,0.582,1.007,0.285,1.34c-0.297,0.33-0.907,0.268-1.361-0.141
			c-0.455-0.408-0.58-1.007-0.283-1.338C358.56,158.48,359.17,158.543,359.62,158.951z"/>
		<path fill="#9B1515" d="M355.326,150.533c0.264,0.237,0.339,0.584,0.167,0.777c-0.173,0.192-0.526,0.156-0.791-0.081
			c-0.261-0.237-0.336-0.583-0.164-0.777C354.71,150.26,355.063,150.296,355.326,150.533z"/>
		
			<ellipse transform="matrix(0.6685 -0.7437 0.7437 0.6685 5.3166 309.9709)" fill="#9B1515" cx="350.385" cy="149.021" rx="0.468" ry="0.641"/>
		<path fill="#9B1515" d="M349.368,144.891c0.262,0.236,0.336,0.585,0.163,0.777c-0.172,0.192-0.523,0.156-0.788-0.081
			c-0.263-0.236-0.339-0.584-0.165-0.776C348.754,144.618,349.105,144.655,349.368,144.891z"/>
		
			<ellipse transform="matrix(0.6685 -0.7437 0.7437 0.6685 7.6423 301.7659)" fill="#9B1515" cx="342.304" cy="142.311" rx="0.354" ry="0.484"/>
		<path fill="#9B1515" d="M340.513,137.057c0.198,0.18,0.254,0.441,0.122,0.586c-0.127,0.144-0.396,0.119-0.595-0.061
			c-0.197-0.178-0.252-0.441-0.123-0.585C340.048,136.852,340.315,136.878,340.513,137.057z"/>
		
			<ellipse transform="matrix(0.6676 -0.7445 0.7445 0.6676 10.7061 294.7753)" fill="#9B1515" cx="335.491" cy="135.397" rx="0.353" ry="0.484"/>
		
			<ellipse transform="matrix(0.6682 -0.744 0.744 0.6682 12.0154 291.807)" fill="#9B1515" cx="333.163" cy="132.433" rx="0.213" ry="0.291"/>
		
			<ellipse transform="matrix(0.6697 -0.7426 0.7426 0.6697 12.4469 287.2523)" fill="#9B1515" cx="329.164" cy="129.633" rx="0.211" ry="0.292"/>
		
			<ellipse transform="matrix(0.6686 -0.7436 0.7436 0.6686 14.2606 284.4502)" opacity="0.5" fill="#9B1515" cx="326.256" cy="126.226" rx="0.211" ry="0.292"/>
		
			<ellipse transform="matrix(0.6728 -0.7398 0.7398 0.6728 12.9443 279.1592)" opacity="0.5" fill="#9B1515" cx="322.093" cy="124.945" rx="0.149" ry="0.208"/>
		
			<ellipse transform="matrix(0.6656 -0.7463 0.7463 0.6656 16.322 280.3448)" opacity="0.5" fill="#9B1515" cx="320.977" cy="121.96" rx="0.151" ry="0.207"/>
		
			<ellipse transform="matrix(0.6699 -0.7424 0.7424 0.6699 15.5469 279.6338)" opacity="0.5" fill="#9B1515" cx="322.27" cy="122.332" rx="0.152" ry="0.206"/>
		
			<ellipse transform="matrix(0.6648 -0.7471 0.7471 0.6648 16.1223 277.0823)" opacity="0.25" fill="#9B1515" cx="316.792" cy="120.577" rx="0.151" ry="0.207"/>
		
			<ellipse transform="matrix(0.6663 -0.7457 0.7457 0.6663 17.4295 274.571)" opacity="0.25" fill="#9B1515" cx="315.477" cy="117.812" rx="0.151" ry="0.206"/>
		
			<ellipse transform="matrix(0.6698 -0.7426 0.7426 0.6698 16.2658 270.6154)" opacity="0.1" fill="#9B1515" cx="312.391" cy="117.02" rx="0.151" ry="0.208"/>
	</g>
	<g>
		
			<ellipse transform="matrix(0.4678 -0.8839 0.8839 0.4678 172.6289 561.0902)" fill="#9B1515" cx="552.195" cy="137.209" rx="1.03" ry="1.412"/>
		
			<ellipse transform="matrix(0.468 -0.8838 0.8838 0.468 168.2713 555.4014)" fill="#9B1515" cx="545.409" cy="137.948" rx="1.03" ry="1.411"/>
		
			<ellipse transform="matrix(0.4688 -0.8833 0.8833 0.4688 172.1563 548.9519)" fill="#9B1515" cx="542.461" cy="131.35" rx="0.766" ry="1.05"/>
		<path fill="#9B1515" d="M533.879,130.182c0.542,0.285,0.809,0.835,0.601,1.23c-0.207,0.393-0.814,0.48-1.354,0.194
			c-0.541-0.285-0.807-0.836-0.599-1.229C532.736,129.982,533.343,129.896,533.879,130.182z"/>
		
			<ellipse transform="matrix(0.4678 -0.8839 0.8839 0.4678 171.6001 531.9056)" fill="#9B1515" cx="527.455" cy="123.469" rx="0.468" ry="0.642"/>
		
			<ellipse transform="matrix(0.4692 -0.8831 0.8831 0.4692 168.9144 526.5983)" fill="#9B1515" cx="522.511" cy="122.787" rx="0.468" ry="0.642"/>
		
			<ellipse transform="matrix(0.4676 -0.884 0.884 0.4676 171.4563 523.5282)" fill="#9B1515" cx="520.307" cy="119.439" rx="0.468" ry="0.64"/>
		
			<ellipse transform="matrix(0.4684 -0.8835 0.8835 0.4684 168.2891 516.1529)" fill="#9B1515" cx="513.046" cy="118.235" rx="0.353" ry="0.483"/>
		<path fill="#9B1515" d="M510.035,113.572c0.236,0.126,0.354,0.366,0.26,0.539c-0.089,0.171-0.355,0.211-0.591,0.085
			c-0.235-0.125-0.352-0.366-0.261-0.538C509.534,113.485,509.8,113.447,510.035,113.572z"/>
		<path fill="#9B1515" d="M504.925,112.867c0.237,0.125,0.355,0.366,0.263,0.539c-0.09,0.171-0.356,0.21-0.593,0.085
			c-0.233-0.125-0.352-0.366-0.261-0.538C504.425,112.779,504.691,112.742,504.925,112.867z"/>
		
			<ellipse transform="matrix(0.4674 -0.8841 0.8841 0.4674 169.2561 502.6624)" fill="#9B1515" cx="501.783" cy="110.867" rx="0.212" ry="0.291"/>
		
			<ellipse transform="matrix(0.4688 -0.8833 0.8833 0.4688 167.7449 497.17)" fill="#9B1515" cx="497.226" cy="109.12" rx="0.211" ry="0.291"/>
		
			<ellipse transform="matrix(0.4678 -0.8838 0.8838 0.4678 168.5205 492.9181)" opacity="0.5" fill="#9B1515" cx="493.578" cy="106.52" rx="0.212" ry="0.292"/>
		<path opacity="0.5" fill="#9B1515" d="M489.299,106.154c0.101,0.052,0.151,0.155,0.113,0.229c-0.04,0.073-0.154,0.091-0.256,0.036
			c-0.099-0.053-0.15-0.155-0.111-0.229C489.085,106.115,489.198,106.099,489.299,106.154z"/>
		
			<ellipse transform="matrix(0.4639 -0.8859 0.8859 0.4639 169.4537 487.3566)" opacity="0.5" fill="#9B1515" cx="487.421" cy="103.662" rx="0.151" ry="0.206"/>
		<path opacity="0.5" fill="#9B1515" d="M488.838,103.574c0.101,0.054,0.151,0.157,0.11,0.23c-0.036,0.073-0.15,0.089-0.252,0.037
			c-0.1-0.054-0.149-0.158-0.113-0.231C488.623,103.537,488.735,103.52,488.838,103.574z"/>
		
			<ellipse transform="matrix(0.4645 -0.8856 0.8856 0.4645 167.1566 483.0951)" opacity="0.25" fill="#9B1515" cx="483.027" cy="103.334" rx="0.152" ry="0.207"/>
		
			<ellipse transform="matrix(0.4653 -0.8852 0.8852 0.4653 167.8694 479.8262)" opacity="0.25" fill="#9B1515" cx="481.081" cy="100.97" rx="0.151" ry="0.207"/>
		
			<ellipse transform="matrix(0.4678 -0.8838 0.8838 0.4678 165.1077 476.0996)" opacity="0.1" fill="#9B1515" cx="477.894" cy="100.949" rx="0.151" ry="0.207"/>
	</g>
	<g>
		
			<ellipse transform="matrix(0.4678 -0.8839 0.8839 0.4678 148.6973 533.3487)" fill="#9B1515" cx="517.195" cy="143.209" rx="1.03" ry="1.412"/>
		
			<ellipse transform="matrix(0.468 -0.8838 0.8838 0.468 144.3471 527.6624)" fill="#9B1515" cx="510.409" cy="143.948" rx="1.03" ry="1.411"/>
		
			<ellipse transform="matrix(0.4688 -0.8833 0.8833 0.4688 148.2626 521.2228)" fill="#9B1515" cx="507.461" cy="137.35" rx="0.766" ry="1.05"/>
		<path fill="#9B1515" d="M498.879,136.182c0.542,0.285,0.809,0.835,0.601,1.23c-0.207,0.393-0.814,0.48-1.354,0.194
			c-0.541-0.285-0.807-0.836-0.599-1.229C497.736,135.982,498.343,135.896,498.879,136.182z"/>
		
			<ellipse transform="matrix(0.4678 -0.8839 0.8839 0.4678 147.6689 504.1642)" fill="#9B1515" cx="492.455" cy="129.469" rx="0.468" ry="0.642"/>
		
			<ellipse transform="matrix(0.4692 -0.8831 0.8831 0.4692 145.0381 498.875)" fill="#9B1515" cx="487.511" cy="128.787" rx="0.468" ry="0.642"/>
		
			<ellipse transform="matrix(0.4676 -0.884 0.884 0.4676 147.5168 495.7841)" fill="#9B1515" cx="485.307" cy="125.439" rx="0.468" ry="0.64"/>
		
			<ellipse transform="matrix(0.4684 -0.8835 0.8835 0.4684 144.3806 488.4189)" fill="#9B1515" cx="478.046" cy="124.235" rx="0.353" ry="0.483"/>
		<path fill="#9B1515" d="M475.035,119.572c0.236,0.126,0.354,0.366,0.26,0.539c-0.089,0.171-0.355,0.211-0.591,0.085
			c-0.235-0.125-0.352-0.366-0.261-0.538C474.534,119.485,474.8,119.447,475.035,119.572z"/>
		<path fill="#9B1515" d="M469.925,118.867c0.237,0.125,0.355,0.366,0.263,0.539c-0.09,0.171-0.356,0.21-0.593,0.085
			c-0.233-0.125-0.352-0.366-0.261-0.538C469.425,118.779,469.691,118.742,469.925,118.867z"/>
		
			<ellipse transform="matrix(0.4674 -0.8841 0.8841 0.4674 145.3092 474.9158)" fill="#9B1515" cx="466.783" cy="116.867" rx="0.212" ry="0.291"/>
		
			<ellipse transform="matrix(0.4688 -0.8833 0.8833 0.4688 143.8526 469.4414)" fill="#9B1515" cx="462.226" cy="115.12" rx="0.211" ry="0.291"/>
		
			<ellipse transform="matrix(0.4678 -0.8838 0.8838 0.4678 144.5919 465.1776)" opacity="0.5" fill="#9B1515" cx="458.578" cy="112.52" rx="0.212" ry="0.292"/>
		<path opacity="0.5" fill="#9B1515" d="M454.299,112.154c0.101,0.052,0.151,0.155,0.113,0.229c-0.04,0.073-0.154,0.091-0.256,0.036
			c-0.099-0.053-0.15-0.155-0.111-0.229C454.085,112.115,454.198,112.099,454.299,112.154z"/>
		
			<ellipse transform="matrix(0.4639 -0.8859 0.8859 0.4639 145.3767 459.5677)" opacity="0.5" fill="#9B1515" cx="452.421" cy="109.662" rx="0.151" ry="0.206"/>
		<path opacity="0.5" fill="#9B1515" d="M453.838,109.574c0.101,0.054,0.151,0.157,0.11,0.23c-0.036,0.073-0.15,0.089-0.252,0.037
			c-0.1-0.054-0.149-0.158-0.113-0.231C453.623,109.537,453.735,109.52,453.838,109.574z"/>
		
			<ellipse transform="matrix(0.4645 -0.8856 0.8856 0.4645 143.1002 455.3129)" opacity="0.25" fill="#9B1515" cx="448.027" cy="109.334" rx="0.152" ry="0.207"/>
		
			<ellipse transform="matrix(0.4653 -0.8852 0.8852 0.4653 143.8431 452.0538)" opacity="0.25" fill="#9B1515" cx="446.081" cy="106.97" rx="0.151" ry="0.207"/>
		
			<ellipse transform="matrix(0.4678 -0.8838 0.8838 0.4678 141.1782 448.3587)" opacity="0.1" fill="#9B1515" cx="442.894" cy="106.949" rx="0.151" ry="0.207"/>
	</g>
	<g>
		
			<ellipse transform="matrix(0.4016 -0.9158 0.9158 0.4016 244.6361 626.212)" fill="#9B1515" cx="601.523" cy="125.9" rx="1.03" ry="1.412"/>
		
			<ellipse transform="matrix(0.4022 -0.9156 0.9156 0.4022 239.1792 620.5807)" fill="#9B1515" cx="594.809" cy="127.135" rx="1.03" ry="1.412"/>
		
			<ellipse transform="matrix(0.403 -0.9152 0.9152 0.403 242.5404 613.3467)" fill="#9B1515" cx="591.385" cy="120.772" rx="0.766" ry="1.05"/>
		
			<ellipse transform="matrix(0.4014 -0.9159 0.9159 0.4014 237.8301 605.8506)" fill="#9B1515" cx="582.417" cy="120.975" rx="0.805" ry="1.106"/>
		<path fill="#9B1515" d="M576.027,113.587c0.325,0.142,0.503,0.449,0.401,0.686c-0.104,0.236-0.451,0.313-0.776,0.171
			c-0.322-0.144-0.502-0.449-0.4-0.687C575.355,113.521,575.703,113.445,576.027,113.587z"/>
		
			<ellipse transform="matrix(0.4017 -0.9158 0.9158 0.4017 237.4123 590.7944)" fill="#9B1515" cx="570.86" cy="113.698" rx="0.467" ry="0.641"/>
		<path fill="#9B1515" d="M568.604,110.093c0.322,0.142,0.5,0.451,0.397,0.687s-0.449,0.312-0.772,0.17
			c-0.325-0.142-0.505-0.449-0.402-0.687C567.933,110.026,568.277,109.951,568.604,110.093z"/>
		
			<ellipse transform="matrix(0.4022 -0.9156 0.9156 0.4022 234.8607 579.3885)" fill="#9B1515" cx="561.086" cy="109.854" rx="0.353" ry="0.483"/>
		<path fill="#9B1515" d="M557.74,105.425c0.244,0.109,0.38,0.339,0.298,0.519c-0.076,0.177-0.339,0.236-0.583,0.128
			c-0.244-0.107-0.378-0.34-0.3-0.518C557.234,105.375,557.497,105.317,557.74,105.425z"/>
		
			<ellipse transform="matrix(0.4021 -0.9156 0.9156 0.4021 233.7929 568.856)" fill="#9B1515" cx="552.45" cy="105.421" rx="0.353" ry="0.485"/>
		
			<ellipse transform="matrix(0.4015 -0.9158 0.9158 0.4015 234.102 564.9227)" fill="#9B1515" cx="549.312" cy="103.334" rx="0.212" ry="0.291"/>
		
			<ellipse transform="matrix(0.4047 -0.9144 0.9144 0.4047 230.9931 558.7051)" fill="#9B1515" cx="544.638" cy="101.927" rx="0.212" ry="0.291"/>
		
			<ellipse transform="matrix(0.4024 -0.9155 0.9155 0.4024 232.0103 554.616)" opacity="0.5" fill="#9B1515" cx="540.809" cy="99.602" rx="0.212" ry="0.291"/>
		
			<ellipse transform="matrix(0.4064 -0.9137 0.9137 0.4064 227.3351 549.316)" opacity="0.5" fill="#9B1515" cx="536.454" cy="99.688" rx="0.15" ry="0.208"/>
		
			<ellipse transform="matrix(0.3974 -0.9176 0.9176 0.3974 232.854 549.0106)" opacity="0.5" fill="#9B1515" cx="534.459" cy="97.204" rx="0.151" ry="0.206"/>
		
			<ellipse transform="matrix(0.4001 -0.9165 0.9165 0.4001 232.3724 549.3163)" opacity="0.5" fill="#9B1515" cx="535.804" cy="97.151" rx="0.151" ry="0.206"/>
		
			<ellipse transform="matrix(0.3978 -0.9175 0.9175 0.3978 230.026 544.8456)" opacity="0.25" fill="#9B1515" cx="530.052" cy="97.199" rx="0.152" ry="0.207"/>
		
			<ellipse transform="matrix(0.398 -0.9174 0.9174 0.398 230.6736 541.4986)" opacity="0.25" fill="#9B1515" cx="527.938" cy="94.985" rx="0.151" ry="0.207"/>
		
			<ellipse transform="matrix(0.3992 -0.9169 0.9169 0.3992 227.9904 538.3269)" opacity="0.1" fill="#9B1515" cx="524.758" cy="95.198" rx="0.15" ry="0.208"/>
	</g>
	<g>
		
			<ellipse transform="matrix(0.3246 -0.9459 0.9459 0.3246 337.0358 702.4433)" fill="#9B1515" cx="660.381" cy="115.223" rx="1.03" ry="1.413"/>
		
			<ellipse transform="matrix(0.325 -0.9457 0.9457 0.325 330.6778 697.2958)" fill="#9B1515" cx="653.793" cy="117.009" rx="1.03" ry="1.411"/>
		
			<ellipse transform="matrix(0.3259 -0.9454 0.9454 0.3259 333.1961 689.1792)" fill="#9B1515" cx="649.854" cy="110.951" rx="0.766" ry="1.05"/>
		
			<ellipse transform="matrix(0.3241 -0.946 0.946 0.3241 327.3348 681.9576)" fill="#9B1515" cx="640.934" cy="111.894" rx="0.805" ry="1.106"/>
		
			<ellipse transform="matrix(0.3239 -0.9461 0.9461 0.3239 328.7035 670.9675)" fill="#9B1515" cx="633.805" cy="105.501" rx="0.467" ry="0.642"/>
		
			<ellipse transform="matrix(0.3253 -0.9456 0.9456 0.3253 324.4093 665.8608)" fill="#9B1515" cx="628.815" cy="105.596" rx="0.468" ry="0.641"/>
		<path fill="#9B1515" d="M626.269,102.19c0.332,0.114,0.536,0.408,0.452,0.651c-0.083,0.244-0.422,0.349-0.756,0.234
			c-0.336-0.115-0.541-0.407-0.457-0.651C625.595,102.179,625.933,102.075,626.269,102.19z"/>
		
			<ellipse transform="matrix(0.3241 -0.946 0.946 0.3241 321.1841 654.6894)" fill="#9B1515" cx="618.757" cy="102.573" rx="0.353" ry="0.483"/>
		<path fill="#9B1515" d="M615.056,98.435c0.253,0.088,0.408,0.308,0.341,0.493c-0.062,0.183-0.318,0.264-0.571,0.177
			c-0.251-0.087-0.404-0.308-0.342-0.491C614.548,98.428,614.805,98.349,615.056,98.435z"/>
		<path fill="#9B1515" d="M609.9,98.535c0.253,0.086,0.407,0.306,0.343,0.491c-0.063,0.184-0.318,0.263-0.574,0.176
			c-0.25-0.087-0.404-0.307-0.341-0.49C609.392,98.526,609.648,98.448,609.9,98.535z"/>
		
			<ellipse transform="matrix(0.3245 -0.9459 0.9459 0.3245 317.8835 639.2205)" fill="#9B1515" cx="606.484" cy="97.048" rx="0.212" ry="0.291"/>
		
			<ellipse transform="matrix(0.3276 -0.9448 0.9448 0.3276 313.8434 633.0697)" fill="#9B1515" cx="601.71" cy="96.031" rx="0.212" ry="0.292"/>
		
			<ellipse transform="matrix(0.3231 -0.9463 0.9463 0.3231 315.5724 629.2806)" opacity="0.5" fill="#9B1515" cx="597.702" cy="94.031" rx="0.212" ry="0.292"/>
		
			<ellipse transform="matrix(0.3309 -0.9437 0.9437 0.3309 307.8923 623.1686)" opacity="0.5" fill="#9B1515" cx="593.369" cy="94.476" rx="0.15" ry="0.208"/>
		
			<ellipse transform="matrix(0.3216 -0.9469 0.9469 0.3216 313.8097 622.3084)" opacity="0.5" fill="#9B1515" cx="591.176" cy="92.166" rx="0.151" ry="0.207"/>
		<path opacity="0.5" fill="#9B1515" d="M592.561,91.858c0.108,0.038,0.175,0.131,0.146,0.21c-0.023,0.078-0.134,0.111-0.243,0.076
			c-0.108-0.039-0.172-0.133-0.147-0.212C592.344,91.855,592.452,91.821,592.561,91.858z"/>
		
			<ellipse transform="matrix(0.3182 -0.948 0.948 0.3182 312.378 619.382)" opacity="0.25" fill="#9B1515" cx="586.784" cy="92.525" rx="0.152" ry="0.207"/>
		
			<ellipse transform="matrix(0.3235 -0.9462 0.9462 0.3235 309.7849 614.2842)" opacity="0.25" fill="#9B1515" cx="584.494" cy="90.493" rx="0.151" ry="0.207"/>
		
			<ellipse transform="matrix(0.323 -0.9464 0.9464 0.323 307.4555 611.7563)" opacity="0.1" fill="#9B1515" cx="581.342" cy="90.969" rx="0.15" ry="0.208"/>
	</g>
</g>
<g>
	<path fill="#DDDBE9" stroke="#BCBCBC" stroke-width="1.1036" stroke-miterlimit="10" d="M371.262,48.923
		c0.139-2.116,1.633-5.195,5.862-5.195c5.47,0,5.726,5.357,5.726,5.357l-0.345,36.625c0,0-3.174,0.483-6.278,0.483
		s-5.406-0.7-5.404-0.875C370.884,82.011,371.209,49.688,371.262,48.923z"/>
	<path fill="#DDDBE9" stroke="#BCBCBC" stroke-width="1.1036" stroke-miterlimit="10" d="M386.239,48.923
		c0.139-2.116,1.632-5.195,5.861-5.195c5.47,0,5.726,5.357,5.726,5.357l-0.345,36.625c0,0-3.174,0.483-6.277,0.483
		c-3.104,0-5.407-0.7-5.405-0.875C385.861,82.011,386.186,49.688,386.239,48.923z"/>
	<polygon fill="#99683F" points="350.604,73.304 363.26,58.304 369.704,71.338 369.436,86.194 350.906,87.917 	"/>
	<polygon fill="#74471C" points="330.335,73.044 330.335,86.684 351.335,87.954 351.335,73.847 	"/>
	<line fill="none" stroke="#BCBCBC" stroke-miterlimit="10" x1="371.335" y1="48.175" x2="382.335" y2="48.175"/>
	<line fill="none" stroke="#BCBCBC" stroke-miterlimit="10" x1="386.335" y1="48.175" x2="397.335" y2="48.175"/>
	<polygon fill="#CBCAD0" points="363.26,58.304 352.253,73.958 328.58,73.391 338.254,57.564 	"/>
	<polygon fill="#403116" points="364.341,86.684 358.335,87.376 358.335,75.335 364.471,74.123 	"/>
	<g>
		<line fill="none" stroke="#66451C" stroke-width="3" stroke-miterlimit="10" x1="419.835" y1="81.675" x2="419.835" y2="70.675"/>
		<linearGradient id="SVGID_2_" gradientUnits="userSpaceOnUse" x1="423.7983" y1="57.9819" x2="414.8191" y2="73.5344">
			<stop  offset="0" style="stop-color:#9BBF29"/>
			<stop  offset="1" style="stop-color:#5B7521"/>
		</linearGradient>
		<path fill="url(#SVGID_2_)" d="M417.508,55.597c0,0-6.432,5.194-5.444,6.927c0.988,1.732,0.039,2.97-0.104,4.949
			s-1.235,4.203,2.774,5.936c4.009,1.732,10.445-0.248,11.433-2.721c0.988-2.474,0.988-9.65-1.732-10.144
			C421.713,60.05,421.716,54.362,417.508,55.597z"/>
	</g>
	<g>
		<line fill="none" stroke="#66451C" stroke-width="2" stroke-miterlimit="10" x1="434.335" y1="78.675" x2="434.335" y2="71.675"/>
		<linearGradient id="SVGID_3_" gradientUnits="userSpaceOnUse" x1="437.6914" y1="63.4507" x2="431.9025" y2="73.4774">
			<stop  offset="0" style="stop-color:#9BBF29"/>
			<stop  offset="1" style="stop-color:#5B7521"/>
		</linearGradient>
		<path fill="url(#SVGID_3_)" d="M433.636,61.913c0,0-4.146,3.349-3.509,4.465c0.637,1.117,0.025,1.915-0.067,3.191
			c-0.093,1.276-0.796,2.709,1.787,3.827c2.584,1.116,6.733-0.16,7.371-1.754c0.637-1.595,0.637-6.221-1.116-6.54
			C436.347,64.784,436.349,61.117,433.636,61.913z"/>
	</g>
	<g>
		<g>
			<path fill="#FD4F57" d="M285.754,5.961c13.3,7.128,19.789-10.738,33.089-3.61c-0.131,10.96-0.196,16.44-0.328,27.4
				c-11.549-9.848-20.885,6.31-32.434-3.538C285.951,18.112,285.885,14.062,285.754,5.961z"/>
			<path fill="#FFFFFE" d="M309.669,25.979c0.022-3.826,0.033-5.739,0.056-9.565c3.566-0.558,5.35-0.455,8.915,3.062
				c0.008-0.684,0.011-1.026,0.02-1.71c-4.164-4.05-6.246-3.761-10.411-2.608c-0.021,4.405-0.031,6.607-0.053,11.013
				C308.785,26.063,309.08,26.022,309.669,25.979z"/>
			<path fill="#FFFFFE" d="M318.7,14.338c-4.175-3.946-6.263-3.601-10.438-2.331c0.021-4.406,0.032-6.608,0.053-11.014
				c0.601-0.24,0.901-0.347,1.502-0.522c-0.022,3.826-0.033,5.74-0.055,9.566c3.583-0.756,5.375-0.75,8.958,2.589
				C318.712,13.311,318.708,13.654,318.7,14.338z"/>
			<path fill="#FFFFFE" d="M305.308,2.432c-0.602,0.326-0.903,0.497-1.505,0.844c-0.004,3.625-0.006,5.438-0.01,9.063
				c-7.167,3.557-10.75,7.894-17.915,1.217c0.008,0.506,0.012,0.758,0.021,1.265c7.753,7.329,11.63,1.797,19.384-1.669
				C305.292,8.864,305.297,6.72,305.308,2.432z"/>
			<path fill="#FFFFFE" d="M285.938,17.354c7.734,7.522,11.602,2.109,19.336-1.138c-0.011,4.288-0.016,6.432-0.027,10.719
				c-0.59,0.191-0.885,0.293-1.476,0.505c0.004-3.625,0.007-5.437,0.012-9.062c-7.13,3.15-10.696,7.27-17.826,0.239
				C285.95,18.112,285.947,17.86,285.938,17.354z"/>
			<path fill="#3F4975" d="M308.195,26.169c0.021-4.405,0.032-6.607,0.053-11.013c4.165-1.153,6.247-1.442,10.411,2.608
				c0.017-1.371,0.025-2.056,0.041-3.426c-4.175-3.946-6.263-3.601-10.438-2.331c0.021-4.406,0.032-6.608,0.053-11.014
				c-1.203,0.479-1.805,0.787-3.007,1.438c-0.01,4.288-0.016,6.432-0.026,10.72c-7.753,3.466-11.631,8.998-19.384,1.669
				c0.016,1.013,0.024,1.521,0.041,2.534c7.734,7.522,11.602,2.109,19.336-1.138c-0.011,4.288-0.016,6.432-0.027,10.719
				C306.427,26.555,307.016,26.382,308.195,26.169z"/>
		</g>
	</g>
	<line fill="none" stroke="#684500" stroke-width="2" stroke-miterlimit="10" x1="319.335" y1="88.675" x2="319.335" y2="1.675"/>
</g>
</svg>
