<?xml version="1.0" encoding="utf-8"?>
<!-- Generator: Adobe Illustrator 16.0.0, SVG Export Plug-In . SVG Version: 6.00 Build 0)  -->
<!DOCTYPE svg PUBLIC "-//W3C//DTD SVG 1.1//EN" "http://www.w3.org/Graphics/SVG/1.1/DTD/svg11.dtd">
<svg version="1.1" id="Layer_1" xmlns="http://www.w3.org/2000/svg" xmlns:xlink="http://www.w3.org/1999/xlink" x="0px" y="0px"
	 width="999.936px" height="242.165px" viewBox="0 0 999.936 242.165" enable-background="new 0 0 999.936 242.165"
	 xml:space="preserve">
<g>
	<linearGradient id="SVGID_1_" gradientUnits="userSpaceOnUse" x1="500.5894" y1="0.6938" x2="500.5894" y2="245.6162">
		<stop  offset="0" style="stop-color:#D9E021"/>
		<stop  offset="0.0676" style="stop-color:#CFDD25"/>
		<stop  offset="0.3081" style="stop-color:#B2D330"/>
		<stop  offset="0.546" style="stop-color:#9DCC38"/>
		<stop  offset="0.7785" style="stop-color:#90C73D"/>
		<stop  offset="0.9987" style="stop-color:#8CC63F"/>
	</linearGradient>
	<path fill="url(#SVGID_1_)" d="M1,62.673c0,0,207.73-39.034,286.817-49.406c79.088-10.372,231.145-22.526,330.976,0.812
		c99.835,23.337,382.143,119.339,382.143,119.339s-0.695,82.864,0,112.198c0,0-589.946-1.826-661.543-2.457
		C307.79,242.879,1,243.165,1,243.165C-0.703,172.127,1,62.673,1,62.673z"/>
	<g>
		<path fill="#9BBF29" d="M14.965,245.516c0,0,30.164-73.447,60-128.9c24.496-45.526,49.4-74.967,51.843-75.44
			c5.416-1.048-16.944,1.339-16.944,1.339c0,0-14.165,20.326-36.565,59.12C40.873,157.79,7.544,241.445,6.243,245.283
			C4.114,251.562,14.965,245.516,14.965,245.516z"/>
		<path fill="#9BBF29" d="M165.349,33.81c0,0-19.446,14.727-26.792,28.759C131.21,76.6,82.617,234.537,80.632,243.616
			c-1.985,9.078-12,2.667-12,2.667s51-176.261,64.521-192.157c11.059-13.001,16.369-17.318,16.369-17.318L165.349,33.81z"/>
		<path fill="#9BBF29" d="M106.384,251.616c0,0,62.423-194.628,68.476-205.867c6.052-11.238,6.659-15.044,6.659-15.044
			l-10.587,3.063c0,0-13.36,24.707-17.465,35.728c-4.104,11.02-61.835,182.12-61.835,182.12H106.384z"/>
		<path fill="#9BBF29" d="M189.653,29.29l5.288-0.965c0,0,3.255,16.944,2.608,32.069S167.802,245.9,165.975,251.95
			c-1.829,6.05-36.084,3.266-36.084,3.266s54.347-174.514,56.681-191.475C188.907,46.78,189.653,29.29,189.653,29.29z"/>
		<path fill="#9BBF29" d="M205.116,26.483l7.354-1.314c0,0,11.01,24.418,13.603,46.245c2.594,21.824,9.4,166.867,7.893,178.868
			c-1.507,12-19.651-1.667-19.651-1.667s4.413-176.551,0.522-193.191C210.947,38.785,205.116,26.483,205.116,26.483z"/>
		<path fill="#9BBF29" d="M230.129,22.085l6.516-1.109c0,0,14.28,17.376,26.163,45.899c11.884,28.523,48.195,177.269,48.195,188.074
			s-18.703-1.369-18.703-1.369S260,93.239,252.435,71.846C244.872,50.454,230.129,22.085,230.129,22.085z"/>
		<path fill="#9BBF29" d="M256.915,17.661l6.496-1.005c0,0,26.191,24.718,39.156,47.085
			c12.967,22.368,68.765,169.372,67.692,186.875l-19.646,2.965c0,0-40.917-155.588-62.091-188.65
			C267.346,31.87,256.915,17.661,256.915,17.661z"/>
		<path fill="#9BBF29" d="M287.817,13.267l5.129-0.638c0,0,22.853,24.17,44.627,48.412c24.527,27.306,77.245,179.455,78.541,190.909
			l-22.739,1.631c0,0-49.535-170.283-68.334-195.565C306.242,32.733,287.817,13.267,287.817,13.267z"/>
		<path fill="#9BBF29" d="M329.354,8.968c0,0,44.521,35.039,60.729,60.531c16.206,25.493,84.815,172.729,90.216,182.45
			l-26.108-2.001c0,0-58.924-158.466-82.692-186.99C347.73,34.436,323.699,9.483,323.699,9.483L329.354,8.968z"/>
		<path fill="#9BBF29" d="M358.071,6.005c0,0,45.194,25.593,62.265,45.259c17.07,19.666,107.118,190.294,114.681,205.294
			l-29.513-9.943c0,0-68.11-159.697-94.574-187.139c-26.464-27.442-58.476-53.03-58.476-53.03L358.071,6.005z"/>
		<path fill="#9BBF29" d="M398.936,3.192c0,0,44.086,32.137,68.29,60.228c24.203,28.091,36.974,54.674,41.059,62.881
			s57.473,125.649,57.473,125.649l-22.462-1.334c0,0-59.431-149.166-90.979-185.037c-31.547-35.869-55.139-59.234-61.387-61.921
			L398.936,3.192z"/>
		<path fill="#9BBF29" d="M553.444,123.54c0,0-31.22-57.742-70.604-84.106S428.971,1.83,428.971,1.83l-6.69,0.248
			c0,0,29.603,24.391,55.967,47.08c26.363,22.689,54.456,65.472,59.424,77.359c4.97,11.886,59.628,125.434,59.628,125.434
			s28.62,1.581,28.727,1.631S553.444,123.54,553.444,123.54z"/>
		<path fill="#9BBF29" d="M471.979,1.07c0,0,45.809,22.373,77.792,50.248c31.982,27.875,185.597,190.26,191.861,200.632
			s-30.333,0-30.333,0S588.235,99.876,553.229,69.438C518.224,39,463.336,1.83,463.336,1.83L471.979,1.07z"/>
		<path fill="#9BBF29" d="M502.232,1.616c0,0,72.103,24.086,102.422,45.413c31.859,22.41,210.621,196.838,213.645,200.92
			l-27.834,4.001c0,0-148.402-150.029-190.272-185.65C558.216,30.588,493.587,1.616,493.587,1.616H502.232z"/>
		<path fill="#9BBF29" d="M585.622,7.687c0,0,25.465,9.531,55.753,23.929c32.111,15.265,69.451,35.624,80.614,42.176
			c28.1,16.49,186.396,102.744,283.31,157.158c0,0-27.819,29.026-46.334,21.333C958.334,252.021,671.21,58.236,632.53,37.273
			C593.85,16.311,568.96,5.633,568.96,5.633L585.622,7.687z"/>
	</g>
	<g>
		<circle fill="#9B1515" cx="187.738" cy="93.81" r="0.914"/>
		<circle fill="#9B1515" cx="184.815" cy="89.76" r="0.914"/>
		<circle fill="#9B1515" cx="189.187" cy="86.585" r="0.679"/>
		<circle fill="#9B1515" cx="186.497" cy="80.948" r="0.715"/>
		<circle fill="#9B1515" cx="190.482" cy="75.686" r="0.414"/>
		<circle fill="#9B1515" cx="189.348" cy="72.487" r="0.415"/>
		<circle fill="#9B1515" cx="191.323" cy="70.436" r="0.415"/>
		<circle fill="#9B1515" cx="189.823" cy="65.697" r="0.313"/>
		<circle fill="#9B1515" cx="192.284" cy="62.841" r="0.313"/>
		<circle fill="#9B1515" cx="191.114" cy="59.535" r="0.314"/>
		<circle fill="#9B1515" cx="191.979" cy="57.218" r="0.188"/>
		<path fill="#9B1515" d="M192.033,54.063c-0.012,0.103-0.106,0.177-0.21,0.164c-0.104-0.013-0.175-0.106-0.162-0.21
			c0.01-0.104,0.105-0.176,0.208-0.163C191.971,53.866,192.045,53.961,192.033,54.063z"/>
		<circle opacity="0.5" fill="#9B1515" cx="192.719" cy="51.251" r="0.188"/>
		<circle opacity="0.5" fill="#9B1515" cx="191.422" cy="48.511" r="0.134"/>
		<circle opacity="0.5" fill="#9B1515" cx="192.944" cy="46.855" r="0.134"/>
		<circle opacity="0.5" fill="#9B1515" cx="193.367" cy="47.698" r="0.134"/>
		<circle opacity="0.25" fill="#9B1515" cx="191.71" cy="44.069" r="0.135"/>
		<circle opacity="0.25" fill="#9B1515" cx="192.972" cy="42.381" r="0.134"/>
		<circle opacity="0.1" fill="#9B1515" cx="191.9" cy="40.405" r="0.134"/>
	</g>
	<g>
		<circle fill="#9B1515" cx="156.781" cy="85.517" r="0.84"/>
		<circle fill="#9B1515" cx="154.915" cy="81.327" r="0.84"/>
		<circle fill="#9B1515" cx="159.442" cy="79.295" r="0.624"/>
		<circle fill="#9B1515" cx="158.083" cy="73.721" r="0.657"/>
		<circle fill="#9B1515" cx="162.657" cy="69.74" r="0.381"/>
		<circle fill="#9B1515" cx="162.24" cy="66.651" r="0.381"/>
		<circle fill="#9B1515" cx="164.4" cy="65.179" r="0.381"/>
		<circle fill="#9B1515" cx="163.944" cy="60.636" r="0.288"/>
		<circle fill="#9B1515" cx="166.693" cy="58.531" r="0.288"/>
		<circle fill="#9B1515" cx="166.263" cy="55.339" r="0.288"/>
		<circle fill="#9B1515" cx="167.477" cy="53.419" r="0.173"/>
		<path fill="#9B1515" d="M168.119,50.593c-0.03,0.09-0.129,0.139-0.221,0.107c-0.09-0.031-0.137-0.128-0.105-0.218
			c0.028-0.091,0.129-0.139,0.218-0.107C168.1,50.405,168.149,50.503,168.119,50.593z"/>
		<circle opacity="0.5" fill="#9B1515" cx="169.264" cy="48.194" r="0.173"/>
		<circle opacity="0.5" fill="#9B1515" cx="168.614" cy="45.487" r="0.123"/>
		<circle opacity="0.5" fill="#9B1515" cx="170.293" cy="44.285" r="0.123"/>
		<circle opacity="0.5" fill="#9B1515" cx="170.516" cy="45.122" r="0.123"/>
		<circle opacity="0.25" fill="#9B1515" cx="169.709" cy="41.547" r="0.124"/>
		<circle opacity="0.25" fill="#9B1515" cx="171.16" cy="40.267" r="0.123"/>
		<circle opacity="0.1" fill="#9B1515" cx="170.568" cy="38.289" r="0.123"/>
	</g>
	<g>
		<circle fill="#9B1515" cx="127.319" cy="74.318" r="0.532"/>
		<circle fill="#9B1515" cx="126.798" cy="71.459" r="0.532"/>
		<circle fill="#9B1515" cx="129.89" cy="70.887" r="0.395"/>
		<circle fill="#9B1515" cx="129.888" cy="67.251" r="0.416"/>
		<circle fill="#9B1515" cx="133.301" cy="65.486" r="0.241"/>
		<circle fill="#9B1515" cx="133.505" cy="63.521" r="0.242"/>
		<circle fill="#9B1515" cx="135.057" cy="62.939" r="0.241"/>
		<circle fill="#9B1515" cx="135.456" cy="60.074" r="0.182"/>
		<circle fill="#9B1515" cx="137.463" cy="59.19" r="0.182"/>
		<circle fill="#9B1515" cx="137.677" cy="57.161" r="0.183"/>
		<circle fill="#9B1515" cx="138.712" cy="56.16" r="0.11"/>
		<circle fill="#9B1515" cx="139.438" cy="54.458" r="0.11"/>
		<circle opacity="0.5" fill="#9B1515" cx="140.595" cy="53.211" r="0.11"/>
		<circle opacity="0.5" fill="#9B1515" cx="140.6" cy="51.447" r="0.078"/>
		<circle opacity="0.5" fill="#9B1515" cx="141.814" cy="50.958" r="0.078"/>
		<circle opacity="0.5" fill="#9B1515" cx="141.826" cy="51.507" r="0.078"/>
		<circle opacity="0.25" fill="#9B1515" cx="141.864" cy="49.186" r="0.078"/>
		<circle opacity="0.25" fill="#9B1515" cx="142.949" cy="48.615" r="0.078"/>
		<circle opacity="0.1" fill="#9B1515" cx="142.881" cy="47.308" r="0.078"/>
	</g>
	<g>
		<circle fill="#9B1515" cx="94.157" cy="72.179" r="0.532"/>
		<circle fill="#9B1515" cx="93.635" cy="69.32" r="0.532"/>
		<circle fill="#9B1515" cx="96.727" cy="68.747" r="0.396"/>
		<circle fill="#9B1515" cx="96.726" cy="65.112" r="0.416"/>
		<circle fill="#9B1515" cx="100.138" cy="63.346" r="0.241"/>
		<circle fill="#9B1515" cx="100.343" cy="61.382" r="0.242"/>
		<circle fill="#9B1515" cx="101.894" cy="60.799" r="0.241"/>
		<circle fill="#9B1515" cx="102.293" cy="57.934" r="0.182"/>
		<circle fill="#9B1515" cx="104.3" cy="57.051" r="0.182"/>
		<circle fill="#9B1515" cx="104.514" cy="55.021" r="0.183"/>
		<circle fill="#9B1515" cx="105.549" cy="54.021" r="0.109"/>
		<circle fill="#9B1515" cx="106.275" cy="52.318" r="0.109"/>
		<circle opacity="0.5" fill="#9B1515" cx="107.432" cy="51.072" r="0.11"/>
		<circle opacity="0.5" fill="#9B1515" cx="107.437" cy="49.307" r="0.078"/>
		<circle opacity="0.5" fill="#9B1515" cx="108.651" cy="48.819" r="0.078"/>
		<circle opacity="0.5" fill="#9B1515" cx="108.663" cy="49.367" r="0.078"/>
		<circle opacity="0.25" fill="#9B1515" cx="108.701" cy="47.046" r="0.079"/>
		<circle opacity="0.25" fill="#9B1515" cx="109.786" cy="46.476" r="0.078"/>
		<circle opacity="0.1" fill="#9B1515" cx="109.718" cy="45.168" r="0.078"/>
	</g>
	<g>
		<circle fill="#9B1515" cx="269.751" cy="98.299" r="1.098"/>
		<circle fill="#9B1515" cx="264.357" cy="95.67" r="1.098"/>
		<circle fill="#9B1515" cx="267.183" cy="89.826" r="0.817"/>
		<circle fill="#9B1515" cx="261.131" cy="85.384" r="0.859"/>
		<circle fill="#9B1515" cx="262.363" cy="77.549" r="0.499"/>
		<circle fill="#9B1515" cx="259.345" cy="74.805" r="0.499"/>
		<circle fill="#9B1515" cx="260.272" cy="71.512" r="0.498"/>
		<circle fill="#9B1515" cx="255.991" cy="67.346" r="0.377"/>
		<circle fill="#9B1515" cx="256.976" cy="62.924" r="0.376"/>
		<circle fill="#9B1515" cx="253.857" cy="60.088" r="0.376"/>
		<circle fill="#9B1515" cx="253.459" cy="57.143" r="0.226"/>
		<circle fill="#9B1515" cx="251.513" cy="53.854" r="0.225"/>
		<circle opacity="0.5" fill="#9B1515" cx="250.852" cy="50.405" r="0.226"/>
		<circle opacity="0.5" fill="#9B1515" cx="247.923" cy="48.238" r="0.16"/>
		<circle opacity="0.5" fill="#9B1515" cx="248.595" cy="45.622" r="0.161"/>
		<circle opacity="0.5" fill="#9B1515" cx="249.521" cy="46.273" r="0.161"/>
		<circle opacity="0.25" fill="#9B1515" cx="245.704" cy="43.372" r="0.162"/>
		<circle opacity="0.25" fill="#9B1515" cx="246.082" cy="40.867" r="0.161"/>
		<circle opacity="0.1" fill="#9B1515" cx="243.823" cy="39.384" r="0.161"/>
	</g>
	<g>
		<circle fill="#9B1515" cx="225.39" cy="100.536" r="1.098"/>
		<circle fill="#9B1515" cx="220.735" cy="96.748" r="1.099"/>
		<circle fill="#9B1515" cx="224.817" cy="91.701" r="0.817"/>
		<circle fill="#9B1515" cx="219.936" cy="85.998" r="0.859"/>
		<circle fill="#9B1515" cx="222.919" cy="78.648" r="0.498"/>
		<circle fill="#9B1515" cx="220.605" cy="75.29" r="0.498"/>
		<path fill="#9B1515" d="M222.751,72.225c0.038,0.272-0.153,0.525-0.427,0.564c-0.271,0.037-0.523-0.152-0.561-0.425
			c-0.04-0.272,0.15-0.525,0.423-0.563C222.461,71.762,222.712,71.954,222.751,72.225z"/>
		<circle fill="#9B1515" cx="219.037" cy="67.263" r="0.376"/>
		<circle fill="#9B1515" cx="221.002" cy="63.181" r="0.376"/>
		<circle fill="#9B1515" cx="218.611" cy="59.71" r="0.376"/>
		<circle fill="#9B1515" cx="218.894" cy="56.751" r="0.226"/>
		<circle fill="#9B1515" cx="217.746" cy="53.106" r="0.225"/>
		<circle opacity="0.5" fill="#9B1515" cx="217.889" cy="49.597" r="0.226"/>
		<circle opacity="0.5" fill="#9B1515" cx="215.53" cy="46.821" r="0.16"/>
		<circle opacity="0.5" fill="#9B1515" cx="216.78" cy="44.426" r="0.161"/>
		<circle opacity="0.5" fill="#9B1515" cx="217.533" cy="45.271" r="0.161"/>
		<circle opacity="0.25" fill="#9B1515" cx="214.476" cy="41.577" r="0.162"/>
		<circle opacity="0.25" fill="#9B1515" cx="215.415" cy="39.225" r="0.161"/>
		<circle opacity="0.1" fill="#9B1515" cx="213.553" cy="37.266" r="0.161"/>
	</g>
	<g>
		<circle fill="#9B1515" cx="312.1" cy="87.248" r="1.098"/>
		<circle fill="#9B1515" cx="306.263" cy="85.859" r="1.099"/>
		<circle fill="#9B1515" cx="307.748" cy="79.539" r="0.818"/>
		<circle fill="#9B1515" cx="300.874" cy="76.523" r="0.859"/>
		<path fill="#9B1515" d="M300.783,68.331c0.152,0.229,0.092,0.539-0.137,0.691c-0.229,0.153-0.539,0.091-0.693-0.138
			c-0.15-0.23-0.091-0.54,0.137-0.692C300.319,68.04,300.629,68.101,300.783,68.331z"/>
		<circle fill="#9B1515" cx="296.824" cy="66.587" r="0.499"/>
		<circle fill="#9B1515" cx="297.013" cy="63.172" r="0.499"/>
		<circle fill="#9B1515" cx="291.926" cy="60.038" r="0.376"/>
		<circle fill="#9B1515" cx="291.923" cy="55.508" r="0.376"/>
		<circle fill="#9B1515" cx="288.261" cy="53.42" r="0.376"/>
		<circle fill="#9B1515" cx="287.231" cy="50.632" r="0.226"/>
		<circle fill="#9B1515" cx="284.615" cy="47.846" r="0.225"/>
		<circle opacity="0.5" fill="#9B1515" cx="283.219" cy="44.624" r="0.226"/>
		<circle opacity="0.5" fill="#9B1515" cx="279.888" cy="43.148" r="0.16"/>
		<circle opacity="0.5" fill="#9B1515" cx="279.974" cy="40.448" r="0.161"/>
		<circle opacity="0.5" fill="#9B1515" cx="281.019" cy="40.882" r="0.162"/>
		<circle opacity="0.25" fill="#9B1515" cx="276.662" cy="38.882" r="0.162"/>
		<circle opacity="0.25" fill="#9B1515" cx="276.485" cy="36.356" r="0.161"/>
		<circle opacity="0.1" fill="#9B1515" cx="273.957" cy="35.4" r="0.161"/>
	</g>
	<g>
		<circle fill="#9B1515" cx="350.612" cy="87.248" r="1.098"/>
		<circle fill="#9B1515" cx="344.775" cy="85.859" r="1.099"/>
		<circle fill="#9B1515" cx="346.259" cy="79.539" r="0.817"/>
		<circle fill="#9B1515" cx="339.385" cy="76.523" r="0.859"/>
		<circle fill="#9B1515" cx="338.88" cy="68.607" r="0.499"/>
		<circle fill="#9B1515" cx="335.336" cy="66.587" r="0.498"/>
		<circle fill="#9B1515" cx="335.524" cy="63.172" r="0.498"/>
		<circle fill="#9B1515" cx="330.438" cy="60.038" r="0.376"/>
		<circle fill="#9B1515" cx="330.435" cy="55.508" r="0.376"/>
		<circle fill="#9B1515" cx="326.774" cy="53.42" r="0.376"/>
		<circle fill="#9B1515" cx="325.743" cy="50.632" r="0.226"/>
		<circle fill="#9B1515" cx="323.127" cy="47.846" r="0.225"/>
		<circle opacity="0.5" fill="#9B1515" cx="321.73" cy="44.624" r="0.226"/>
		<circle opacity="0.5" fill="#9B1515" cx="318.401" cy="43.148" r="0.16"/>
		<circle opacity="0.5" fill="#9B1515" cx="318.485" cy="40.448" r="0.161"/>
		<circle opacity="0.5" fill="#9B1515" cx="319.53" cy="40.882" r="0.161"/>
		<circle opacity="0.25" fill="#9B1515" cx="315.173" cy="38.882" r="0.161"/>
		<circle opacity="0.25" fill="#9B1515" cx="314.997" cy="36.356" r="0.161"/>
		<circle opacity="0.1" fill="#9B1515" cx="312.469" cy="35.4" r="0.161"/>
	</g>
	<g>
		<circle fill="#9B1515" cx="394.473" cy="87.248" r="1.099"/>
		<circle fill="#9B1515" cx="388.635" cy="85.859" r="1.099"/>
		<circle fill="#9B1515" cx="390.12" cy="79.539" r="0.818"/>
		<circle fill="#9B1515" cx="383.246" cy="76.523" r="0.86"/>
		<circle fill="#9B1515" cx="382.741" cy="68.607" r="0.498"/>
		<circle fill="#9B1515" cx="379.197" cy="66.587" r="0.499"/>
		<circle fill="#9B1515" cx="379.385" cy="63.172" r="0.498"/>
		<circle fill="#9B1515" cx="374.299" cy="60.038" r="0.376"/>
		<circle fill="#9B1515" cx="374.295" cy="55.508" r="0.376"/>
		<circle fill="#9B1515" cx="370.634" cy="53.42" r="0.376"/>
		<circle fill="#9B1515" cx="369.604" cy="50.632" r="0.227"/>
		<circle fill="#9B1515" cx="366.987" cy="47.846" r="0.225"/>
		<circle opacity="0.5" fill="#9B1515" cx="365.591" cy="44.624" r="0.226"/>
		<circle opacity="0.5" fill="#9B1515" cx="362.261" cy="43.148" r="0.16"/>
		<circle opacity="0.5" fill="#9B1515" cx="362.346" cy="40.448" r="0.161"/>
		<circle opacity="0.5" fill="#9B1515" cx="363.391" cy="40.882" r="0.161"/>
		<circle opacity="0.25" fill="#9B1515" cx="359.034" cy="38.882" r="0.162"/>
		<circle opacity="0.25" fill="#9B1515" cx="358.857" cy="36.356" r="0.161"/>
		<circle opacity="0.1" fill="#9B1515" cx="356.329" cy="35.4" r="0.161"/>
	</g>
	<g>
		<circle fill="#9B1515" cx="439.912" cy="82.88" r="1.098"/>
		<circle fill="#9B1515" cx="433.929" cy="82.419" r="1.099"/>
		<circle fill="#9B1515" cx="434.409" cy="75.945" r="0.817"/>
		<circle fill="#9B1515" cx="427.149" cy="74.039" r="0.859"/>
		<circle fill="#9B1515" cx="425.414" cy="66.299" r="0.499"/>
		<circle fill="#9B1515" cx="421.598" cy="64.857" r="0.499"/>
		<circle fill="#9B1515" cx="421.25" cy="61.454" r="0.499"/>
		<circle fill="#9B1515" cx="415.738" cy="59.154" r="0.376"/>
		<circle fill="#9B1515" cx="415.027" cy="54.679" r="0.376"/>
		<circle fill="#9B1515" cx="411.083" cy="53.188" r="0.376"/>
		<circle fill="#9B1515" cx="409.631" cy="50.596" r="0.226"/>
		<circle fill="#9B1515" cx="406.612" cy="48.252" r="0.225"/>
		<path opacity="0.5" fill="#9B1515" d="M404.896,45.134c0.084,0.091,0.079,0.235-0.014,0.32c-0.091,0.084-0.233,0.079-0.317-0.013
			c-0.087-0.092-0.079-0.234,0.011-0.32C404.669,45.038,404.812,45.042,404.896,45.134z"/>
		<circle opacity="0.5" fill="#9B1515" cx="401.21" cy="44.35" r="0.161"/>
		<circle opacity="0.5" fill="#9B1515" cx="400.872" cy="41.669" r="0.161"/>
		<circle opacity="0.5" fill="#9B1515" cx="401.973" cy="41.936" r="0.161"/>
		<circle opacity="0.25" fill="#9B1515" cx="397.356" cy="40.64" r="0.162"/>
		<circle opacity="0.25" fill="#9B1515" cx="396.787" cy="38.172" r="0.161"/>
		<circle opacity="0.1" fill="#9B1515" cx="394.142" cy="37.623" r="0.161"/>
	</g>
	<g>
		<path fill="#9B1515" d="M472.812,75.716c0.412,0.445,0.383,1.14-0.063,1.553c-0.442,0.41-1.138,0.382-1.55-0.063
			c-0.411-0.445-0.385-1.14,0.062-1.551C471.707,75.243,472.401,75.269,472.812,75.716z"/>
		<circle fill="#9B1515" cx="466.022" cy="76.001" r="1.098"/>
		<circle fill="#9B1515" cx="466.502" cy="69.527" r="0.816"/>
		<circle fill="#9B1515" cx="459.241" cy="67.621" r="0.859"/>
		<circle fill="#9B1515" cx="457.507" cy="59.881" r="0.498"/>
		<circle fill="#9B1515" cx="453.691" cy="58.438" r="0.499"/>
		<circle fill="#9B1515" cx="453.344" cy="55.036" r="0.499"/>
		<circle fill="#9B1515" cx="447.831" cy="52.735" r="0.377"/>
		<circle fill="#9B1515" cx="447.12" cy="48.26" r="0.376"/>
		<circle fill="#9B1515" cx="443.177" cy="46.77" r="0.376"/>
		<circle fill="#9B1515" cx="441.725" cy="44.177" r="0.226"/>
		<circle fill="#9B1515" cx="438.705" cy="41.833" r="0.225"/>
		<path opacity="0.5" fill="#9B1515" d="M436.989,38.716c0.084,0.091,0.079,0.235-0.015,0.32c-0.09,0.084-0.234,0.079-0.317-0.013
			c-0.087-0.091-0.079-0.234,0.012-0.319C436.762,38.619,436.905,38.624,436.989,38.716z"/>
		<circle opacity="0.5" fill="#9B1515" cx="433.304" cy="37.932" r="0.161"/>
		<path opacity="0.5" fill="#9B1515" d="M433.084,35.142c0.061,0.064,0.057,0.166-0.011,0.227c-0.064,0.061-0.167,0.056-0.226-0.009
			c-0.062-0.064-0.057-0.167,0.009-0.229C432.921,35.071,433.022,35.076,433.084,35.142z"/>
		<circle opacity="0.5" fill="#9B1515" cx="434.065" cy="35.518" r="0.161"/>
		<circle opacity="0.25" fill="#9B1515" cx="429.449" cy="34.222" r="0.162"/>
		<circle opacity="0.25" fill="#9B1515" cx="428.881" cy="31.754" r="0.161"/>
		<circle opacity="0.1" fill="#9B1515" cx="426.235" cy="31.205" r="0.161"/>
	</g>
	<g>
		<circle fill="#9B1515" cx="507.308" cy="74.322" r="1.098"/>
		<circle fill="#9B1515" cx="501.325" cy="73.861" r="1.098"/>
		<circle fill="#9B1515" cx="501.804" cy="67.387" r="0.817"/>
		<circle fill="#9B1515" cx="494.544" cy="65.481" r="0.858"/>
		<circle fill="#9B1515" cx="492.809" cy="57.742" r="0.499"/>
		<circle fill="#9B1515" cx="488.994" cy="56.299" r="0.499"/>
		<circle fill="#9B1515" cx="488.646" cy="52.896" r="0.499"/>
		<circle fill="#9B1515" cx="483.132" cy="50.595" r="0.376"/>
		<circle fill="#9B1515" cx="482.423" cy="46.121" r="0.376"/>
		<circle fill="#9B1515" cx="478.479" cy="44.631" r="0.376"/>
		<circle fill="#9B1515" cx="477.027" cy="42.038" r="0.227"/>
		<circle fill="#9B1515" cx="474.007" cy="39.694" r="0.225"/>
		<path opacity="0.5" fill="#9B1515" d="M472.291,36.577c0.085,0.091,0.079,0.234-0.014,0.319c-0.091,0.084-0.233,0.079-0.317-0.013
			c-0.087-0.091-0.08-0.234,0.012-0.319C472.064,36.479,472.208,36.484,472.291,36.577z"/>
		<circle opacity="0.5" fill="#9B1515" cx="468.605" cy="35.792" r="0.161"/>
		<circle opacity="0.5" fill="#9B1515" cx="468.268" cy="33.112" r="0.161"/>
		<circle opacity="0.5" fill="#9B1515" cx="469.368" cy="33.378" r="0.161"/>
		<circle opacity="0.25" fill="#9B1515" cx="464.752" cy="32.082" r="0.162"/>
		<circle opacity="0.25" fill="#9B1515" cx="464.183" cy="29.614" r="0.161"/>
		<circle opacity="0.1" fill="#9B1515" cx="461.537" cy="29.065" r="0.161"/>
	</g>
	<g>
		<circle fill="#9B1515" cx="555.541" cy="62.784" r="1.098"/>
		<circle fill="#9B1515" cx="549.564" cy="63.312" r="1.099"/>
		<circle fill="#9B1515" cx="548.975" cy="56.847" r="0.817"/>
		<circle fill="#9B1515" cx="541.5" cy="56.158" r="0.859"/>
		<circle fill="#9B1515" cx="538.519" cy="48.808" r="0.499"/>
		<circle fill="#9B1515" cx="534.518" cy="48.011" r="0.499"/>
		<circle fill="#9B1515" cx="533.617" cy="44.712" r="0.499"/>
		<circle fill="#9B1515" cx="527.802" cy="43.347" r="0.377"/>
		<circle fill="#9B1515" cx="526.366" cy="39.05" r="0.377"/>
		<circle fill="#9B1515" cx="522.232" cy="38.226" r="0.376"/>
		<circle fill="#9B1515" cx="520.374" cy="35.907" r="0.227"/>
		<circle fill="#9B1515" cx="517.011" cy="34.091" r="0.225"/>
		<path opacity="0.5" fill="#9B1515" d="M514.807,31.297c0.098,0.076,0.116,0.219,0.038,0.317c-0.075,0.099-0.217,0.116-0.315,0.039
			c-0.101-0.075-0.116-0.217-0.041-0.316C514.566,31.239,514.709,31.22,514.807,31.297z"/>
		<circle opacity="0.5" fill="#9B1515" cx="511.042" cy="31.128" r="0.16"/>
		<circle opacity="0.5" fill="#9B1515" cx="510.269" cy="28.539" r="0.161"/>
		<circle opacity="0.5" fill="#9B1515" cx="511.397" cy="28.621" r="0.16"/>
		<circle opacity="0.25" fill="#9B1515" cx="506.631" cy="28.101" r="0.162"/>
		<circle opacity="0.25" fill="#9B1515" cx="505.666" cy="25.759" r="0.161"/>
		<path opacity="0.1" fill="#9B1515" d="M503.063,25.524c0.07,0.054,0.083,0.155,0.031,0.225c-0.058,0.071-0.158,0.084-0.229,0.03
			s-0.083-0.157-0.028-0.227C502.894,25.482,502.993,25.47,503.063,25.524z"/>
	</g>
	<g>
		<circle fill="#9B1515" cx="596.2" cy="49.539" r="1.098"/>
		<circle fill="#9B1515" cx="590.346" cy="50.853" r="1.099"/>
		<circle fill="#9B1515" cx="588.906" cy="44.522" r="0.817"/>
		<circle fill="#9B1515" cx="581.407" cy="44.828" r="0.859"/>
		<circle fill="#9B1515" cx="577.479" cy="37.937" r="0.498"/>
		<circle fill="#9B1515" cx="573.408" cy="37.676" r="0.499"/>
		<circle fill="#9B1515" cx="572.078" cy="34.525" r="0.499"/>
		<circle fill="#9B1515" cx="566.133" cy="33.941" r="0.376"/>
		<circle fill="#9B1515" cx="564.142" cy="29.872" r="0.377"/>
		<circle fill="#9B1515" cx="559.936" cy="29.602" r="0.376"/>
		<circle fill="#9B1515" cx="557.787" cy="27.549" r="0.227"/>
		<circle fill="#9B1515" cx="554.213" cy="26.194" r="0.225"/>
		<circle opacity="0.5" fill="#9B1515" cx="551.544" cy="23.911" r="0.225"/>
		<circle opacity="0.5" fill="#9B1515" cx="547.905" cy="24.046" r="0.16"/>
		<path opacity="0.5" fill="#9B1515" d="M546.877,21.442c0.077,0.045,0.103,0.143,0.058,0.221c-0.044,0.078-0.144,0.104-0.219,0.058
			c-0.079-0.044-0.104-0.145-0.059-0.221C546.699,21.423,546.799,21.398,546.877,21.442z"/>
		<circle opacity="0.5" fill="#9B1515" cx="547.925" cy="21.515" r="0.16"/>
		<circle opacity="0.25" fill="#9B1515" cx="543.132" cy="21.629" r="0.162"/>
		<circle opacity="0.25" fill="#9B1515" cx="541.865" cy="19.436" r="0.161"/>
		<path opacity="0.1" fill="#9B1515" d="M539.255,19.546c0.077,0.044,0.103,0.143,0.062,0.22c-0.048,0.078-0.146,0.104-0.224,0.06
			c-0.076-0.045-0.104-0.144-0.057-0.222C539.082,19.527,539.178,19.502,539.255,19.546z"/>
	</g>
	<g>
		<circle fill="#9B1515" cx="664.665" cy="49.539" r="1.098"/>
		<path fill="#9B1515" d="M659.364,49.903c0.524,0.305,0.701,0.979,0.395,1.503c-0.303,0.524-0.978,0.7-1.502,0.396
			c-0.524-0.306-0.699-0.978-0.396-1.502C658.167,49.775,658.839,49.598,659.364,49.903z"/>
		<circle fill="#9B1515" cx="657.371" cy="44.522" r="0.817"/>
		<circle fill="#9B1515" cx="649.872" cy="44.828" r="0.859"/>
		<circle fill="#9B1515" cx="645.944" cy="37.937" r="0.499"/>
		<circle fill="#9B1515" cx="641.874" cy="37.676" r="0.499"/>
		<circle fill="#9B1515" cx="640.543" cy="34.525" r="0.499"/>
		<circle fill="#9B1515" cx="634.599" cy="33.941" r="0.377"/>
		<circle fill="#9B1515" cx="632.608" cy="29.872" r="0.377"/>
		<circle fill="#9B1515" cx="628.401" cy="29.602" r="0.377"/>
		<circle fill="#9B1515" cx="626.252" cy="27.549" r="0.226"/>
		<circle fill="#9B1515" cx="622.679" cy="26.194" r="0.225"/>
		<circle opacity="0.5" fill="#9B1515" cx="620.01" cy="23.911" r="0.226"/>
		<circle opacity="0.5" fill="#9B1515" cx="616.37" cy="24.046" r="0.16"/>
		<circle opacity="0.5" fill="#9B1515" cx="615.261" cy="21.582" r="0.161"/>
		<circle opacity="0.5" fill="#9B1515" cx="616.39" cy="21.515" r="0.16"/>
		<circle opacity="0.25" fill="#9B1515" cx="611.598" cy="21.629" r="0.162"/>
		<circle opacity="0.25" fill="#9B1515" cx="610.331" cy="19.436" r="0.162"/>
		<path opacity="0.1" fill="#9B1515" d="M607.721,19.546c0.077,0.044,0.102,0.143,0.061,0.22c-0.047,0.078-0.146,0.104-0.223,0.06
			c-0.076-0.045-0.104-0.144-0.058-0.222C607.547,19.527,607.644,19.502,607.721,19.546z"/>
	</g>
</g>
</svg>
