<?xml version="1.0" encoding="utf-8"?>
<!-- Generator: Adobe Illustrator 16.0.0, SVG Export Plug-In . SVG Version: 6.00 Build 0)  -->
<!DOCTYPE svg PUBLIC "-//W3C//DTD SVG 1.1//EN" "http://www.w3.org/Graphics/SVG/1.1/DTD/svg11.dtd">
<svg version="1.1" id="Layer_1" xmlns="http://www.w3.org/2000/svg" xmlns:xlink="http://www.w3.org/1999/xlink" x="0px" y="0px"
	 width="2171px" height="371px" viewBox="0 0 2171 371" enable-background="new 0 0 2171 371" xml:space="preserve">
<g>
	<g>
		<linearGradient id="SVGID_1_" gradientUnits="userSpaceOnUse" x1="610.7881" y1="379.1035" x2="610.7881" y2="9.3662">
			<stop  offset="0" style="stop-color:#6C8D30"/>
			<stop  offset="0.2614" style="stop-color:#71932F"/>
			<stop  offset="0.6045" style="stop-color:#81A32D"/>
			<stop  offset="0.9918" style="stop-color:#9ABE29"/>
			<stop  offset="1" style="stop-color:#9BBF29"/>
		</linearGradient>
		<path fill="url(#SVGID_1_)" d="M15.808,51.083c0,0,128.294-42.568,187.07-41.704c58.777,0.864,186.024,20.636,303.573,56.074
			C624.003,100.893,720.039,98.247,796.1,92.195c76.062-6.052,125-21.978,168.352-21.639
			c89.885,0.704,257.547,53.454,257.547,53.454L1162.922,371L0,379.104L-0.421,63.033L15.808,51.083z"/>
		<g opacity="0.3">
			<linearGradient id="SVGID_2_" gradientUnits="userSpaceOnUse" x1="200.4556" y1="276.9951" x2="200.4556" y2="29.8735">
				<stop  offset="0" style="stop-color:#5B7521"/>
				<stop  offset="1" style="stop-color:#6C8D30"/>
			</linearGradient>
			<path fill="url(#SVGID_2_)" d="M0,276.995c0-1.943,104.268-101.446,194.377-146.824c90.107-45.378,206.534-91.99,206.534-91.99
				l-39.345-8.308c0,0-193.311,48.437-260.082,95.112C34.713,171.66,0,198.556,0,198.556V276.995z"/>
			<linearGradient id="SVGID_3_" gradientUnits="userSpaceOnUse" x1="243.2241" y1="377.8857" x2="243.2241" y2="43.0767">
				<stop  offset="0" style="stop-color:#5B7521"/>
				<stop  offset="1" style="stop-color:#6C8D30"/>
			</linearGradient>
			<path fill="url(#SVGID_3_)" d="M423.001,43.076l18.591,9.303c0,0-90.757,51.861-145.859,112.798
				c-55.103,60.937-163.987,211.201-163.987,211.201l-86.891,1.507c0,0,134.191-173.813,204.851-226.971
				C341.374,81.954,423.001,43.076,423.001,43.076z"/>
			<linearGradient id="SVGID_4_" gradientUnits="userSpaceOnUse" x1="377.5063" y1="373.5938" x2="377.5063" y2="54.4917">
				<stop  offset="0" style="stop-color:#5B7521"/>
				<stop  offset="1" style="stop-color:#6C8D30"/>
			</linearGradient>
			<path fill="url(#SVGID_4_)" d="M468.126,54.491l11.245,3.08c0,0-48.15,66.117-67.598,107.607
				c-19.449,41.488-72.611,207.188-72.611,207.188l-63.52,1.229c0,0,56.394-153.963,97.882-207.12
				C415.013,113.316,468.126,54.491,468.126,54.491z"/>
			<linearGradient id="SVGID_5_" gradientUnits="userSpaceOnUse" x1="493.9189" y1="369" x2="493.9189" y2="60.501">
				<stop  offset="0" style="stop-color:#5B7521"/>
				<stop  offset="1" style="stop-color:#6C8D30"/>
			</linearGradient>
			<path fill="url(#SVGID_5_)" d="M491.23,60.5c0,0,13.568,68.877,3.844,140.835C485.35,273.293,463.021,369,463.021,369h60.9
				c0,0,3.891-166.737-4.538-216.006c-8.426-49.268-12.8-87.473-12.8-87.473L491.23,60.5z"/>
			<linearGradient id="SVGID_6_" gradientUnits="userSpaceOnUse" x1="584.9062" y1="367.4395" x2="584.9062" y2="72.7373">
				<stop  offset="0" style="stop-color:#5B7521"/>
				<stop  offset="1" style="stop-color:#6C8D30"/>
			</linearGradient>
			<path fill="url(#SVGID_6_)" d="M593.609,367.439l43.754-0.848c0,0-6.479-95.1-33.057-167.705
				c-26.58-72.605-55.873-122.151-55.873-122.151l-15.984-3.999c0,0,48.519,104.109,58.242,176.066
				C600.416,320.76,593.609,367.439,593.609,367.439z"/>
			<linearGradient id="SVGID_7_" gradientUnits="userSpaceOnUse" x1="676.1191" y1="365.6016" x2="676.1191" y2="85.9248">
				<stop  offset="0" style="stop-color:#5B7521"/>
				<stop  offset="1" style="stop-color:#6C8D30"/>
			</linearGradient>
			<path fill="url(#SVGID_7_)" d="M593.609,85.924l21.092,3.239c0,0,41.467,31.465,68.044,70.27
				c26.579,38.806,73.33,139.387,75.885,204.811l-70.061,1.357C688.569,365.602,716.455,230.652,593.609,85.924z"/>
			<linearGradient id="SVGID_8_" gradientUnits="userSpaceOnUse" x1="777.7148" y1="364" x2="777.7148" y2="94.0005">
				<stop  offset="0" style="stop-color:#5B7521"/>
				<stop  offset="1" style="stop-color:#6C8D30"/>
			</linearGradient>
			<path fill="url(#SVGID_8_)" d="M655.519,94c0,0,93.998,78.98,121.874,126.496C805.268,268.012,839.017,332,838.349,364h61.563
				c0,0-21.392-92.084-101.128-167.281C719.048,121.52,676.121,94,676.121,94H655.519z"/>
			<linearGradient id="SVGID_9_" gradientUnits="userSpaceOnUse" x1="866.6855" y1="360.4551" x2="866.6855" y2="95.2568">
				<stop  offset="0" style="stop-color:#5B7521"/>
				<stop  offset="1" style="stop-color:#6C8D30"/>
			</linearGradient>
			<path fill="url(#SVGID_9_)" d="M719.37,95.809l25.601-0.552c0,0,59.325,30.053,106.972,69.272
				c47.646,39.221,136.12,109.496,162.058,194.772l-59.636,1.154c0,0-25.604-87.343-78.112-139.527
				C823.742,168.743,750.808,115.575,719.37,95.809z"/>
			<linearGradient id="SVGID_10_" gradientUnits="userSpaceOnUse" x1="960.0244" y1="358.1943" x2="960.0244" y2="91.167">
				<stop  offset="0" style="stop-color:#5B7521"/>
				<stop  offset="1" style="stop-color:#6C8D30"/>
			</linearGradient>
			<path fill="url(#SVGID_10_)" d="M791.278,92.577l16.632-1.411c0,0,65.425,27.66,114.691,62.017
				c49.269,34.359,156.271,108.291,206.169,203.895l-57.706,1.116c0,0-60.299-102.585-125.448-159.632
				C880.465,141.516,791.278,93.869,791.278,93.869"/>
			<linearGradient id="SVGID_11_" gradientUnits="userSpaceOnUse" x1="1002.5195" y1="315.7705" x2="1002.5195" y2="84.5142">
				<stop  offset="0" style="stop-color:#5B7521"/>
				<stop  offset="1" style="stop-color:#6C8D30"/>
			</linearGradient>
			<path fill="url(#SVGID_11_)" d="M845.04,86.98l18.253-2.467c0,0,65.468,14.865,155.251,70.291
				C1108.33,210.231,1160,258.717,1160,258.717l-0.266,57.054c0,0-71.501-83.822-150.589-137.629
				C930.058,124.337,847.551,86.661,845.04,86.98z"/>
			<linearGradient id="SVGID_12_" gradientUnits="userSpaceOnUse" x1="1042.7832" y1="189.4121" x2="1042.7832" y2="70.5566">
				<stop  offset="0" style="stop-color:#5B7521"/>
				<stop  offset="1" style="stop-color:#6C8D30"/>
			</linearGradient>
			<path fill="url(#SVGID_12_)" d="M925.566,74.44l20.576-3.884c0,0,124.25,8.925,213.857,78.977v39.879
				C1160,189.412,1043.227,104.584,925.566,74.44z"/>
		</g>
	</g>
	<g>
		<circle fill="#9B1515" cx="508.744" cy="300.471" r="3.74"/>
		<circle fill="#9B1515" cx="494.837" cy="285.494" r="3.74"/>
		<circle fill="#9B1515" cx="510.995" cy="270.407" r="2.782"/>
		<circle fill="#9B1515" cx="497.235" cy="248.865" r="2.929"/>
		<circle fill="#9B1515" cx="510.774" cy="225.49" r="1.699"/>
		<circle fill="#9B1515" cx="504.562" cy="213.067" r="1.699"/>
		<circle fill="#9B1515" cx="511.551" cy="203.751" r="1.699"/>
		<circle fill="#9B1515" cx="503.075" cy="185.256" r="1.281"/>
		<circle fill="#9B1515" cx="511.634" cy="172.418" r="1.281"/>
		<circle fill="#9B1515" cx="505.215" cy="159.581" r="1.281"/>
		<circle fill="#9B1515" cx="507.57" cy="149.738" r="0.769"/>
		<circle fill="#9B1515" cx="505.43" cy="136.9" r="0.769"/>
		<circle opacity="0.5" fill="#9B1515" cx="507.57" cy="125.133" r="0.769"/>
		<circle opacity="0.5" fill="#9B1515" cx="500.93" cy="114.657" r="0.548"/>
		<circle opacity="0.5" fill="#9B1515" cx="506.279" cy="107.168" r="0.548"/>
		<circle opacity="0.5" fill="#9B1515" cx="508.419" cy="110.377" r="0.549"/>
		<circle opacity="0.25" fill="#9B1515" cx="499.86" cy="96.471" r="0.548"/>
		<circle opacity="0.25" fill="#9B1515" cx="504.14" cy="88.982" r="0.549"/>
		<circle opacity="0.1" fill="#9B1515" cx="498.791" cy="81.494" r="0.549"/>
	</g>
	<g>
		<circle fill="#9B1515" cx="339.059" cy="284.141" r="3.74"/>
		<circle fill="#9B1515" cx="334.371" cy="264.247" r="3.74"/>
		<circle fill="#9B1515" cx="355.875" cy="259.118" r="2.782"/>
		<circle fill="#9B1515" cx="354.56" cy="233.589" r="2.929"/>
		<circle fill="#9B1515" cx="377.883" cy="219.961" r="1.698"/>
		<circle fill="#9B1515" cx="378.623" cy="206.092" r="1.699"/>
		<circle fill="#9B1515" cx="389.303" cy="201.446" r="1.698"/>
		<circle fill="#9B1515" cx="391.076" cy="181.18" r="1.281"/>
		<circle fill="#9B1515" cx="404.861" cy="174.25" r="1.281"/>
		<circle fill="#9B1515" cx="405.625" cy="159.918" r="1.281"/>
		<circle fill="#9B1515" cx="412.538" cy="152.525" r="0.77"/>
		<circle fill="#9B1515" cx="417.023" cy="140.308" r="0.77"/>
		<circle opacity="0.5" fill="#9B1515" cx="424.699" cy="131.135" r="0.769"/>
		<circle opacity="0.5" fill="#9B1515" cx="424.105" cy="118.746" r="0.549"/>
		<circle opacity="0.5" fill="#9B1515" cx="432.456" cy="114.88" r="0.549"/>
		<circle opacity="0.5" fill="#9B1515" cx="432.73" cy="118.728" r="0.549"/>
		<circle opacity="0.25" fill="#9B1515" cx="432.164" cy="102.408" r="0.549"/>
		<circle opacity="0.25" fill="#9B1515" cx="439.584" cy="98.013" r="0.549"/>
		<circle opacity="0.1" fill="#9B1515" cx="438.635" cy="88.86" r="0.549"/>
	</g>
	<g>
		<circle fill="#9B1515" cx="196.814" cy="239.802" r="3.74"/>
		<circle fill="#9B1515" cx="198.269" cy="219.416" r="3.741"/>
		<circle fill="#9B1515" cx="220.323" cy="220.928" r="2.782"/>
		<circle fill="#9B1515" cx="226.677" cy="196.168" r="2.929"/>
		<circle fill="#9B1515" cx="253.002" cy="190.111" r="1.698"/>
		<circle fill="#9B1515" cx="257.842" cy="177.093" r="1.699"/>
		<circle fill="#9B1515" cx="269.421" cy="175.841" r="1.699"/>
		<circle fill="#9B1515" cx="277.155" cy="157.024" r="1.281"/>
		<circle fill="#9B1515" cx="292.378" cy="154.518" r="1.281"/>
		<circle fill="#9B1515" cx="297.38" cy="141.066" r="1.281"/>
		<circle fill="#9B1515" cx="306.182" cy="136.069" r="0.769"/>
		<circle fill="#9B1515" cx="314.104" cy="125.744" r="0.77"/>
		<circle opacity="0.5" fill="#9B1515" cx="324.165" cy="119.276" r="0.77"/>
		<circle opacity="0.5" fill="#9B1515" cx="327.29" cy="107.273" r="0.549"/>
		<circle opacity="0.5" fill="#9B1515" cx="336.415" cy="106.071" r="0.549"/>
		<circle opacity="0.5" fill="#9B1515" cx="335.529" cy="109.825" r="0.548"/>
		<circle opacity="0.25" fill="#9B1515" cx="339.852" cy="94.079" r="0.548"/>
		<circle opacity="0.25" fill="#9B1515" cx="348.246" cy="92.096" r="0.549"/>
		<circle opacity="0.1" fill="#9B1515" cx="350.068" cy="83.075" r="0.548"/>
	</g>
	<g>
		<circle fill="#9B1515" cx="127.943" cy="153.254" r="3.74"/>
		<circle fill="#9B1515" cx="134.929" cy="134.048" r="3.741"/>
		<circle fill="#9B1515" cx="155.726" cy="141.547" r="2.782"/>
		<circle fill="#9B1515" cx="168.622" cy="119.477" r="2.929"/>
		<circle fill="#9B1515" cx="195.599" cy="120.867" r="1.698"/>
		<circle fill="#9B1515" cx="203.822" cy="109.674" r="1.699"/>
		<circle fill="#9B1515" cx="215.301" cy="111.645" r="1.698"/>
		<circle fill="#9B1515" cx="227.895" cy="95.668" r="1.281"/>
		<circle fill="#9B1515" cx="243.223" cy="97.43" r="1.281"/>
		<circle fill="#9B1515" cx="251.72" cy="85.864" r="1.281"/>
		<circle fill="#9B1515" cx="261.555" cy="83.47" r="0.769"/>
		<circle fill="#9B1515" cx="272.003" cy="75.712" r="0.77"/>
		<circle opacity="0.5" fill="#9B1515" cx="283.452" cy="72.25" r="0.769"/>
		<circle opacity="0.5" fill="#9B1515" cx="289.748" cy="61.563" r="0.549"/>
		<path opacity="0.5" fill="#9B1515" d="M299.103,63.397c-0.271,0.137-0.602,0.031-0.741-0.238c-0.137-0.27-0.032-0.601,0.24-0.739
			c0.268-0.139,0.6-0.032,0.737,0.238C299.479,62.927,299.371,63.258,299.103,63.397z"/>
		<circle opacity="0.5" fill="#9B1515" cx="296.971" cy="66.276" r="0.548"/>
		<circle opacity="0.25" fill="#9B1515" cx="305.446" cy="52.318" r="0.548"/>
		<circle opacity="0.25" fill="#9B1515" cx="314.061" cy="52.711" r="0.548"/>
		<circle opacity="0.1" fill="#9B1515" cx="318.286" cy="44.536" r="0.548"/>
	</g>
	<g>
		<circle fill="#9B1515" cx="618.672" cy="307.802" r="3.74"/>
		<circle fill="#9B1515" cx="604.801" cy="288.886" r="3.741"/>
		<circle fill="#9B1515" cx="612.472" cy="272.525" r="2.782"/>
		<circle fill="#9B1515" cx="602.7" cy="257.324" r="2.929"/>
		<circle fill="#9B1515" cx="608.308" cy="230.899" r="1.699"/>
		<circle fill="#9B1515" cx="598.544" cy="221.021" r="1.699"/>
		<circle fill="#9B1515" cx="602.292" cy="209.995" r="1.699"/>
		<circle fill="#9B1515" cx="588.49" cy="195.047" r="1.281"/>
		<circle fill="#9B1515" cx="592.637" cy="180.188" r="1.282"/>
		<circle fill="#9B1515" cx="582.547" cy="169.979" r="1.282"/>
		<circle fill="#9B1515" cx="581.729" cy="159.891" r="0.77"/>
		<circle fill="#9B1515" cx="575.706" cy="148.354" r="0.77"/>
		<circle opacity="0.5" fill="#9B1515" cx="574.084" cy="136.504" r="0.77"/>
		<circle opacity="0.5" fill="#9B1515" cx="564.518" cy="128.608" r="0.549"/>
		<circle opacity="0.5" fill="#9B1515" cx="567.276" cy="119.829" r="0.548"/>
		<circle opacity="0.5" fill="#9B1515" cx="570.307" cy="122.215" r="0.548"/>
		<circle opacity="0.25" fill="#9B1515" cx="557.852" cy="111.655" r="0.549"/>
		<circle opacity="0.25" fill="#9B1515" cx="559.592" cy="103.208" r="0.548"/>
		<circle opacity="0.1" fill="#9B1515" cx="552.181" cy="97.751" r="0.548"/>
	</g>
	<g>
		<circle fill="#9B1515" cx="731.968" cy="312.029" r="3.74"/>
		<circle fill="#9B1515" cx="713.158" cy="304.035" r="3.74"/>
		<circle fill="#9B1515" cx="721.748" cy="283.665" r="2.782"/>
		<circle fill="#9B1515" cx="700.391" cy="269.618" r="2.929"/>
		<circle fill="#9B1515" cx="703.207" cy="242.752" r="1.7"/>
		<circle fill="#9B1515" cx="692.464" cy="233.949" r="1.698"/>
		<circle fill="#9B1515" cx="695.039" cy="222.591" r="1.699"/>
		<circle fill="#9B1515" cx="679.751" cy="209.168" r="1.281"/>
		<circle fill="#9B1515" cx="682.323" cy="193.956" r="1.282"/>
		<circle fill="#9B1515" cx="671.222" cy="184.857" r="1.282"/>
		<circle fill="#9B1515" cx="669.353" cy="174.912" r="0.77"/>
		<circle fill="#9B1515" cx="662.158" cy="164.066" r="0.77"/>
		<circle opacity="0.5" fill="#9B1515" cx="659.307" cy="152.451" r="0.77"/>
		<circle opacity="0.5" fill="#9B1515" cx="648.968" cy="145.598" r="0.549"/>
		<circle opacity="0.5" fill="#9B1515" cx="650.793" cy="136.578" r="0.548"/>
		<circle opacity="0.5" fill="#9B1515" cx="654.057" cy="138.634" r="0.549"/>
		<circle opacity="0.25" fill="#9B1515" cx="640.566" cy="129.434" r="0.548"/>
		<circle opacity="0.25" fill="#9B1515" cx="641.415" cy="120.85" r="0.549"/>
		<circle opacity="0.1" fill="#9B1515" cx="633.475" cy="116.199" r="0.549"/>
	</g>
	<g>
		<path fill="#9B1515" d="M853.193,283.896c1.303,1.604,1.059,3.96-0.543,5.261c-1.604,1.304-3.959,1.061-5.264-0.544
			c-1.301-1.604-1.057-3.96,0.545-5.262C849.536,282.048,851.892,282.291,853.193,283.896z"/>
		<circle fill="#9B1515" cx="830.053" cy="283.397" r="3.74"/>
		<circle fill="#9B1515" cx="833.082" cy="261.498" r="2.782"/>
		<circle fill="#9B1515" cx="808.819" cy="253.453" r="2.929"/>
		<circle fill="#9B1515" cx="804.59" cy="226.774" r="1.699"/>
		<circle fill="#9B1515" cx="791.937" cy="221.047" r="1.698"/>
		<circle fill="#9B1515" cx="791.486" cy="209.411" r="1.699"/>
		<path fill="#9B1515" d="M774.24,199.591c0.449,0.549,0.364,1.356-0.188,1.804c-0.547,0.446-1.354,0.361-1.801-0.188
			s-0.362-1.357,0.187-1.803C772.988,198.957,773.796,199.043,774.24,199.591z"/>
		<circle fill="#9B1515" cx="771.795" cy="185.039" r="1.282"/>
		<circle fill="#9B1515" cx="758.719" cy="179.123" r="1.282"/>
		<circle fill="#9B1515" cx="754.342" cy="169.997" r="0.77"/>
		<circle fill="#9B1515" cx="744.586" cy="161.382" r="0.769"/>
		<circle opacity="0.5" fill="#9B1515" cx="738.828" cy="150.898" r="0.77"/>
		<circle opacity="0.5" fill="#9B1515" cx="727.069" cy="146.953" r="0.549"/>
		<circle opacity="0.5" fill="#9B1515" cx="726.499" cy="137.769" r="0.548"/>
		<circle opacity="0.5" fill="#9B1515" cx="730.183" cy="138.91" r="0.548"/>
		<circle opacity="0.25" fill="#9B1515" cx="714.772" cy="133.512" r="0.548"/>
		<circle opacity="0.25" fill="#9B1515" cx="713.371" cy="125.002" r="0.548"/>
		<circle opacity="0.1" fill="#9B1515" cx="704.498" cy="122.562" r="0.549"/>
	</g>
	<g>
		<circle fill="#9B1515" cx="956.938" cy="275.895" r="3.74"/>
		<circle fill="#9B1515" cx="936.51" cy="276.522" r="3.74"/>
		<circle fill="#9B1515" cx="935.769" cy="254.427" r="2.782"/>
		<circle fill="#9B1515" cx="910.491" cy="250.628" r="2.929"/>
		<circle fill="#9B1515" cx="901.785" cy="225.056" r="1.699"/>
		<circle fill="#9B1515" cx="888.342" cy="221.566" r="1.699"/>
		<circle fill="#9B1515" cx="885.917" cy="210.176" r="1.699"/>
		<path fill="#9B1515" d="M867.253,203.434c0.534,0.465,0.591,1.273,0.122,1.81c-0.463,0.531-1.272,0.587-1.807,0.12
			c-0.532-0.465-0.588-1.273-0.122-1.807C865.911,203.023,866.721,202.968,867.253,203.434z"/>
		<path fill="#9B1515" d="M863.211,188.545c0.532,0.465,0.589,1.273,0.123,1.809c-0.466,0.53-1.275,0.586-1.811,0.121
			c-0.53-0.466-0.586-1.273-0.119-1.808C861.868,188.133,862.678,188.078,863.211,188.545z"/>
		<circle fill="#9B1515" cx="848.475" cy="185.903" r="1.281"/>
		<circle fill="#9B1515" cx="842.609" cy="177.655" r="0.77"/>
		<path fill="#9B1515" d="M832.037,170.246c0.319,0.28,0.354,0.766,0.073,1.086c-0.278,0.32-0.766,0.354-1.085,0.074
			c-0.32-0.279-0.354-0.766-0.075-1.086C831.232,170.001,831.717,169.967,832.037,170.246z"/>
		<circle opacity="0.5" fill="#9B1515" cx="824.073" cy="161.476" r="0.771"/>
		<circle opacity="0.5" fill="#9B1515" cx="811.813" cy="159.588" r="0.549"/>
		<path opacity="0.5" fill="#9B1515" d="M810.051,150.221c0.229,0.201,0.251,0.548,0.052,0.774
			c-0.198,0.229-0.545,0.252-0.773,0.053s-0.253-0.545-0.051-0.774C809.475,150.045,809.821,150.021,810.051,150.221z"/>
		<circle opacity="0.5" fill="#9B1515" cx="813.514" cy="151.133" r="0.549"/>
		<circle opacity="0.25" fill="#9B1515" cx="797.409" cy="148.436" r="0.548"/>
		<circle opacity="0.25" fill="#9B1515" cx="794.582" cy="140.287" r="0.548"/>
		<circle opacity="0.1" fill="#9B1515" cx="785.422" cy="139.393" r="0.549"/>
	</g>
	<g>
		<circle fill="#9B1515" cx="1037.171" cy="266.267" r="3.74"/>
		<circle fill="#9B1515" cx="1016.743" cy="266.894" r="3.74"/>
		<circle fill="#9B1515" cx="1016.002" cy="244.799" r="2.782"/>
		<circle fill="#9B1515" cx="990.724" cy="241" r="2.93"/>
		<circle fill="#9B1515" cx="982.018" cy="215.428" r="1.699"/>
		<circle fill="#9B1515" cx="968.575" cy="211.938" r="1.698"/>
		<circle fill="#9B1515" cx="966.15" cy="200.548" r="1.699"/>
		<circle fill="#9B1515" cx="946.644" cy="194.77" r="1.281"/>
		<path fill="#9B1515" d="M943.443,178.916c0.533,0.466,0.59,1.274,0.123,1.81c-0.466,0.53-1.274,0.587-1.81,0.121
			c-0.531-0.466-0.586-1.274-0.12-1.808C942.101,178.505,942.91,178.45,943.443,178.916z"/>
		<circle fill="#9B1515" cx="928.708" cy="176.275" r="1.281"/>
		<circle fill="#9B1515" cx="922.843" cy="168.027" r="0.77"/>
		<circle fill="#9B1515" cx="911.764" cy="161.198" r="0.77"/>
		<circle opacity="0.5" fill="#9B1515" cx="904.306" cy="151.848" r="0.77"/>
		<path opacity="0.5" fill="#9B1515" d="M892.407,149.547c0.228,0.199,0.252,0.546,0.055,0.775
			c-0.201,0.228-0.548,0.251-0.777,0.052c-0.227-0.2-0.251-0.547-0.053-0.774C891.831,149.372,892.18,149.347,892.407,149.547z"/>
		<path opacity="0.5" fill="#9B1515" d="M890.283,140.592c0.229,0.201,0.252,0.548,0.052,0.775
			c-0.197,0.228-0.544,0.252-0.773,0.053c-0.228-0.199-0.253-0.545-0.051-0.774C889.707,140.417,890.055,140.394,890.283,140.592z"
			/>
		<circle opacity="0.5" fill="#9B1515" cx="893.747" cy="141.505" r="0.548"/>
		<circle opacity="0.25" fill="#9B1515" cx="877.642" cy="138.808" r="0.548"/>
		<circle opacity="0.25" fill="#9B1515" cx="874.814" cy="130.659" r="0.549"/>
		<circle opacity="0.1" fill="#9B1515" cx="865.655" cy="129.765" r="0.549"/>
	</g>
	<g>
		<circle fill="#9B1515" cx="1131.788" cy="238.669" r="3.74"/>
		<path fill="#9B1515" d="M1113.693,239.224c1.744,1.108,2.262,3.419,1.154,5.163s-3.419,2.26-5.163,1.152s-2.26-3.418-1.154-5.16
			C1109.64,238.632,1111.95,238.116,1113.693,239.224z"/>
		<circle fill="#9B1515" cx="1107.614" cy="220.653" r="2.782"/>
		<circle fill="#9B1515" cx="1082.051" cy="220.722" r="2.929"/>
		<circle fill="#9B1515" cx="1069.576" cy="196.763" r="1.699"/>
		<circle fill="#9B1515" cx="1055.759" cy="195.348" r="1.698"/>
		<circle fill="#9B1515" cx="1051.639" cy="184.455" r="1.699"/>
		<path fill="#9B1515" d="M1032.17,180.615c0.599,0.377,0.775,1.169,0.395,1.77c-0.378,0.596-1.171,0.773-1.768,0.393
			c-0.597-0.379-0.774-1.171-0.395-1.768C1030.781,180.412,1031.573,180.235,1032.17,180.615z"/>
		<circle fill="#9B1515" cx="1025.233" cy="167.589" r="1.282"/>
		<circle fill="#9B1515" cx="1010.955" cy="166.128" r="1.281"/>
		<circle fill="#9B1515" cx="1003.909" cy="158.862" r="0.769"/>
		<circle fill="#9B1515" cx="991.924" cy="153.789" r="0.769"/>
		<circle opacity="0.5" fill="#9B1515" cx="983.138" cy="145.674" r="0.77"/>
		<circle opacity="0.5" fill="#9B1515" cx="970.733" cy="145.665" r="0.549"/>
		<circle opacity="0.5" fill="#9B1515" cx="967.279" cy="137.134" r="0.549"/>
		<circle opacity="0.5" fill="#9B1515" cx="971.135" cy="137.048" r="0.549"/>
		<circle opacity="0.25" fill="#9B1515" cx="954.808" cy="136.818" r="0.548"/>
		<circle opacity="0.25" fill="#9B1515" cx="950.779" cy="129.193" r="0.549"/>
		<circle opacity="0.1" fill="#9B1515" cx="941.59" cy="129.695" r="0.549"/>
	</g>
	<g>
		<circle fill="#9B1515" cx="1149.85" cy="170.44" r="3.294"/>
		<path fill="#9B1515" d="M1145.034,149.663c1.22,0.582,1.739,2.045,1.157,3.267c-0.583,1.221-2.045,1.738-3.268,1.155
			c-1.22-0.579-1.74-2.043-1.157-3.265C1142.35,149.598,1143.811,149.082,1145.034,149.663z"/>
		<circle fill="#9B1515" cx="1121.636" cy="154.65" r="2.581"/>
		<circle fill="#9B1515" cx="1108.184" cy="135.025" r="1.496"/>
		<circle fill="#9B1515" cx="1095.953" cy="135.255" r="1.496"/>
		<circle fill="#9B1515" cx="1091.194" cy="126.169" r="1.496"/>
		<path fill="#9B1515" d="M1073.763,124.879c0.565,0.268,0.803,0.941,0.532,1.505c-0.266,0.561-0.94,0.8-1.502,0.531
			c-0.562-0.268-0.802-0.941-0.534-1.503C1072.527,124.849,1073.202,124.61,1073.763,124.879z"/>
		<path fill="#9B1515" d="M1066.801,113.208c0.562,0.268,0.803,0.941,0.534,1.506c-0.267,0.562-0.941,0.799-1.507,0.531
			c-0.561-0.268-0.799-0.942-0.53-1.504C1065.564,113.179,1066.239,112.94,1066.801,113.208z"/>
		<circle fill="#9B1515" cx="1053.677" cy="114.465" r="1.129"/>
		<circle fill="#9B1515" cx="1046.743" cy="108.861" r="0.678"/>
		<circle fill="#9B1515" cx="1035.726" cy="105.697" r="0.678"/>
		<circle opacity="0.5" fill="#9B1515" cx="1027.181" cy="99.536" r="0.679"/>
		<circle opacity="0.5" fill="#9B1515" cx="1016.334" cy="100.844" r="0.484"/>
		<circle opacity="0.5" fill="#9B1515" cx="1012.409" cy="93.753" r="0.483"/>
		<circle opacity="0.5" fill="#9B1515" cx="1015.772" cy="93.268" r="0.483"/>
		<circle opacity="0.25" fill="#9B1515" cx="1001.472" cy="94.802" r="0.483"/>
		<circle opacity="0.25" fill="#9B1515" cx="997.139" cy="88.561" r="0.484"/>
		<path opacity="0.1" fill="#9B1515" d="M989.366,89.541c0.239,0.114,0.343,0.403,0.23,0.643c-0.117,0.242-0.405,0.344-0.646,0.229
			c-0.241-0.116-0.344-0.404-0.228-0.645C988.836,89.527,989.126,89.424,989.366,89.541z"/>
	</g>
</g>
<linearGradient id="SVGID_13_" gradientUnits="userSpaceOnUse" x1="995.1865" y1="102.1514" x2="995.1865" y2="400.104">
	<stop  offset="0" style="stop-color:#FFFFFF;stop-opacity:0"/>
	<stop  offset="0.1009" style="stop-color:#878786;stop-opacity:0.3833"/>
	<stop  offset="0.7216" style="stop-color:#000000"/>
</linearGradient>
<path opacity="0.2" fill="url(#SVGID_13_)" d="M749.355,400.104c0,0,226.889-178.996,255.633-196.506
	C1150.43,115,1264.625,103.479,1264.625,103.479s-49.078-10.407-145.194,27.062c-40.416,15.755-87.093,41.132-145.247,75.499
	c-19.41,11.471-70.564,42.544-110.851,72.968C797.865,328.447,725.748,400,725.748,400L749.355,400.104z"/>
<g>
	<g>
		
			<linearGradient id="SVGID_14_" gradientUnits="userSpaceOnUse" x1="-94.6128" y1="403.001" x2="-94.6128" y2="61.2607" gradientTransform="matrix(-1 0 0 1 1359.916 0)">
			<stop  offset="0" style="stop-color:#6C8D30"/>
			<stop  offset="0.2614" style="stop-color:#71932F"/>
			<stop  offset="0.6045" style="stop-color:#81A32D"/>
			<stop  offset="0.9918" style="stop-color:#9ABE29"/>
			<stop  offset="1" style="stop-color:#9BBF29"/>
		</linearGradient>
		<path fill="url(#SVGID_14_)" d="M2119.221,155.627c0,0-103.639-79.533-245.001-93.142c-54.696-5.266-76.543,6.194-186.426,39.321
			c-109.885,33.128-199.688,30.654-270.79,24.997c-71.1-5.657-109.892-18.533-150.379-20.279
			C1074.788,98.253,738.059,403,738.059,403h327.129L2171,395V200.598L2119.221,155.627z"/>
		<g opacity="0.3">
			
				<linearGradient id="SVGID_15_" gradientUnits="userSpaceOnUse" x1="-618.4624" y1="310.7695" x2="-618.4624" y2="66.2197" gradientTransform="matrix(-1 0 0 1 1359.916 0)">
				<stop  offset="0" style="stop-color:#5B7521"/>
				<stop  offset="1" style="stop-color:#6C8D30"/>
			</linearGradient>
			<path fill="url(#SVGID_15_)" d="M2173,310.769c0-1.817-109-106.047-193.232-148.466c-84.23-42.418-196.01-89.775-196.01-89.775
				l24.508-6.308c0,0,195.959,47.605,258.375,91.235c62.416,43.631,106.359,79.99,106.359,79.99V310.769z"/>
			
				<linearGradient id="SVGID_16_" gradientUnits="userSpaceOnUse" x1="-573.0938" y1="393.8623" x2="-573.0938" y2="78.1069" gradientTransform="matrix(-1 0 0 1 1359.916 0)">
				<stop  offset="0" style="stop-color:#5B7521"/>
				<stop  offset="1" style="stop-color:#6C8D30"/>
			</linearGradient>
			<path fill="url(#SVGID_16_)" d="M1764.871,78.107l-18.071,5.555c0,0,86.397,54.402,137.905,111.364
				c51.509,56.962,153.292,197.427,153.292,197.427l81.224,1.408c0,0-125.439-162.477-191.49-212.167
				C1842.041,117.231,1764.871,78.107,1764.871,78.107z"/>
			
				<linearGradient id="SVGID_17_" gradientUnits="userSpaceOnUse" x1="-448.3491" y1="389.8506" x2="-448.3491" y2="91.5596" gradientTransform="matrix(-1 0 0 1 1359.916 0)">
				<stop  offset="0" style="stop-color:#5B7521"/>
				<stop  offset="1" style="stop-color:#6C8D30"/>
			</linearGradient>
			<path fill="url(#SVGID_17_)" d="M1723.557,91.56l-10.512,2.878c0,0,45.01,61.805,63.189,100.588
				c18.18,38.782,67.875,193.675,67.875,193.675l59.377,1.148c0,0-52.716-143.921-91.498-193.611
				C1773.205,146.548,1723.557,91.56,1723.557,91.56z"/>
			
				<linearGradient id="SVGID_18_" gradientUnits="userSpaceOnUse" x1="-339.5293" y1="385.001" x2="-339.5293" y2="97.1768" gradientTransform="matrix(-1 0 0 1 1359.916 0)">
				<stop  offset="0" style="stop-color:#5B7521"/>
				<stop  offset="1" style="stop-color:#6C8D30"/>
			</linearGradient>
			<path fill="url(#SVGID_18_)" d="M1701.959,97.177c0,0-12.683,64.107-3.593,131.372c9.09,67.264,29.963,156.451,29.963,156.451
				H1671.4c0,0-3.637-155.585,4.242-201.64c7.877-46.055,11.965-81.63,11.965-81.63L1701.959,97.177z"/>
			
				<linearGradient id="SVGID_19_" gradientUnits="userSpaceOnUse" x1="-254.4761" y1="384.0977" x2="-254.4761" y2="108.6147" gradientTransform="matrix(-1 0 0 1 1359.916 0)">
				<stop  offset="0" style="stop-color:#5B7521"/>
				<stop  offset="1" style="stop-color:#6C8D30"/>
			</linearGradient>
			<path fill="url(#SVGID_19_)" d="M1606.257,384.097l-40.899-0.793c0,0,6.056-88.896,30.9-156.767
				c24.846-67.87,52.229-114.185,52.229-114.185l14.941-3.738c0,0-45.354,97.319-54.443,164.583
				C1599.895,340.462,1606.257,384.097,1606.257,384.097z"/>
			
				<linearGradient id="SVGID_20_" gradientUnits="userSpaceOnUse" x1="-169.2119" y1="382.3799" x2="-169.2119" y2="120.9424" gradientTransform="matrix(-1 0 0 1 1359.916 0)">
				<stop  offset="0" style="stop-color:#5B7521"/>
				<stop  offset="1" style="stop-color:#6C8D30"/>
			</linearGradient>
			<path fill="url(#SVGID_20_)" d="M1606.257,120.942l-19.716,3.028c0,0-38.762,29.414-63.606,65.687
				c-24.845,36.274-68.547,130.296-70.935,191.452l65.49,1.27C1517.49,382.379,1491.424,256.23,1606.257,120.942z"/>
			
				<linearGradient id="SVGID_21_" gradientUnits="userSpaceOnUse" x1="-74.2422" y1="380.001" x2="-74.2422" y2="128" gradientTransform="matrix(-1 0 0 1 1359.916 0)">
				<stop  offset="0" style="stop-color:#5B7521"/>
				<stop  offset="1" style="stop-color:#6C8D30"/>
			</linearGradient>
			<path fill="url(#SVGID_21_)" d="M1548.386,128c0,0-87.867,73.635-113.925,118.052C1408.404,290.468,1376.855,351,1377.48,380
				h-57.549c0,0,19.996-85.882,94.532-156.176S1529.127,128,1529.127,128H1548.386z"/>
			
				<linearGradient id="SVGID_22_" gradientUnits="userSpaceOnUse" x1="8.9243" y1="377.5693" x2="8.9243" y2="129.6655" gradientTransform="matrix(-1 0 0 1 1359.916 0)">
				<stop  offset="0" style="stop-color:#5B7521"/>
				<stop  offset="1" style="stop-color:#6C8D30"/>
			</linearGradient>
			<path fill="url(#SVGID_22_)" d="M1488.699,130.182l-23.932-0.516c0,0-55.455,28.092-99.994,64.754
				s-127.242,102.354-151.488,182.069l55.746,1.079c0,0,23.934-81.646,73.018-130.428
				C1391.134,198.359,1459.312,148.659,1488.699,130.182z"/>
			
				<linearGradient id="SVGID_23_" gradientUnits="userSpaceOnUse" x1="96.1763" y1="375.4561" x2="96.1763" y2="125.8428" gradientTransform="matrix(-1 0 0 1 1359.916 0)">
				<stop  offset="0" style="stop-color:#5B7521"/>
				<stop  offset="1" style="stop-color:#6C8D30"/>
			</linearGradient>
			<path fill="url(#SVGID_23_)" d="M1421.48,127.161l-15.547-1.318c0,0-61.157,25.855-107.212,57.973S1152.643,285.043,1106,374.411
				l53.942,1.044c0,0,56.366-95.895,117.267-149.221c60.901-53.326,144.271-97.866,144.271-97.866"/>
			
				<linearGradient id="SVGID_24_" gradientUnits="userSpaceOnUse" x1="194.3721" y1="377.1924" x2="194.3721" y2="119.624" gradientTransform="matrix(-1 0 0 1 1359.916 0)">
				<stop  offset="0" style="stop-color:#5B7521"/>
				<stop  offset="1" style="stop-color:#6C8D30"/>
			</linearGradient>
			<path fill="url(#SVGID_24_)" d="M1371.225,121.93l-17.062-2.306c0,0-61.197,13.895-145.125,65.706
				c-83.93,51.812-249.173,191.861-249.173,191.861l83.136-4c0,0,100.894-115.749,174.823-166.046
				C1291.753,156.85,1368.878,121.631,1371.225,121.93z"/>
			
				<linearGradient id="SVGID_25_" gradientUnits="userSpaceOnUse" x1="311.229" y1="387.2002" x2="311.229" y2="106.5767" gradientTransform="matrix(-1 0 0 1 1359.916 0)">
				<stop  offset="0" style="stop-color:#5B7521"/>
				<stop  offset="1" style="stop-color:#6C8D30"/>
			</linearGradient>
			<path fill="url(#SVGID_25_)" d="M1307.305,112.116l-30.588-5.539c0,0-150.939,32.849-486.646,280.623l61.062-4.82
				C851.133,382.379,1197.318,140.293,1307.305,112.116z"/>
		</g>
	</g>
	<g>
		<circle fill="#9B1515" cx="1685.587" cy="321.496" r="3.497"/>
		<circle fill="#9B1515" cx="1698.587" cy="307.496" r="3.497"/>
		<circle fill="#9B1515" cx="1683.483" cy="293.393" r="2.601"/>
		<circle fill="#9B1515" cx="1696.346" cy="273.256" r="2.738"/>
		<circle fill="#9B1515" cx="1683.689" cy="251.405" r="1.588"/>
		<circle fill="#9B1515" cx="1689.496" cy="239.793" r="1.588"/>
		<circle fill="#9B1515" cx="1682.964" cy="231.084" r="1.588"/>
		<circle fill="#9B1515" cx="1690.886" cy="213.795" r="1.198"/>
		<circle fill="#9B1515" cx="1682.886" cy="201.795" r="1.198"/>
		<circle fill="#9B1515" cx="1688.886" cy="189.795" r="1.198"/>
		<circle fill="#9B1515" cx="1686.685" cy="180.594" r="0.719"/>
		<circle fill="#9B1515" cx="1688.685" cy="168.594" r="0.719"/>
		<circle opacity="0.5" fill="#9B1515" cx="1686.685" cy="157.594" r="0.719"/>
		<circle opacity="0.5" fill="#9B1515" cx="1692.892" cy="147.801" r="0.513"/>
		<circle opacity="0.5" fill="#9B1515" cx="1687.892" cy="140.801" r="0.513"/>
		<circle opacity="0.5" fill="#9B1515" cx="1685.892" cy="143.801" r="0.513"/>
		<circle opacity="0.25" fill="#9B1515" cx="1693.892" cy="130.801" r="0.513"/>
		<circle opacity="0.25" fill="#9B1515" cx="1689.892" cy="123.801" r="0.513"/>
		<circle opacity="0.1" fill="#9B1515" cx="1694.892" cy="116.801" r="0.513"/>
	</g>
	<g>
		<circle fill="#9B1515" cx="1844.206" cy="306.231" r="3.496"/>
		<circle fill="#9B1515" cx="1848.587" cy="287.635" r="3.496"/>
		<circle fill="#9B1515" cx="1828.486" cy="282.84" r="2.6"/>
		<circle fill="#9B1515" cx="1829.716" cy="258.977" r="2.738"/>
		<circle fill="#9B1515" cx="1807.914" cy="246.237" r="1.588"/>
		<circle fill="#9B1515" cx="1807.222" cy="233.272" r="1.588"/>
		<circle fill="#9B1515" cx="1797.239" cy="228.93" r="1.588"/>
		<circle fill="#9B1515" cx="1795.581" cy="209.985" r="1.198"/>
		<circle fill="#9B1515" cx="1782.695" cy="203.507" r="1.198"/>
		<circle fill="#9B1515" cx="1781.98" cy="190.11" r="1.198"/>
		<circle fill="#9B1515" cx="1775.519" cy="183.199" r="0.719"/>
		<circle fill="#9B1515" cx="1771.327" cy="171.779" r="0.719"/>
		<circle opacity="0.5" fill="#9B1515" cx="1764.151" cy="163.205" r="0.719"/>
		<circle opacity="0.5" fill="#9B1515" cx="1764.707" cy="151.624" r="0.513"/>
		<circle opacity="0.5" fill="#9B1515" cx="1756.9" cy="148.009" r="0.513"/>
		<circle opacity="0.5" fill="#9B1515" cx="1756.644" cy="151.606" r="0.513"/>
		<circle opacity="0.25" fill="#9B1515" cx="1757.173" cy="136.351" r="0.513"/>
		<circle opacity="0.25" fill="#9B1515" cx="1750.237" cy="132.243" r="0.513"/>
		<circle opacity="0.1" fill="#9B1515" cx="1751.124" cy="123.686" r="0.513"/>
	</g>
	<g>
		<circle fill="#9B1515" cx="1977.173" cy="264.784" r="3.497"/>
		<circle fill="#9B1515" cx="1975.813" cy="245.728" r="3.497"/>
		<circle fill="#9B1515" cx="1955.197" cy="247.141" r="2.601"/>
		<circle fill="#9B1515" cx="1949.258" cy="223.996" r="2.738"/>
		<circle fill="#9B1515" cx="1924.65" cy="218.334" r="1.587"/>
		<circle fill="#9B1515" cx="1920.125" cy="206.165" r="1.588"/>
		<circle fill="#9B1515" cx="1909.301" cy="204.995" r="1.588"/>
		<circle fill="#9B1515" cx="1902.073" cy="187.405" r="1.198"/>
		<circle fill="#9B1515" cx="1887.842" cy="185.062" r="1.197"/>
		<circle fill="#9B1515" cx="1883.167" cy="172.487" r="1.198"/>
		<circle fill="#9B1515" cx="1874.938" cy="167.816" r="0.719"/>
		<circle fill="#9B1515" cx="1867.533" cy="158.165" r="0.72"/>
		<circle opacity="0.5" fill="#9B1515" cx="1858.128" cy="152.119" r="0.719"/>
		<circle opacity="0.5" fill="#9B1515" cx="1855.207" cy="140.898" r="0.513"/>
		<circle opacity="0.5" fill="#9B1515" cx="1846.677" cy="139.775" r="0.513"/>
		<circle opacity="0.5" fill="#9B1515" cx="1847.505" cy="143.285" r="0.513"/>
		<circle opacity="0.25" fill="#9B1515" cx="1843.464" cy="128.565" r="0.513"/>
		<circle opacity="0.25" fill="#9B1515" cx="1835.618" cy="126.711" r="0.513"/>
		<circle opacity="0.1" fill="#9B1515" cx="1833.914" cy="118.279" r="0.513"/>
	</g>
	<g>
		<circle fill="#9B1515" cx="2041.552" cy="183.881" r="3.496"/>
		<circle fill="#9B1515" cx="2035.021" cy="165.927" r="3.497"/>
		<circle fill="#9B1515" cx="2015.582" cy="172.938" r="2.601"/>
		<circle fill="#9B1515" cx="2003.526" cy="152.306" r="2.738"/>
		<circle fill="#9B1515" cx="1978.309" cy="153.606" r="1.588"/>
		<circle fill="#9B1515" cx="1970.622" cy="143.143" r="1.588"/>
		<circle fill="#9B1515" cx="1959.892" cy="144.985" r="1.588"/>
		<circle fill="#9B1515" cx="1948.119" cy="130.05" r="1.198"/>
		<circle fill="#9B1515" cx="1933.791" cy="131.698" r="1.198"/>
		<circle fill="#9B1515" cx="1925.848" cy="120.886" r="1.197"/>
		<circle fill="#9B1515" cx="1916.654" cy="118.648" r="0.719"/>
		<circle fill="#9B1515" cx="1906.888" cy="111.396" r="0.72"/>
		<circle opacity="0.5" fill="#9B1515" cx="1896.186" cy="108.16" r="0.719"/>
		<circle opacity="0.5" fill="#9B1515" cx="1890.3" cy="98.17" r="0.513"/>
		<circle opacity="0.5" fill="#9B1515" cx="1881.79" cy="99.428" r="0.513"/>
		<circle opacity="0.5" fill="#9B1515" cx="1883.548" cy="102.576" r="0.513"/>
		<circle opacity="0.25" fill="#9B1515" cx="1875.627" cy="89.528" r="0.512"/>
		<circle opacity="0.25" fill="#9B1515" cx="1867.573" cy="89.895" r="0.513"/>
		<circle opacity="0.1" fill="#9B1515" cx="1863.624" cy="82.253" r="0.513"/>
	</g>
	<g>
		<circle fill="#9B1515" cx="1572.546" cy="323.674" r="3.497"/>
		<circle fill="#9B1515" cx="1589.252" cy="314.406" r="3.497"/>
		<circle fill="#9B1515" cx="1579.277" cy="296.308" r="2.6"/>
		<circle fill="#9B1515" cx="1597.76" cy="281.163" r="2.738"/>
		<circle fill="#9B1515" cx="1592.518" cy="256.462" r="1.588"/>
		<circle fill="#9B1515" cx="1601.644" cy="247.228" r="1.588"/>
		<circle fill="#9B1515" cx="1598.141" cy="236.92" r="1.588"/>
		<circle fill="#9B1515" cx="1611.042" cy="222.948" r="1.197"/>
		<circle fill="#9B1515" cx="1607.166" cy="209.058" r="1.198"/>
		<circle fill="#9B1515" cx="1616.598" cy="199.515" r="1.198"/>
		<circle fill="#9B1515" cx="1617.363" cy="190.085" r="0.719"/>
		<circle fill="#9B1515" cx="1622.993" cy="179.3" r="0.72"/>
		<circle opacity="0.5" fill="#9B1515" cx="1624.509" cy="168.224" r="0.72"/>
		<circle opacity="0.5" fill="#9B1515" cx="1633.451" cy="160.843" r="0.513"/>
		<circle opacity="0.5" fill="#9B1515" cx="1630.873" cy="152.636" r="0.513"/>
		<circle opacity="0.5" fill="#9B1515" cx="1628.04" cy="154.866" r="0.513"/>
		<circle opacity="0.25" fill="#9B1515" cx="1639.683" cy="144.995" r="0.513"/>
		<circle opacity="0.25" fill="#9B1515" cx="1638.056" cy="137.099" r="0.513"/>
		<circle opacity="0.1" fill="#9B1515" cx="1644.983" cy="131.998" r="0.513"/>
	</g>
	<g>
		<circle fill="#9B1515" cx="1476.922" cy="332.3" r="3.497"/>
		<circle fill="#9B1515" cx="1494.505" cy="324.828" r="3.497"/>
		<circle fill="#9B1515" cx="1486.476" cy="305.786" r="2.6"/>
		<circle fill="#9B1515" cx="1506.44" cy="292.655" r="2.738"/>
		<circle fill="#9B1515" cx="1503.808" cy="267.542" r="1.589"/>
		<circle fill="#9B1515" cx="1513.85" cy="259.312" r="1.588"/>
		<circle fill="#9B1515" cx="1511.443" cy="248.695" r="1.588"/>
		<circle fill="#9B1515" cx="1525.733" cy="236.148" r="1.197"/>
		<circle fill="#9B1515" cx="1523.33" cy="221.927" r="1.198"/>
		<circle fill="#9B1515" cx="1533.707" cy="213.423" r="1.198"/>
		<circle fill="#9B1515" cx="1535.454" cy="204.125" r="0.719"/>
		<circle fill="#9B1515" cx="1542.179" cy="193.987" r="0.72"/>
		<circle opacity="0.5" fill="#9B1515" cx="1544.845" cy="183.13" r="0.72"/>
		<circle opacity="0.5" fill="#9B1515" cx="1554.509" cy="176.724" r="0.513"/>
		<circle opacity="0.5" fill="#9B1515" cx="1552.803" cy="168.292" r="0.513"/>
		<circle opacity="0.5" fill="#9B1515" cx="1549.752" cy="170.214" r="0.513"/>
		<circle opacity="0.25" fill="#9B1515" cx="1562.362" cy="161.614" r="0.513"/>
		<circle opacity="0.25" fill="#9B1515" cx="1561.57" cy="153.59" r="0.513"/>
		<circle opacity="0.1" fill="#9B1515" cx="1568.993" cy="149.242" r="0.513"/>
	</g>
	<g>
		<circle fill="#9B1515" cx="1366.317" cy="308.206" r="3.496"/>
		<circle fill="#9B1515" cx="1385.234" cy="305.536" r="3.496"/>
		<circle fill="#9B1515" cx="1382.403" cy="285.065" r="2.601"/>
		<circle fill="#9B1515" cx="1405.084" cy="277.545" r="2.738"/>
		<circle fill="#9B1515" cx="1409.037" cy="252.605" r="1.589"/>
		<circle fill="#9B1515" cx="1420.865" cy="247.253" r="1.588"/>
		<circle fill="#9B1515" cx="1421.287" cy="236.375" r="1.589"/>
		<circle fill="#9B1515" cx="1438.336" cy="227.951" r="1.197"/>
		<circle fill="#9B1515" cx="1439.693" cy="213.593" r="1.198"/>
		<circle fill="#9B1515" cx="1451.916" cy="208.062" r="1.198"/>
		<circle fill="#9B1515" cx="1456.008" cy="199.532" r="0.72"/>
		<circle fill="#9B1515" cx="1465.127" cy="191.479" r="0.719"/>
		<circle opacity="0.5" fill="#9B1515" cx="1470.51" cy="181.679" r="0.72"/>
		<circle opacity="0.5" fill="#9B1515" cx="1481.502" cy="177.991" r="0.513"/>
		<circle opacity="0.5" fill="#9B1515" cx="1482.035" cy="169.405" r="0.513"/>
		<circle opacity="0.5" fill="#9B1515" cx="1478.591" cy="170.473" r="0.513"/>
		<circle opacity="0.25" fill="#9B1515" cx="1492.997" cy="165.427" r="0.513"/>
		<circle opacity="0.25" fill="#9B1515" cx="1494.306" cy="157.472" r="0.513"/>
		<circle opacity="0.1" fill="#9B1515" cx="1502.601" cy="155.19" r="0.513"/>
	</g>
	<g>
		<circle fill="#9B1515" cx="1266.625" cy="298.522" r="3.496"/>
		<circle fill="#9B1515" cx="1285.721" cy="299.109" r="3.496"/>
		<circle fill="#9B1515" cx="1286.414" cy="278.455" r="2.601"/>
		<circle fill="#9B1515" cx="1310.043" cy="274.904" r="2.738"/>
		<circle fill="#9B1515" cx="1318.181" cy="251" r="1.588"/>
		<circle fill="#9B1515" cx="1330.748" cy="247.737" r="1.588"/>
		<circle fill="#9B1515" cx="1333.014" cy="237.09" r="1.589"/>
		<circle fill="#9B1515" cx="1351.248" cy="231.689" r="1.197"/>
		<circle fill="#9B1515" cx="1355.028" cy="217.771" r="1.198"/>
		<circle fill="#9B1515" cx="1368.014" cy="214.4" r="1.197"/>
		<circle fill="#9B1515" cx="1373.497" cy="206.69" r="0.72"/>
		<circle fill="#9B1515" cx="1383.853" cy="200.307" r="0.719"/>
		<circle opacity="0.5" fill="#9B1515" cx="1390.825" cy="191.566" r="0.72"/>
		<circle opacity="0.5" fill="#9B1515" cx="1402.285" cy="189.802" r="0.513"/>
		<circle opacity="0.5" fill="#9B1515" cx="1404.27" cy="181.432" r="0.513"/>
		<circle opacity="0.5" fill="#9B1515" cx="1400.695" cy="181.898" r="0.513"/>
		<circle opacity="0.25" fill="#9B1515" cx="1415.749" cy="179.376" r="0.513"/>
		<circle opacity="0.25" fill="#9B1515" cx="1418.393" cy="171.759" r="0.513"/>
		<circle opacity="0.1" fill="#9B1515" cx="1426.955" cy="170.924" r="0.513"/>
	</g>
	<g>
		<circle fill="#9B1515" cx="1191.625" cy="289.522" r="3.496"/>
		<circle fill="#9B1515" cx="1210.721" cy="290.109" r="3.496"/>
		<circle fill="#9B1515" cx="1211.414" cy="269.455" r="2.601"/>
		<circle fill="#9B1515" cx="1235.043" cy="265.904" r="2.738"/>
		<circle fill="#9B1515" cx="1243.181" cy="242" r="1.588"/>
		<circle fill="#9B1515" cx="1255.748" cy="238.737" r="1.588"/>
		<circle fill="#9B1515" cx="1258.014" cy="228.09" r="1.589"/>
		<circle fill="#9B1515" cx="1276.248" cy="222.689" r="1.197"/>
		<circle fill="#9B1515" cx="1280.028" cy="208.771" r="1.198"/>
		<circle fill="#9B1515" cx="1293.014" cy="205.4" r="1.197"/>
		<circle fill="#9B1515" cx="1298.497" cy="197.69" r="0.72"/>
		<circle fill="#9B1515" cx="1308.853" cy="191.307" r="0.719"/>
		<circle opacity="0.5" fill="#9B1515" cx="1315.825" cy="182.566" r="0.72"/>
		<circle opacity="0.5" fill="#9B1515" cx="1327.285" cy="180.802" r="0.513"/>
		<circle opacity="0.5" fill="#9B1515" cx="1329.27" cy="172.432" r="0.513"/>
		<circle opacity="0.5" fill="#9B1515" cx="1325.695" cy="172.898" r="0.513"/>
		<circle opacity="0.25" fill="#9B1515" cx="1340.749" cy="170.376" r="0.513"/>
		<circle opacity="0.25" fill="#9B1515" cx="1343.393" cy="162.759" r="0.513"/>
		<circle opacity="0.1" fill="#9B1515" cx="1351.955" cy="161.924" r="0.513"/>
	</g>
	<g>
		<circle fill="#9B1515" cx="1103.18" cy="263.725" r="3.496"/>
		<circle fill="#9B1515" cx="1121.967" cy="267.195" r="3.496"/>
		<circle fill="#9B1515" cx="1125.777" cy="246.884" r="2.601"/>
		<circle fill="#9B1515" cx="1149.672" cy="246.948" r="2.738"/>
		<circle fill="#9B1515" cx="1161.334" cy="224.552" r="1.588"/>
		<circle fill="#9B1515" cx="1174.25" cy="223.229" r="1.588"/>
		<circle fill="#9B1515" cx="1178.101" cy="213.047" r="1.588"/>
		<circle fill="#9B1515" cx="1196.942" cy="210.468" r="1.197"/>
		<circle fill="#9B1515" cx="1202.785" cy="197.281" r="1.199"/>
		<circle fill="#9B1515" cx="1216.131" cy="195.915" r="1.197"/>
		<circle fill="#9B1515" cx="1222.718" cy="189.123" r="0.72"/>
		<circle fill="#9B1515" cx="1233.921" cy="184.38" r="0.719"/>
		<circle opacity="0.5" fill="#9B1515" cx="1242.135" cy="176.795" r="0.72"/>
		<circle opacity="0.5" fill="#9B1515" cx="1253.73" cy="176.786" r="0.513"/>
		<circle opacity="0.5" fill="#9B1515" cx="1256.959" cy="168.812" r="0.513"/>
		<circle opacity="0.5" fill="#9B1515" cx="1253.354" cy="168.732" r="0.513"/>
		<circle opacity="0.25" fill="#9B1515" cx="1268.616" cy="168.517" r="0.513"/>
		<circle opacity="0.25" fill="#9B1515" cx="1272.383" cy="161.388" r="0.513"/>
		<circle opacity="0.1" fill="#9B1515" cx="1280.972" cy="161.858" r="0.513"/>
	</g>
	<g>
		<path fill="#9B1515" d="M957.29,282.754c-2.253,1.424-2.925,4.404-1.503,6.654c1.424,2.251,4.404,2.922,6.654,1.499
			c2.252-1.424,2.922-4.403,1.5-6.653C962.516,282.002,959.539,281.331,957.29,282.754z"/>
		<path fill="#9B1515" d="M983.192,287.592c-2.253,1.424-2.924,4.402-1.5,6.653c1.421,2.251,4.403,2.921,6.652,1.499
			c2.251-1.424,2.923-4.402,1.502-6.652C988.421,286.84,985.443,286.168,983.192,287.592z"/>
		<path fill="#9B1515" d="M989.16,260.632c-1.673,1.059-2.172,3.274-1.114,4.948c1.06,1.676,3.274,2.174,4.95,1.115
			c1.672-1.057,2.174-3.273,1.115-4.949C993.051,260.072,990.838,259.574,989.16,260.632z"/>
		<path fill="#9B1515" d="M1022.018,260.625c-1.764,1.115-2.288,3.447-1.174,5.21c1.114,1.765,3.447,2.288,5.213,1.175
			c1.76-1.114,2.287-3.447,1.171-5.209C1026.111,260.037,1023.779,259.511,1022.018,260.625z"/>
		<path fill="#9B1515" d="M1039.01,231.105c-1.021,0.646-1.328,2-0.68,3.023c0.644,1.021,1.997,1.325,3.021,0.68
			c1.021-0.646,1.325-2,0.683-3.02C1041.385,230.765,1040.03,230.459,1039.01,231.105z"/>
		<circle fill="#9B1515" cx="1057.998" cy="231.167" r="2.19"/>
		<path fill="#9B1515" d="M1062.166,215.282c-1.021,0.646-1.328,1.999-0.681,3.022c0.647,1.021,1.999,1.326,3.022,0.681
			c1.021-0.647,1.329-2.001,0.679-3.022C1064.542,214.939,1063.191,214.636,1062.166,215.282z"/>
		<path fill="#9B1515" d="M1088.45,212.23c-0.774,0.488-1.003,1.508-0.513,2.281c0.484,0.769,1.507,1,2.277,0.512
			c0.77-0.487,1.001-1.508,0.514-2.277C1090.24,211.973,1089.219,211.744,1088.45,212.23z"/>
		<path fill="#9B1515" d="M1096.543,194.059c-0.771,0.488-1.003,1.508-0.515,2.282c0.486,0.77,1.507,0.997,2.282,0.511
			c0.769-0.486,0.998-1.508,0.508-2.278C1098.334,193.801,1097.312,193.571,1096.543,194.059z"/>
		<path fill="#9B1515" d="M1114.955,192.21c-0.771,0.488-1.003,1.508-0.516,2.28c0.487,0.77,1.508,0.999,2.281,0.513
			c0.769-0.488,1-1.509,0.513-2.28C1116.747,191.951,1115.725,191.723,1114.955,192.21z"/>
		<circle fill="#9B1515" cx="1124.942" cy="184.257" r="0.993"/>
		<circle fill="#9B1515" cx="1140.406" cy="177.745" r="0.993"/>
		<path opacity="0.5" fill="#9B1515" d="M1151.226,166.466c-0.462,0.295-0.602,0.907-0.31,1.372c0.296,0.462,0.908,0.6,1.371,0.307
			c0.464-0.292,0.6-0.906,0.308-1.369C1152.303,166.313,1151.689,166.175,1151.226,166.466z"/>
		<path opacity="0.5" fill="#9B1515" d="M1167.371,166.725c-0.331,0.21-0.43,0.646-0.225,0.977c0.213,0.33,0.649,0.429,0.98,0.22
			c0.33-0.21,0.428-0.646,0.221-0.977C1168.141,166.615,1167.7,166.516,1167.371,166.725z"/>
		<circle opacity="0.5" fill="#9B1515" cx="1172.224" cy="156.334" r="0.707"/>
		<path opacity="0.5" fill="#9B1515" d="M1166.874,155.616c-0.327,0.208-0.43,0.646-0.22,0.976c0.209,0.332,0.645,0.43,0.974,0.22
			c0.333-0.208,0.431-0.646,0.222-0.977C1167.642,155.505,1167.203,155.407,1166.874,155.616z"/>
		<circle opacity="0.25" fill="#9B1515" cx="1188.303" cy="155.959" r="0.707"/>
		<circle opacity="0.25" fill="#9B1515" cx="1193.518" cy="146.136" r="0.708"/>
		<path opacity="0.1" fill="#9B1515" d="M1204.985,146.209c-0.329,0.209-0.429,0.646-0.224,0.976
			c0.213,0.33,0.648,0.429,0.979,0.221c0.331-0.21,0.43-0.647,0.22-0.977C1205.754,146.098,1205.314,145.999,1204.985,146.209z"/>
	</g>
</g>
</svg>
