<?xml version="1.0" encoding="utf-8"?>
<!-- Generator: Adobe Illustrator 16.0.0, SVG Export Plug-In . SVG Version: 6.00 Build 0)  -->
<!DOCTYPE svg PUBLIC "-//W3C//DTD SVG 1.1//EN" "http://www.w3.org/Graphics/SVG/1.1/DTD/svg11.dtd">
<svg version="1.1" id="Layer_1" xmlns="http://www.w3.org/2000/svg" xmlns:xlink="http://www.w3.org/1999/xlink" x="0px" y="0px"
	 width="384px" height="68px" viewBox="0 0 384 68" style="enable-background:new 0 0 384 68;" xml:space="preserve">
<g>
	<g>
		<path style="fill:#004289;" d="M225.698,45.938c-0.794,9.077-3.804,14.329-9.73,14.329c-1.426,0-2.682-0.225-3.548-0.6
			l2.317-26.482c1.177-0.601,2.403-0.9,4.279-0.9C225.242,32.286,226.387,38.062,225.698,45.938z M237.316,45.189
			c1.042-11.928-4.889-19.581-14.416-19.581c-3.524,0-5.679,0.601-7.632,1.5l1.7-19.429h-11.703l-4.956,56.639
			c2.55,1.724,7.39,2.999,14.367,2.999C227.955,67.318,236.077,59.367,237.316,45.189z"/>
		<path style="fill:#004289;" d="M328.767,66.567l2.479-28.354c0.271-3.076-1.319-5.478-5.373-5.478c-2.024,0-3.803,0.6-5.271,1.949
			c0,0-1.328,15.181-2.039,23.303c-0.586,6.697-4.368,8.579-8.878,8.579c-2.543,0-3.574,0-3.574,0l2.494-28.505
			c0.282-3.226-1.785-5.327-5.835-5.327c-2.102,0-3.319,0.226-4.794,0.751l-2.894,33.081h-11.702l3.341-38.182
			c4.677-2.026,9.564-3.001,16.616-3.001c6.677,0,10.345,1.8,12.474,4.051c2.741-2.175,7.029-4.051,13.708-4.051
			c9.6,0,14.053,5.702,13.43,12.83l-2.48,28.354H328.767z"/>
		<path style="fill:#004289;" d="M264.148,60.043c-1.097,0.525-2.624,0.825-4.348,0.825c-4.652,0-7.175-2.027-6.762-6.751
			c0.563-6.452,5.283-8.104,12.396-8.778L264.148,60.043z M274.727,64.319l2.113-24.155c0.958-10.954-5.458-14.78-14.611-14.78
			c-5.751,0-11.442,1.347-15.901,3.228c0.799,3.303,3.95,5.428,6.879,4.93c2.102-0.357,4.264-0.882,6.21-0.882
			c4.277,0,7.023,1.201,6.655,5.402l-0.165,1.874c-12.251,1.126-22.946,4.202-23.859,14.631c-0.735,8.401,4.887,12.751,16.59,12.751
			C265.611,67.318,271.192,66.118,274.727,64.319z"/>
		<path style="fill:#004289;" d="M370.043,60.043c-1.1,0.525-2.626,0.825-4.35,0.825c-4.652,0-7.177-2.027-6.762-6.751
			c0.562-6.452,5.284-8.104,12.396-8.778L370.043,60.043z M380.62,64.319l2.112-24.155c0.959-10.954-5.46-14.78-14.61-14.78
			c-5.751,0-11.443,1.347-15.902,3.228c0.801,3.303,3.95,5.428,6.878,4.93c2.104-0.357,4.265-0.882,6.212-0.882
			c4.276,0,7.022,1.201,6.654,5.402l-0.164,1.874c-12.252,1.126-22.947,4.202-23.861,14.631c-0.735,8.401,4.888,12.751,16.59,12.751
			C371.503,67.318,377.086,66.118,380.62,64.319z"/>
	</g>
	<path style="fill:#56AF31;" d="M245.953,24.07c5.554-5.212,16.152-5.403,24.117-4.784c10.794,0.839,19.886-7.318,25.121-18.615
		c-5.555,5.212-16.153,5.403-24.117,4.784C260.279,4.616,251.188,12.773,245.953,24.07z"/>
</g>
<g>
	<g>
		<path style="fill:#CF0A2C;" d="M12.9,50.69h2.607v2.725c0,0.717-0.575,1.293-1.292,1.293h-2.501c-0.716,0-1.28-0.576-1.28-1.293
			v-5.236c0-0.716,0.564-1.294,1.28-1.294h2.501c0.716,0,1.292,0.578,1.292,1.294v0.856l-1.115,0.177v-0.799
			c0-0.282-0.212-0.493-0.494-0.493h-1.844c-0.281,0-0.505,0.211-0.505,0.493v4.767c0,0.283,0.224,0.494,0.505,0.494h1.844
			c0.282,0,0.494-0.211,0.494-0.494v-1.467H12.9V50.69z"/>
		<path style="fill:#CF0A2C;" d="M23.362,54.708h-1.127l-0.633-1.856h-2.877l-0.61,1.856h-1.14l2.666-7.823h1.058L23.362,54.708z
			 M19.065,51.842h2.207l-1.104-3.464L19.065,51.842z"/>
		<path style="fill:#CF0A2C;" d="M27.977,51.549h-1.796v3.159h-1.115v-7.823h3.864c0.728,0,1.292,0.578,1.292,1.294v2.077
			c0,0.634-0.388,1.116-1.035,1.269l1.551,3.184h-1.221L27.977,51.549z M29.105,48.413c0-0.282-0.211-0.493-0.506-0.493h-2.419
			v2.606H28.6c0.294,0,0.506-0.21,0.506-0.492V48.413z"/>
		<path style="fill:#CF0A2C;" d="M31.853,46.885h5.579v1.035H35.2v6.788h-1.116V47.92h-2.231V46.885z"/>
		<path style="fill:#CF0A2C;" d="M44.606,54.708h-1.081l-3.311-5.792v5.792h-1.081v-7.823h1.081l3.311,5.814v-5.814h1.081V54.708z"
			/>
		<path style="fill:#CF0A2C;" d="M46.955,46.885h4.603v1.035H48.07v2.278h3.171v1.031H48.07v2.444h3.5v1.034h-4.615V46.885z"/>
		<path style="fill:#CF0A2C;" d="M56.596,51.549h-1.796v3.159h-1.116v-7.823h3.864c0.728,0,1.292,0.578,1.292,1.294v2.077
			c0,0.634-0.388,1.116-1.034,1.269l1.55,3.184h-1.221L56.596,51.549z M57.723,48.413c0-0.282-0.211-0.493-0.504-0.493h-2.419v2.606
			h2.419c0.293,0,0.504-0.21,0.504-0.492V48.413z"/>
		<path style="fill:#CF0A2C;" d="M65.532,51.207H62.35v3.501h-1.115v-7.823h1.115v3.29h3.182v-3.29h1.116v7.823h-1.116V51.207z"/>
		<path style="fill:#CF0A2C;" d="M74.74,54.708h-1.128l-0.634-1.856H70.1l-0.61,1.856h-1.14l2.666-7.823h1.057L74.74,54.708z
			 M70.441,51.842h2.208l-1.103-3.464L70.441,51.842z"/>
		<path style="fill:#CF0A2C;" d="M76.442,46.885h1.115v6.789h3.452v1.034h-4.567V46.885z"/>
		<path style="fill:#CF0A2C;" d="M82.889,46.885h1.116v6.789h3.452v1.034h-4.568V46.885z"/>
		<path style="fill:#CF0A2C;" d="M89.336,46.885h4.604v1.035h-3.488v2.278h3.17v1.031h-3.17v2.444h3.5v1.034h-4.615V46.885z"/>
		<path style="fill:#CF0A2C;" d="M101.537,54.708h-1.081l-3.31-5.792v5.792h-1.081v-7.823h1.081l3.31,5.814v-5.814h1.081V54.708z"/>
	</g>
	<g>
		<g>
			<path style="fill:#FFFFFF;" d="M55.019,7.38c-0.18,0.001-4.437,0.048-6.399,0.369c-2.246,0.368-3.357,1.108-4.759,3.167
				c-1.423,2.091-4.58,7.202-6.33,11.57l0.028-0.062c-0.058,0.121-1.385,3.006,0.549,6.681c0.821,1.557,3.716,6.924,6.553,10.614
				l-0.05-0.07c0.073,0.11,1.817,2.714,6.515,2.888c1.794,0.067,3.289,0.094,4.705,0.084c-0.009,0,1.357,0,1.357,0
				c1.112-0.005,2.307-0.033,3.657-0.084c4.698-0.174,6.442-2.777,6.515-2.888l-0.051,0.07c2.838-3.69,5.734-9.058,6.553-10.614
				c1.936-3.675,0.608-6.56,0.552-6.681l0.026,0.062c-1.75-4.368-4.905-9.479-6.33-11.57c-1.401-2.06-2.513-2.799-4.759-3.167
				c-1.961-0.321-6.218-0.368-6.399-0.369C56.942,7.38,55.03,7.38,55.019,7.38z"/>
		</g>
		<path style="fill:#CF0A2C;" d="M56.942,8.49c0,0,4.33,0.043,6.23,0.354c1.902,0.312,2.758,0.841,4.021,2.695
			c1.262,1.855,4.456,6.965,6.217,11.359c0,0,1.169,2.461-0.529,5.688c-1.698,3.225-4.223,7.557-6.451,10.456
			c0,0-1.449,2.228-5.625,2.383c-1.197,0.045-2.4,0.076-3.614,0.084h-1.367c-1.566,0.011-3.117-0.026-4.656-0.084
			c-4.176-0.155-5.625-2.383-5.625-2.383c-2.228-2.898-4.752-7.23-6.452-10.456c-1.698-3.227-0.529-5.688-0.529-5.688
			c1.761-4.394,4.956-9.504,6.218-11.359c1.262-1.854,2.119-2.383,4.019-2.695C50.701,8.534,55.03,8.49,55.03,8.49H56.942z
			 M56.27,34.271c4.781,0,9.717-0.802,11.783-1.234c2.067-0.432,1.1-2.731,1.1-2.731c-4.067-11.517-9.737-17.853-11.066-19.436
			c-1.257-1.501-2.125-1.408-2.125-1.408l0,0c0,0-0.87-0.104-2.15,1.408c-1.33,1.583-7,7.919-11.067,19.436
			c0,0-0.967,2.299,1.1,2.731c2.067,0.432,7.002,1.234,11.783,1.234H56.27z"/>
		<path style="fill:#E75300;" d="M53.689,13.427c0.067-0.01,4.444-0.01,4.507-0.001c0.258,0.04,0.49,0.156,0.672,0.327
			c0.047,0.042,1.196,1.381,2.793,3.877c0,0,0.433,0.787,0.094,1.418c0,0-0.216,0.432-0.895,0.432c-0.68,0-2.422,0-2.422,0
			s-0.549,0.122-1.092-0.543l-0.579-0.713c0,0-0.743-1.012-1.665,0.075c-0.921,1.089-3.68,4.627-5.107,8.935
			c0,0-0.379,0.976,0.361,1.16c0.741,0.187,5.336,1.251,11.197,0c0,0,0.7-0.179,0.458-0.944s-0.427-1.475-1.522-1.475
			s-3.485,0-3.485,0s-0.91-0.016-0.91-0.849c0-0.832,0-2.19,0-2.19s-0.062-1.005,1.007-1.005c1.152,0,6.288,0,6.288,0
			s0.723-0.112,1.279,0.986c0.68,1.347,1.373,2.833,2.043,4.452c0.071,0.175,0.281,0.571,0.059,1.046
			c-0.047,0.09-1.973,3.43-1.973,3.43c-0.188,0.319-0.488,0.419-0.786,0.483c-3.177,0.412-5.572,0.631-7.979,0.638l-0.246,0.005
			c-2.384-0.009-4.766-0.229-7.913-0.637c-0.298-0.064-0.599-0.165-0.787-0.482c0,0-1.924-3.34-1.973-3.43
			c-0.223-0.476-0.012-0.87,0.059-1.048c3.595-8.663,7.755-13.531,7.844-13.613c0.183-0.17,0.414-0.287,0.672-0.327
			c0.064-0.009,4.442-0.009,4.509,0.002"/>
	</g>
	<g>
		<path style="fill:#E75300;" d="M25.01,58.067h3.056c0.703,0,1.182,0.471,1.182,1.194v4.705c0,0.723-0.479,1.192-1.182,1.192H25.01
			V58.067z M25.489,64.711h2.503c0.511,0,0.777-0.277,0.777-0.787v-4.62c0-0.511-0.267-0.788-0.777-0.788h-2.503V64.711z"/>
		<path style="fill:#E75300;" d="M30.579,60.112h0.49l1.576,4.462l1.586-4.462h0.49l-2.534,7.07h-0.479l0.691-2.023L30.579,60.112z"
			/>
		<path style="fill:#E75300;" d="M38.297,60.443c-0.351,0.168-0.66,0.329-0.969,0.51c-0.436,0.257-0.776,0.501-0.776,0.96v3.246
			h-0.469v-5.047h0.469v0.841c0.383-0.298,1.043-0.67,1.703-0.947L38.297,60.443z"/>
		<path style="fill:#E75300;" d="M40.47,62.626l2.512,2.533h-0.629l-2.417-2.471v2.471h-0.468v-7.092l0.468-0.085v4.567l2.354-2.438
			h0.585L40.47,62.626z"/>
		<path style="fill:#E75300;" d="M44.567,62.626v1.309c0,0.512,0.266,0.788,0.777,0.788h1.214c0.512,0,0.777-0.276,0.777-0.788
			v-0.298l0.458,0.075v0.255c0,0.723-0.479,1.192-1.182,1.192H45.28c-0.703,0-1.181-0.47-1.181-1.192v-2.662
			c0-0.724,0.479-1.192,1.181-1.192h1.31c0.703,0,1.182,0.469,1.182,1.192v1.321H44.567z M44.567,62.211h2.747v-0.896
			c0-0.511-0.266-0.787-0.777-0.787h-1.193c-0.511,0-0.777,0.276-0.777,0.787V62.211z"/>
		<path style="fill:#E75300;" d="M51.87,60.443c-0.352,0.168-0.66,0.329-0.969,0.51c-0.436,0.257-0.776,0.501-0.776,0.96v3.246
			h-0.469v-5.047h0.469v0.841c0.382-0.298,1.043-0.67,1.703-0.947L51.87,60.443z"/>
		<path style="fill:#E75300;" d="M57.971,64.956c-0.415,0.129-0.937,0.244-1.31,0.244c-0.703,0-1.182-0.468-1.182-1.189v-2.812
			c0-0.725,0.479-1.193,1.182-1.193c0.373,0,0.895,0.118,1.31,0.245c0.299,0.085,0.522,0.192,0.713,0.341v-0.479h0.469v5.876
			c0,0.726-0.479,1.194-1.182,1.194h-2.076v-0.427h2.013c0.51,0,0.777-0.275,0.777-0.788v-1.352
			C58.493,64.765,58.27,64.872,57.971,64.956z M58.684,61.507c0-0.458-0.298-0.671-0.777-0.819
			c-0.405-0.128-0.917-0.244-1.182-0.244c-0.511,0-0.777,0.275-0.777,0.788v2.745c0,0.513,0.266,0.788,0.777,0.788
			c0.266,0,0.777-0.115,1.182-0.244c0.479-0.149,0.777-0.362,0.777-0.819V61.507z"/>
		<path style="fill:#E75300;" d="M64.795,63.967c0,0.723-0.479,1.192-1.182,1.192h-1.416c-0.703,0-1.182-0.47-1.182-1.192v-2.662
			c0-0.724,0.479-1.192,1.182-1.192h1.416c0.703,0,1.182,0.469,1.182,1.192V63.967z M63.549,60.55h-1.288
			c-0.511,0-0.777,0.277-0.777,0.787v2.598c0,0.512,0.266,0.788,0.777,0.788h1.288c0.512,0,0.777-0.276,0.777-0.788v-2.598
			C64.326,60.827,64.061,60.55,63.549,60.55z"/>
		<path style="fill:#E75300;" d="M66.605,61.199c0-0.725,0.479-1.193,1.181-1.193c0.374,0,0.895,0.118,1.31,0.245
			c0.298,0.085,0.522,0.192,0.713,0.341v-2.524l0.468-0.085v7.177H69.81v-0.48c-0.191,0.15-0.416,0.257-0.713,0.341
			c-0.416,0.129-0.937,0.246-1.31,0.246c-0.702,0-1.181-0.469-1.181-1.193V61.199z M69.81,61.507c0-0.458-0.299-0.671-0.777-0.819
			c-0.404-0.128-0.916-0.244-1.182-0.244c-0.511,0-0.777,0.275-0.777,0.788v2.811c0,0.51,0.266,0.787,0.777,0.787
			c0.266,0,0.777-0.118,1.182-0.245c0.479-0.15,0.777-0.362,0.777-0.819V61.507z"/>
		<path style="fill:#E75300;" d="M71.609,60.112h0.862v-1.288l0.468-0.086v1.374h1.565l-0.075,0.416h-1.49v3.417
			c0,0.512,0.266,0.787,0.776,0.787h0.671v0.427h-0.734c-0.703,0-1.182-0.47-1.182-1.192v-3.438h-0.862V60.112z"/>
		<path style="fill:#E75300;" d="M78.434,58.067l0.468-0.085v7.177h-0.468V58.067z"/>
		<path style="fill:#E75300;" d="M80.977,58.047h0.469v1.054h-0.469V58.047z M80.977,60.112h0.469v5.047h-0.469V60.112z"/>
		<path style="fill:#E75300;" d="M82.83,60.112h0.49l1.577,4.493l1.575-4.493h0.49l-1.81,5.047H84.64L82.83,60.112z"/>
	</g>
</g>
<g>
	<g>
		<path style="fill:#FFFFFF;" d="M131.753,7.867c-6.123,0.003-11.115,4.998-11.122,11.125v47.703h41.583
			c6.127-0.006,11.121-4.995,11.124-11.122V7.867H131.753z"/>
	</g>
	<g>
	</g>
	<path style="fill:#76B82A;" d="M131.753,11.433c-4.161,0.004-7.551,3.394-7.557,7.562v24.387h38.451
		c3.924-0.069,7.104-3.276,7.108-7.237V13.567c0-0.065,0.011-0.125,0.017-0.189v-1.944H131.753z"/>
	<path style="fill:#E30613;" d="M162.214,63.131c4.163-0.007,7.557-3.396,7.558-7.559v-8.709h-24.351v16.268H162.214z"/>
	<g>
		<g>
			<path style="fill:#FFFFFF;" d="M133.81,31.868h1.317v6.696c0,0.944-0.667,1.37-1.429,1.37c-0.776,0-1.303-0.287-1.651-1.01
				l-1.94-4.103c0,0,0.084,0.402,0.084,0.612v4.437h-1.319v-8.002h1.235l3.272,6.778c0.138,0.305,0.431,0.265,0.431-0.024V31.868z"
				/>
			<path style="fill:#FFFFFF;" d="M142.662,33.771v4.135c0,1.175-0.697,1.965-2.04,1.965h-1.804c-1.291,0-2.023-0.748-2.023-1.965
				v-4.135c0-1.176,0.791-1.902,2.023-1.902h1.804C141.881,31.868,142.662,32.604,142.662,33.771z M138.93,33.008
				c-0.542,0-0.816,0.276-0.816,0.898v3.925c0,0.622,0.273,0.901,0.816,0.901h1.593c0.542,0,0.818-0.279,0.818-0.901v-3.925
				c0-0.623-0.276-0.898-0.818-0.898H138.93z"/>
			<path style="fill:#FFFFFF;" d="M144.328,31.868h3.771c1.264,0,2.038,0.736,2.038,1.902v0.857c0,0.654-0.444,1.125-0.902,1.43
				l-1.233,0.817l2.274,2.995h-1.512l-1.79-2.314l-1.33,0.872v1.442h-1.317V31.868z M148.251,35.308
				c0.293-0.195,0.57-0.431,0.57-0.815v-0.586c0-0.623-0.277-0.898-0.819-0.898h-2.357v4.02L148.251,35.308z"/>
			<path style="fill:#FFFFFF;" d="M156.188,35.162h1.319v2.743c0,1.175-0.695,1.965-2.04,1.965h-1.802
				c-1.292,0-2.027-0.748-2.027-1.965v-4.135c0-1.176,0.792-1.902,2.027-1.902h3.162v1.14h-3.054c-0.538,0-0.814,0.276-0.814,0.898
				v3.925c0,0.622,0.276,0.901,0.814,0.901h1.596c0.54,0,0.818-0.279,0.818-0.901V36.52l-1.927-0.007v-1.351H156.188z"/>
		</g>
	</g>
	<path style="fill:#FFFFFF;" d="M137.586,15.189v10.604c0,0.292-0.293,0.333-0.431,0.027l-5.072-10.632h-3.22v14.122h2.982v-7.665
		c0-0.05-0.001-0.106-0.007-0.165v-0.584l3.126,6.827c0.521,1.085,1.285,1.587,2.373,1.682l-0.001,0.003
		c0.036,0.005,0.07,0.005,0.105,0.006c0.073,0.003,0.149,0.006,0.225,0.006c0.007,0,0.015,0,0.023,0c0.001,0,0.004,0,0.005,0
		c0.015,0,0.028,0.005,0.044,0.005c0.247,0,0.489-0.03,0.718-0.085c0.451-0.097,0.875-0.288,1.231-0.59
		c0.552-0.472,0.893-1.212,0.888-2.119V15.189H137.586z"/>
	<path style="fill:#FFFFFF;" d="M163.71,38.732h-2.486c-0.539,0-0.818-0.279-0.818-0.901v-1.294h3.304v-1.375h-3.304v-1.256
		c0-0.623,0.279-0.898,0.818-0.898h2.486v-1.14h-2.596c-1.232,0-2.025,0.726-2.025,1.902v4.135c0,1.217,0.736,1.965,2.025,1.965
		h2.596V38.732z"/>
	<polygon style="fill:#FFFFFF;" points="157.039,15.234 157.039,18.223 160.563,18.223 160.563,29.356 163.617,29.356 
		163.617,18.223 167.116,18.223 167.116,15.234 	"/>
	<path style="fill:#FFFFFF;" d="M146.032,15.247l2.789,5.251l3.034-5.251h3.628l-4.961,8.591v5.47h-3.177v-5.47l-4.939-8.591
		H146.032z"/>
	<rect x="124.196" y="46.863" style="fill:#E30613;" width="9.483" height="16.268"/>
	<rect x="137.145" y="46.863" style="fill:#164194;" width="4.807" height="16.268"/>
</g>
</svg>
