<?xml version="1.0" encoding="utf-8"?>
<!-- Generator: Adobe Illustrator 16.0.0, SVG Export Plug-In . SVG Version: 6.00 Build 0)  -->
<!DOCTYPE svg PUBLIC "-//W3C//DTD SVG 1.1//EN" "http://www.w3.org/Graphics/SVG/1.1/DTD/svg11.dtd">
<svg version="1.1" id="Layer_1" xmlns="http://www.w3.org/2000/svg" xmlns:xlink="http://www.w3.org/1999/xlink" x="0px" y="0px"
	 width="88px" height="88px" viewBox="0 0 88 88" style="enable-background:new 0 0 88 88;" xml:space="preserve">
<g>
	<path style="fill:#534741;" d="M44,2.781c22.689,0,41.148,18.46,41.148,41.151C85.147,66.621,66.688,85.08,44,85.08
		c-22.69,0-41.151-18.459-41.151-41.148C2.849,21.242,21.309,2.781,44,2.781 M44-0.019c-24.275,0-43.951,19.676-43.951,43.951
		C0.049,68.201,19.725,87.88,44,87.88c24.269,0,43.948-19.679,43.948-43.948C87.947,19.657,68.269-0.019,44-0.019L44-0.019z"/>
</g>
<g>
	
		<line style="fill:none;stroke:#534741;stroke-width:2.8;stroke-linecap:round;stroke-miterlimit:10;" x1="23.81" y1="23.395" x2="63.941" y2="63.523"/>
	
		<line style="fill:none;stroke:#534741;stroke-width:2.8;stroke-linecap:round;stroke-miterlimit:10;" x1="63.941" y1="23.395" x2="23.81" y2="63.523"/>
</g>
</svg>
