<?xml version="1.0" encoding="utf-8"?>
<!-- Generator: Adobe Illustrator 16.0.0, SVG Export Plug-In . SVG Version: 6.00 Build 0)  -->
<!DOCTYPE svg PUBLIC "-//W3C//DTD SVG 1.1//EN" "http://www.w3.org/Graphics/SVG/1.1/DTD/svg11.dtd">
<svg version="1.1" id="Layer_1" xmlns="http://www.w3.org/2000/svg" xmlns:xlink="http://www.w3.org/1999/xlink" x="0px" y="0px"
	 width="44px" height="44px" viewBox="0 0 44 44" style="enable-background:new 0 0 44 44;" xml:space="preserve">
<g>
	<path style="fill:#534741;" d="M21.936,1.501c11.299,0,20.492,9.193,20.492,20.493c0,11.299-9.192,20.492-20.492,20.492
		c-11.3,0-20.493-9.192-20.493-20.492C1.443,10.694,10.636,1.501,21.936,1.501 M21.936,0.106c-12.089,0-21.887,9.798-21.887,21.887
		c0,12.086,9.798,21.886,21.887,21.886c12.086,0,21.886-9.8,21.886-21.886C43.822,9.905,34.022,0.106,21.936,0.106L21.936,0.106z"/>
</g>
<g>
	
		<line style="fill:none;stroke:#534741;stroke-width:1.3944;stroke-linecap:round;stroke-miterlimit:10;" x1="11.882" y1="11.766" x2="31.867" y2="31.75"/>
	
		<line style="fill:none;stroke:#534741;stroke-width:1.3944;stroke-linecap:round;stroke-miterlimit:10;" x1="31.867" y1="11.766" x2="11.882" y2="31.75"/>
</g>
</svg>
